<?xml version="1.0" standalone="no"?>
<!DOCTYPE svg PUBLIC "-//W3C//DTD SVG 1.1//EN" "http://www.w3.org/Graphics/SVG/1.1/DTD/svg11.dtd" >
<svg xmlns="http://www.w3.org/2000/svg" xmlns:xlink="http://www.w3.org/1999/xlink" version="1.1">
<metadata>
Created by FontForge 20190801 at Wed Nov  3 12:41:23 2004
 By Jimmy Wärting
Digitized data (c) 1993 The Monotype Corporation. All rights reserved.
</metadata>
<defs>
<font id="AndaleMonoMTStd-Bold" horiz-adv-x="600" >
  <font-face 
    font-family="Andale Mono MT Std"
    font-weight="700"
    font-stretch="normal"
    units-per-em="1000"
    panose-1="2 11 8 9 2 2 4 2 2 3"
    ascent="699"
    descent="-301"
    x-height="515"
    cap-height="689"
    bbox="-26 -208 624 930"
    underline-thickness="64"
    underline-position="-154"
    stemh="80"
    stemv="93"
    unicode-range="U+0020-FB02"
  />
<missing-glyph 
d="M62 0v665h475v-665h-475zM138 618l162 -243l161 243h-323zM110 575v-484c0 -1 161 242 161 242zM490 575l-162 -242l162 -243v485zM461 48l-161 242l-162 -242h323z" />
    <glyph glyph-name="fi" unicode="fi" 
d="M500 0h-114v421h-159v-421h-115v421h-118v101h118v39c0 65 18 115 54 149s88 51 157 51c25 0 62 -6 109 -19l-39 -98c-35 11 -64 16 -89 16c-29 0 -49 -8 -60 -26s-17 -52 -17 -103v-9h273v-522z" />
    <glyph glyph-name="fl" unicode="fl" 
d="M500 0h-114v645l-13 5c-21 8 -45 10 -69 10c-29 0 -49 -8 -60 -26s-17 -52 -17 -103v-9l149 1v-102h-149v-421h-115v421h-118v101h118v39c0 65 18 115 54 149s88 51 157 51c29 0 57 -3 85 -10l92 -1v-750z" />
    <glyph glyph-name=".notdef" 
d="M62 0v665h475v-665h-475zM138 618l162 -243l161 243h-323zM110 575v-484c0 -1 161 242 161 242zM490 575l-162 -242l162 -243v485zM461 48l-161 242l-162 -242h323z" />
    <glyph glyph-name=".notdef" 
d="M62 0v665h475v-665h-475zM138 618l162 -243l161 243h-323zM110 575v-484c0 -1 161 242 161 242zM490 575l-162 -242l162 -243v485zM461 48l-161 242l-162 -242h323z" />
    <glyph glyph-name="space" unicode=" " 
 />
    <glyph glyph-name="space" unicode="&#xa0;" 
 />
    <glyph glyph-name="exclam" unicode="!" 
d="M356 690v-147l-19 -330h-86l-19 328v149h124zM378 67c0 -22 -8 -41 -23 -56c-16 -16 -35 -24 -58 -24c-22 0 -40 8 -56 24s-24 34 -24 56s8 40 23 55s34 22 57 22s42 -7 58 -22c15 -15 23 -33 23 -55z" />
    <glyph glyph-name="quotedbl" unicode="&#x22;" 
d="M450 689v-119l-26 -135h-72l-26 135v119h124zM274 689v-119l-26 -135h-72l-26 135v119h124z" />
    <glyph glyph-name="numbersign" unicode="#" 
d="M570 270v-81h-156l-41 -189h-91l41 189h-109l-41 -189h-91l41 189h-90v81h108l33 151h-141v81h158l41 187h91l-41 -187h109l41 187h91l-41 -187h88v-81h-105l-33 -151h138zM341 270l34 151h-109l-34 -151h109z" />
    <glyph glyph-name="dollar" unicode="$" 
d="M340 750v-62c47 -2 104 -12 170 -29l-39 -98c-39 16 -82 27 -131 32v-190l31 -16c50 -26 85 -46 105 -63c19 -17 34 -36 43 -55s14 -41 14 -65c0 -54 -17 -98 -50 -132c-33 -35 -81 -57 -143 -67v-90h-71v85c-41 0 -77 4 -106 11s-59 19 -89 36l38 99
c53 -35 105 -52 157 -52v221l-50 24c-57 27 -95 55 -114 81c-20 26 -30 57 -30 94c0 47 17 86 52 117s82 49 142 56v63h71zM340 281v-179c53 15 79 45 79 90c0 31 -26 61 -79 89zM269 438v153c-52 -9 -78 -33 -78 -74c0 -14 5 -27 16 -39s31 -25 62 -40z" />
    <glyph glyph-name="percent" unicode="%" 
d="M314 539c0 -51 -13 -91 -40 -120s-64 -44 -113 -44s-86 15 -113 44s-40 69 -40 120c0 50 14 90 41 119s64 44 112 44c49 0 87 -14 114 -43c26 -29 39 -69 39 -120zM454 689h93l-405 -689h-93zM204 539c0 53 -14 79 -43 79s-43 -26 -43 -79s14 -80 43 -80s43 27 43 80z
M593 151c0 -51 -13 -91 -40 -120s-64 -44 -113 -44c-48 0 -85 15 -112 44s-41 69 -41 120c0 50 14 90 41 119s64 44 112 44c49 0 88 -14 114 -42c27 -29 39 -69 39 -121zM483 151c0 53 -14 79 -43 79s-43 -26 -43 -79s14 -80 43 -80s43 27 43 80z" />
    <glyph glyph-name="ampersand" unicode="&#x26;" 
d="M481 154l124 -155h-137l-53 65c-49 -51 -106 -77 -169 -77s-115 19 -154 56s-59 85 -59 144c0 37 10 72 29 103s51 63 94 94c-41 57 -62 108 -62 152c0 52 17 93 50 122s77 44 134 44c49 0 89 -12 120 -36c31 -25 46 -59 46 -102c0 -37 -10 -71 -31 -101
c-21 -31 -56 -62 -105 -95l100 -124c17 39 32 79 44 119l8 26h138v-94h-56c-14 -44 -34 -91 -61 -141zM330 562c0 14 -5 25 -15 34c-11 9 -23 13 -38 13c-45 0 -67 -23 -67 -70c0 -26 12 -57 37 -94c31 21 52 41 65 59c12 18 18 37 18 58zM354 140l-118 143l-19 23
c-43 -33 -65 -72 -65 -117c0 -33 9 -59 26 -78c17 -20 40 -30 70 -30c39 0 75 20 106 59z" />
    <glyph glyph-name="quoteright" unicode="&#x2019;" 
d="M378 620c0 -39 -13 -77 -40 -112c-27 -36 -63 -64 -108 -84v68c37 21 55 41 55 58c-18 0 -34 8 -47 23c-14 15 -21 33 -21 53c0 21 8 39 23 54s33 22 54 22c25 0 45 -7 61 -22c15 -15 23 -35 23 -60z" />
    <glyph glyph-name="parenleft" unicode="(" 
d="M531 -30v-105l-41 27c-34 22 -74 56 -119 105s-78 101 -101 154s-35 105 -35 158s11 106 34 159c23 52 56 102 100 150c43 48 85 81 121 105l41 27v-105l-15 -12c-47 -38 -84 -86 -113 -144s-43 -119 -43 -182s14 -124 43 -181c29 -58 66 -106 113 -144z" />
    <glyph glyph-name="parenright" unicode=")" 
d="M371 309c0 -53 -11 -105 -34 -158s-57 -104 -101 -153c-45 -49 -86 -84 -120 -106l-41 -27v105l15 12c47 38 84 86 113 144c29 57 43 118 43 181s-14 124 -43 182s-66 106 -113 144l-15 12v105l41 -27c38 -25 80 -58 123 -106s76 -98 99 -150c22 -52 33 -105 33 -158z
" />
    <glyph glyph-name="asterisk" unicode="*" 
d="M473 459l30 -89l-55 -15l-78 -7l53 -56l34 -42l-86 -52l-33 38l-40 78l-34 -78l-32 -37l-86 51l32 42l55 57l-81 7l-53 15l30 89l56 -16l76 -32l-15 79v51h108v-51l-15 -78l77 31z" />
    <glyph glyph-name="plus" unicode="+" 
d="M551 393v-80h-205v-192h-90v192h-207v80h207v192h90v-192h205z" />
    <glyph glyph-name="comma" unicode="," 
d="M378 59c0 -39 -13 -77 -40 -113c-27 -35 -63 -63 -108 -83v68c37 21 55 41 55 58c-18 0 -34 8 -47 23c-14 15 -21 33 -21 53c0 21 8 39 23 54s33 22 54 22c25 0 45 -7 61 -22c15 -15 23 -35 23 -60z" />
    <glyph glyph-name="hyphen" unicode="-" 
d="M460 393v-80h-330v80h330z" />
    <glyph glyph-name="hyphen" unicode="&#xad;" 
d="M460 393v-80h-330v80h330z" />
    <glyph glyph-name="period" unicode="." 
d="M377 65c0 -21 -8 -40 -23 -55c-16 -15 -35 -23 -58 -23c-22 0 -41 8 -56 23c-16 15 -24 33 -24 55s8 40 23 55c15 14 34 21 57 21s42 -7 58 -22c15 -15 23 -33 23 -54z" />
    <glyph glyph-name="slash" unicode="/" 
d="M390 702h91l-291 -715h-90z" />
    <glyph glyph-name="zero" unicode="0" 
d="M538 344c0 -111 -21 -198 -63 -261c-42 -64 -101 -96 -176 -96s-134 32 -176 96c-42 63 -63 150 -63 261c0 114 21 202 62 265c41 62 100 93 177 93s136 -31 177 -93c41 -63 62 -151 62 -265zM418 344c0 97 -9 164 -28 202s-50 57 -91 57s-71 -19 -90 -57
s-29 -105 -29 -202c0 -95 10 -162 29 -200c19 -39 49 -58 90 -58s72 19 91 57s28 105 28 201z" />
    <glyph glyph-name="one" unicode="1" 
d="M477 95v-95h-357v95h136v484l-102 -38l-47 88l181 64h84v-598h105z" />
    <glyph glyph-name="two" unicode="2" 
d="M515 95v-95h-460v46c0 50 13 94 38 132c25 37 77 84 155 139c41 29 70 52 85 69s27 34 34 53c7 18 11 38 11 60c0 30 -12 56 -36 78c-25 22 -54 33 -87 33c-36 0 -87 -12 -153 -37l-43 84c72 30 138 45 199 45c71 0 128 -18 172 -55c43 -37 65 -86 65 -147
c0 -44 -16 -88 -49 -131c-33 -44 -88 -93 -167 -146c-63 -43 -99 -85 -110 -128h346z" />
    <glyph glyph-name="three" unicode="3" 
d="M513 206c0 -65 -27 -117 -80 -158s-118 -61 -195 -61c-81 0 -147 16 -199 47l41 98c22 -17 48 -29 77 -38s57 -14 83 -14c47 0 84 11 112 32s42 51 42 89c0 34 -18 62 -55 83s-81 32 -133 32h-6l-17 90h18c47 0 89 10 126 30s55 46 55 79c0 29 -12 52 -37 69
s-57 25 -96 25c-43 0 -94 -14 -153 -43l-28 92c66 29 127 44 183 44c76 0 137 -16 182 -49s67 -78 67 -136c0 -37 -15 -69 -45 -96c-31 -28 -65 -46 -104 -53v-2c45 -8 84 -26 115 -55s47 -64 47 -105z" />
    <glyph glyph-name="four" unicode="4" 
d="M552 244v-100h-103v-144h-116v144h-303v82l298 463h121v-445h103zM139 243h194v301z" />
    <glyph glyph-name="five" unicode="5" 
d="M514 226c0 -64 -26 -120 -79 -167c-53 -48 -113 -72 -181 -72c-85 0 -152 15 -203 45l40 98c50 -33 105 -50 165 -50c38 0 71 14 98 43s40 64 40 105c0 37 -12 68 -37 93s-55 37 -90 37c-32 0 -63 -6 -92 -18l-80 29l48 320h355v-95h-271l-22 -148c19 4 41 6 67 6
c71 0 129 -21 174 -64s68 -97 68 -162z" />
    <glyph glyph-name="six" unicode="6" 
d="M534 218c0 -65 -22 -119 -66 -164c-45 -45 -100 -67 -166 -67c-75 0 -135 34 -178 101s-65 152 -65 256c0 107 23 194 68 260c45 65 106 98 184 98c69 0 134 -13 195 -38l-35 -96c-55 26 -106 39 -153 39c-45 0 -80 -21 -105 -62s-37 -94 -37 -158c45 25 86 38 124 38
c71 0 128 -19 171 -56c42 -37 63 -88 63 -151zM413 216c0 34 -11 62 -32 85c-21 22 -49 33 -82 33c-21 0 -42 -4 -63 -13c-22 -9 -39 -19 -52 -31c3 -57 14 -107 34 -148c19 -41 45 -62 78 -62c34 0 62 14 84 41s33 59 33 95z" />
    <glyph glyph-name="seven" unicode="7" 
d="M545 689v-80c-83 -81 -148 -177 -195 -289c-48 -113 -72 -219 -72 -320h-118c0 87 24 189 72 306c47 116 107 212 179 288h-349v95h483z" />
    <glyph glyph-name="eight" unicode="8" 
d="M518 191c0 -65 -21 -115 -64 -150c-43 -36 -103 -54 -178 -54c-71 0 -128 18 -172 55s-66 85 -66 146c0 63 37 117 110 163l27 17l-8 4c-76 38 -112 93 -112 158c0 50 20 91 61 124c41 32 94 48 161 48c65 0 118 -15 159 -46s61 -70 61 -117c0 -59 -39 -110 -118 -155
l-10 -7l25 -14c84 -47 124 -107 124 -172zM382 529c0 23 -11 43 -32 58s-46 22 -75 22s-53 -7 -72 -22s-28 -34 -28 -59c0 -30 34 -63 102 -100c70 43 105 76 105 101zM393 188c0 35 -35 72 -104 111l-23 13l-25 -16c-55 -35 -83 -71 -83 -108c0 -33 11 -59 34 -78
s51 -29 85 -29c35 0 64 10 85 29s31 45 31 78z" />
    <glyph glyph-name="nine" unicode="9" 
d="M533 345c0 -107 -22 -194 -67 -259c-45 -66 -107 -99 -185 -99c-72 0 -137 13 -194 39l35 96c55 -28 106 -42 152 -42c45 0 80 21 105 63c25 41 37 94 37 159c-44 -25 -85 -38 -124 -38c-69 0 -126 19 -169 58s-65 88 -65 149c0 65 22 119 66 164s99 67 166 67
c78 0 138 -32 180 -95c42 -64 63 -151 63 -262zM408 401c-1 57 -12 107 -31 148c-20 41 -47 62 -81 62s-62 -14 -84 -41c-22 -28 -33 -60 -33 -97c0 -33 11 -60 33 -83s49 -35 81 -35c21 0 42 5 63 14s39 19 52 32z" />
    <glyph glyph-name="colon" unicode=":" 
d="M377 446c0 -21 -8 -40 -23 -55c-16 -16 -35 -24 -58 -24c-22 0 -41 8 -56 23c-16 15 -24 34 -24 56c0 21 8 39 23 54c15 14 34 21 57 21s42 -7 58 -22c15 -15 23 -32 23 -53zM377 65c0 -21 -8 -40 -23 -55c-16 -15 -35 -23 -58 -23c-22 0 -41 8 -56 23
c-16 15 -24 33 -24 55s8 40 23 55c15 14 34 21 57 21s42 -7 58 -22c15 -15 23 -33 23 -54z" />
    <glyph glyph-name="semicolon" unicode=";" 
d="M377 446c0 -21 -8 -40 -23 -55c-16 -15 -35 -23 -58 -23s-42 8 -57 23s-23 34 -23 55s8 39 23 54c15 14 34 21 57 21s42 -6 58 -21c15 -14 23 -33 23 -54zM378 59c0 -39 -13 -77 -40 -113c-27 -35 -63 -63 -108 -83v68c37 21 55 41 55 58c-18 0 -34 8 -47 23
c-14 15 -21 33 -21 53c0 21 8 39 23 54s33 22 54 22c25 0 45 -7 61 -22c15 -15 23 -35 23 -60z" />
    <glyph glyph-name="semicolon" unicode="&#x37e;" 
d="M377 446c0 -21 -8 -40 -23 -55c-16 -15 -35 -23 -58 -23s-42 8 -57 23s-23 34 -23 55s8 39 23 54c15 14 34 21 57 21s42 -6 58 -21c15 -14 23 -33 23 -54zM378 59c0 -39 -13 -77 -40 -113c-27 -35 -63 -63 -108 -83v68c37 21 55 41 55 58c-18 0 -34 8 -47 23
c-14 15 -21 33 -21 53c0 21 8 39 23 54s33 22 54 22c25 0 45 -7 61 -22c15 -15 23 -35 23 -60z" />
    <glyph glyph-name="less" unicode="&#x3c;" 
d="M493 190v-85l-405 213v71l405 211v-85l-313 -164z" />
    <glyph glyph-name="equal" unicode="=" 
d="M551 478v-80h-502v80h502zM551 308v-80h-502v80h502z" />
    <glyph glyph-name="greater" unicode="&#x3e;" 
d="M512 389v-71l-405 -213v85l313 161l-313 164v85z" />
    <glyph glyph-name="question" unicode="?" 
d="M485 528c0 -60 -41 -120 -120 -183l-38 -30c-22 -17 -32 -43 -32 -75v-45h-107v46c0 60 20 106 61 139l50 41c43 35 68 67 68 104c0 26 -9 47 -26 60c-18 14 -43 20 -74 20c-35 0 -70 -8 -105 -24l-33 -15l-38 93l37 15c48 19 96 28 144 28c67 0 119 -15 157 -45
c37 -30 56 -73 56 -129zM331 67c0 -22 -8 -41 -23 -56c-16 -16 -35 -24 -58 -24c-22 0 -40 8 -56 24s-24 34 -24 56s8 40 23 55c15 14 34 21 57 21s42 -7 58 -22c15 -15 23 -33 23 -54z" />
    <glyph glyph-name="at" unicode="@" 
d="M529 501v-321h-93v19c-5 -7 -12 -13 -22 -18c-11 -5 -20 -7 -28 -7c-44 0 -81 14 -111 43s-45 65 -45 110c0 42 19 78 57 108c37 30 86 51 146 62v11c0 33 -11 61 -33 84c-23 23 -50 35 -81 35c-47 0 -84 -26 -111 -77s-41 -120 -41 -206c0 -78 14 -144 43 -197
c29 -54 65 -81 110 -81c26 0 50 5 73 14c22 9 49 26 80 51v-92c-15 -14 -37 -26 -67 -36c-30 -11 -59 -16 -86 -16c-76 0 -137 33 -182 99c-45 65 -68 151 -68 258c0 111 22 199 66 263c44 63 105 95 183 95c63 0 113 -19 152 -58s58 -86 58 -143zM433 282v139
c-74 -19 -111 -51 -111 -96c0 -18 8 -34 23 -49s30 -22 46 -22c9 0 18 3 26 9c8 5 13 12 16 19z" />
    <glyph glyph-name="A" unicode="A" 
d="M404 207h-205l-58 -207h-119l221 689h119l217 -689h-116zM226 301h151l-75 265z" />
    <glyph glyph-name="B" unicode="B" 
d="M537 210c0 -61 -26 -112 -77 -151c-52 -39 -115 -59 -190 -59h-178v689h168c79 0 140 -15 185 -44c45 -30 67 -73 67 -128c0 -32 -12 -60 -35 -85c-24 -25 -53 -41 -87 -50v-3c37 -6 71 -25 102 -58c30 -33 45 -70 45 -111zM385 516c0 25 -12 44 -36 58s-55 21 -93 21
h-48v-170h44c41 0 73 8 97 24s36 38 36 67zM415 213c0 36 -15 65 -46 86s-70 32 -117 32h-44v-237h56c46 0 83 10 110 31s41 50 41 88z" />
    <glyph glyph-name="C" unicode="C" 
d="M536 635l-58 -83c-51 37 -99 56 -144 56c-47 0 -82 -21 -105 -64s-35 -110 -35 -200c0 -175 47 -263 140 -263c19 0 43 4 72 11c28 7 53 15 76 26l39 -84c-57 -31 -119 -47 -187 -47c-86 0 -150 30 -194 91c-43 60 -66 149 -66 266c0 115 22 203 67 265s109 93 193 93
c41 0 76 -4 107 -15c30 -10 62 -28 95 -52z" />
    <glyph glyph-name="D" unicode="D" 
d="M539 344c0 -99 -26 -181 -78 -246c-53 -65 -121 -98 -204 -98h-173v689h173c86 0 155 -31 206 -94s76 -146 76 -251zM420 344c0 81 -14 144 -41 187c-28 43 -69 64 -122 64h-58v-501h58c53 0 94 21 122 64c27 43 41 105 41 186z" />
    <glyph glyph-name="E" unicode="E" 
d="M491 99v-99h-400v689h397v-99h-282v-172h271v-94h-271v-225h285z" />
    <glyph glyph-name="F" unicode="F" 
d="M514 689v-99h-290v-186h255v-94h-255v-310h-115v689h405z" />
    <glyph glyph-name="G" unicode="G" 
d="M544 341v-282l-9 -6c-67 -44 -132 -66 -197 -66c-176 0 -264 119 -264 357c0 115 23 204 68 266c45 61 111 92 197 92c40 0 75 -5 105 -15c29 -10 60 -27 93 -52l-58 -83c-51 37 -98 56 -142 56c-49 0 -85 -21 -108 -62c-23 -42 -35 -109 -35 -202c0 -86 12 -151 37 -196
c24 -45 60 -67 107 -67c38 0 68 8 91 23v143h-102v94h217z" />
    <glyph glyph-name="H" unicode="H" 
d="M520 689v-689h-115v337h-206v-337h-115v689h115v-258h206v258h115z" />
    <glyph glyph-name="I" unicode="I" 
d="M482 94v-94h-349v94h119v501h-119v94h349v-94h-114v-501h114z" />
    <glyph glyph-name="J" unicode="J" 
d="M394 598v-407c0 -136 -66 -204 -198 -204c-26 0 -55 6 -86 17s-57 25 -76 41l52 91c20 -15 41 -28 64 -39c22 -11 41 -16 57 -16c47 0 71 39 71 116v398h-138v94h355v-91h-101z" />
    <glyph glyph-name="K" unicode="K" 
d="M337 361l254 -361h-133l-249 362l250 327h125zM209 689v-689h-115v689h115z" />
    <glyph glyph-name="L" unicode="L" 
d="M496 94v-94h-376v689h115v-595h261z" />
    <glyph glyph-name="M" unicode="M" 
d="M540 689v-689h-112v406l6 140l-21 -84l-70 -161h-75l-77 163l-23 81l7 -142v-403h-111v689h124l115 -250l108 250h129z" />
    <glyph glyph-name="N" unicode="N" 
d="M530 689v-689h-110l-215 435l-31 79l11 -159v-355h-111v689h113l223 -452l22 -62l-13 134v380h111z" />
    <glyph glyph-name="O" unicode="O" 
d="M538 344c0 -111 -21 -198 -63 -261c-42 -64 -101 -96 -176 -96s-134 32 -176 96c-42 63 -63 150 -63 261c0 114 21 202 62 265c41 62 100 93 177 93s136 -31 177 -93c41 -63 62 -151 62 -265zM418 344c0 100 -9 169 -28 207s-49 57 -91 57s-72 -19 -91 -56
c-19 -38 -28 -107 -28 -208c0 -98 9 -166 28 -205s49 -58 91 -58s72 19 91 57c19 37 28 106 28 206z" />
    <glyph glyph-name="P" unicode="P" 
d="M531 493c0 -39 -12 -74 -37 -106s-59 -58 -104 -77s-89 -29 -134 -29h-41v-281h-115v689h165c78 0 142 -18 192 -53c49 -35 74 -83 74 -143zM409 492c0 31 -14 56 -42 75s-62 28 -102 28h-50v-220h46c38 0 72 11 103 34c30 22 45 50 45 83z" />
    <glyph glyph-name="Q" unicode="Q" 
d="M568 -35l31 -12l-39 -99l-16 6c-14 5 -29 14 -44 23c-39 23 -87 61 -142 115c-18 -7 -38 -11 -59 -11c-75 0 -134 32 -176 95s-63 149 -63 260c0 115 21 203 62 266s100 94 177 94s136 -31 177 -94s62 -151 62 -266c0 -142 -33 -243 -100 -303c57 -39 101 -63 130 -74z
M418 342c0 100 -9 169 -28 208c-19 38 -49 57 -91 57s-72 -19 -91 -57s-28 -107 -28 -208c0 -98 9 -166 28 -203c19 -38 49 -57 91 -57c43 0 73 18 92 55c18 37 27 105 27 205z" />
    <glyph glyph-name="R" unicode="R" 
d="M377 325l220 -325h-132l-194 292h-72v-292h-115v689h171c75 0 136 -17 183 -50c46 -33 69 -79 69 -137c0 -75 -43 -134 -130 -177zM386 501c0 28 -13 51 -40 68s-58 26 -95 26h-52v-209h48c39 0 72 11 99 32s40 49 40 83z" />
    <glyph glyph-name="S" unicode="S" 
d="M533 196c0 -65 -24 -116 -71 -153c-48 -37 -111 -56 -190 -56c-43 0 -79 4 -108 11c-30 7 -60 19 -90 36l38 99c53 -35 105 -52 156 -52c45 0 81 9 109 27s42 43 42 76c0 19 -9 38 -26 56c-18 18 -51 39 -98 62l-76 37c-53 26 -90 53 -111 82c-22 29 -33 62 -33 101
c0 54 22 98 66 131s102 49 174 49c55 0 120 -10 195 -30l-39 -98c-21 9 -48 17 -79 24c-32 7 -57 10 -76 10c-39 0 -69 -7 -91 -22c-23 -15 -34 -35 -34 -61c0 -16 7 -31 20 -45c13 -15 38 -31 75 -50l66 -33c56 -28 94 -52 116 -71s38 -39 49 -60s16 -45 16 -70z" />
    <glyph glyph-name="T" unicode="T" 
d="M571 689v-94h-212v-595h-115v595h-213v94h540z" />
    <glyph glyph-name="U" unicode="U" 
d="M520 689v-449c0 -83 -18 -145 -55 -188s-91 -65 -163 -65c-70 0 -123 22 -161 67c-37 44 -57 105 -57 184v451h115v-451c0 -47 9 -85 27 -114s43 -43 76 -43c35 0 61 13 78 38s25 65 25 121v449h115z" />
    <glyph glyph-name="V" unicode="V" 
d="M467 689h120l-229 -689h-119l-220 689h121l151 -502l11 -64l12 65z" />
    <glyph glyph-name="W" unicode="W" 
d="M449 689h112l-52 -689h-91l-107 279l-11 54l-11 -55l-107 -278h-94l-49 689h115l19 -404l3 -88l21 87l56 148h92l56 -146l23 -91l4 97z" />
    <glyph glyph-name="X" unicode="X" 
d="M366 363l214 -363h-139l-141 261l-148 -261h-134l222 356l-214 333h130l150 -229l148 229h123z" />
    <glyph glyph-name="Y" unicode="Y" 
d="M467 689h124l-232 -397v-292h-116v292l-232 397h125l169 -293z" />
    <glyph glyph-name="Z" unicode="Z" 
d="M528 689v-63l-324 -532h318v-94h-453v62l323 533h-309v94h445z" />
    <glyph glyph-name="bracketleft" unicode="[" 
d="M465 -38v-94h-230v882h230v-94h-114v-694h114z" />
    <glyph glyph-name="backslash" unicode="\" 
d="M390 -13h90l-290 715h-91z" />
    <glyph glyph-name="bracketright" unicode="]" 
d="M351 750v-880h-235v94h119v692h-119v94h235z" />
    <glyph glyph-name="asciicircum" unicode="^" 
d="M262 750h71l212 -404h-87l-158 312l-164 -313h-84z" />
    <glyph glyph-name="underscore" unicode="_" 
d="M624 -128v-80h-650v80h650z" />
    <glyph glyph-name="quoteleft" unicode="&#x2018;" 
d="M222 506c0 39 13 77 40 113c27 35 63 63 108 83v-68c-37 -21 -55 -41 -55 -58c18 0 34 -8 48 -23c13 -15 20 -33 20 -53c0 -21 -8 -38 -23 -53s-33 -23 -54 -23c-25 0 -45 8 -60 23c-16 15 -24 34 -24 59z" />
    <glyph glyph-name="a" unicode="a" 
d="M518 329v-329h-112v51c-41 -43 -90 -64 -149 -64c-51 0 -94 14 -127 41s-50 65 -50 113c0 50 23 90 68 119s105 47 182 51l74 4v4c0 34 -11 62 -32 83s-47 32 -78 32c-47 0 -98 -14 -151 -43l-40 83c27 15 62 28 104 38s79 15 111 15c64 0 113 -17 148 -51
s52 -83 52 -147zM404 147v85l-58 -3c-99 -5 -148 -34 -148 -88c0 -17 7 -32 22 -44s32 -18 51 -18c45 0 89 23 133 68z" />
    <glyph glyph-name="b" unicode="b" 
d="M550 267c0 -81 -20 -147 -59 -200s-91 -80 -155 -80c-55 0 -102 21 -140 62v-49h-112v750h114v-275c40 35 88 52 144 52c65 0 116 -23 153 -70s55 -111 55 -190zM431 255c0 57 -9 102 -28 133s-47 47 -84 47c-45 0 -85 -22 -121 -67v-199c13 -27 30 -49 51 -65
c21 -17 43 -25 67 -25c35 0 63 17 84 50s31 75 31 126z" />
    <glyph glyph-name="c" unicode="c" 
d="M497 113l18 -92c-57 -23 -114 -34 -170 -34c-75 0 -138 26 -188 78s-75 116 -75 192c0 78 25 143 74 194s112 76 187 76c63 0 119 -11 170 -33l-33 -93c-47 22 -92 33 -136 33c-43 0 -78 -17 -105 -50c-27 -34 -40 -76 -40 -127c0 -48 14 -89 41 -124s62 -53 105 -53
c25 0 48 2 69 7c21 4 49 13 83 26z" />
    <glyph glyph-name="d" unicode="d" 
d="M521 750v-750h-112v49c-38 -41 -85 -62 -140 -62c-66 0 -118 26 -156 77c-39 51 -58 119 -58 203c0 75 19 138 58 187c38 49 88 73 150 73c56 0 104 -17 144 -52v275h114zM407 176v192c-37 45 -77 67 -121 67c-37 0 -65 -16 -84 -47c-20 -32 -30 -76 -30 -133
c0 -50 11 -92 32 -125c21 -34 50 -51 85 -51c47 0 87 32 118 97z" />
    <glyph glyph-name="e" unicode="e" 
d="M524 265v-30h-346v-3c0 -40 14 -75 42 -106s62 -47 103 -47c49 0 103 11 162 34l19 -93c-60 -22 -120 -33 -181 -33c-77 0 -140 25 -189 76c-49 50 -74 114 -74 191c0 79 23 145 69 196s105 77 177 77c37 0 73 -11 108 -34s63 -54 82 -93s28 -84 28 -135zM187 320h215
c-5 35 -16 63 -33 84s-39 31 -64 31c-56 0 -95 -38 -118 -115z" />
    <glyph glyph-name="f" unicode="f" 
d="M537 742l-39 -90c-33 11 -62 16 -89 16c-28 0 -48 -10 -60 -29c-12 -20 -18 -56 -18 -108v-16h183v-92h-183v-423h-114v423h-128v92h128v46c0 65 18 115 54 149s88 51 157 51c25 0 62 -6 109 -19z" />
    <glyph glyph-name="g" unicode="g" 
d="M560 -10c0 -37 -11 -71 -36 -101c-24 -29 -59 -53 -104 -71c-45 -17 -90 -26 -135 -26c-71 0 -127 11 -166 33c-39 23 -59 56 -59 99c0 44 23 81 70 110c-17 6 -30 16 -40 29c-11 13 -16 28 -16 44c0 18 7 36 22 55c14 19 33 35 56 50c-23 15 -41 35 -54 61
s-20 52 -20 79c0 50 20 92 59 125s87 50 145 50c50 0 89 -7 117 -22l152 22v-110l-83 14c11 -27 17 -53 17 -79c0 -49 -19 -91 -58 -125s-88 -51 -145 -51c-24 0 -42 1 -53 2c-11 -3 -20 -7 -28 -13c-9 -6 -13 -12 -13 -18c0 -17 15 -26 44 -25l96 2l95 2
c38 1 70 -13 97 -38c27 -26 40 -59 40 -98zM370 352c0 25 -9 47 -26 65s-38 27 -62 27s-45 -9 -62 -27c-18 -18 -27 -40 -27 -65c0 -26 9 -48 27 -66c17 -18 38 -27 62 -27s45 9 62 27s26 40 26 66zM451 -30c0 15 -4 27 -13 36s-22 13 -37 13l-87 -2l-94 -3
c-29 -18 -44 -43 -44 -75c0 -18 12 -34 35 -47s48 -19 74 -19c43 0 81 9 115 28s51 42 51 69z" />
    <glyph glyph-name="h" unicode="h" 
d="M520 345v-345h-115v322c0 43 -5 72 -15 88s-28 24 -55 24c-43 0 -89 -25 -138 -74v-360h-113v750h114v-286c52 42 105 63 160 63c59 0 100 -14 125 -43s37 -75 37 -139z" />
    <glyph glyph-name="i" unicode="i" 
d="M388 638c0 -18 -6 -33 -19 -46s-29 -19 -48 -19c-18 0 -33 6 -46 19s-20 28 -20 46c0 17 7 32 20 45s28 19 46 19c19 0 35 -6 48 -18c13 -13 19 -28 19 -46zM377 515v-515h-114v423h-132v92h246z" />
    <glyph glyph-name="j" unicode="j" 
d="M405 638c0 -19 -6 -34 -19 -46c-13 -13 -29 -19 -48 -19c-18 0 -33 6 -46 19s-20 28 -20 46c0 17 7 32 20 45s28 19 46 19c19 0 35 -6 48 -18c13 -13 19 -28 19 -46zM394 515v-522c0 -66 -17 -116 -52 -150s-86 -51 -154 -51c-12 0 -28 2 -49 7s-39 10 -54 17l38 89
c32 -14 59 -21 81 -21c28 0 49 10 60 29c12 20 17 57 17 110v400h-150v92h263z" />
    <glyph glyph-name="k" unicode="k" 
d="M418 515h134l-197 -223l201 -292h-139l-187 289zM230 750v-750h-114v750h114z" />
    <glyph glyph-name="l" unicode="l" 
d="M469 92v-92h-246v658h-125v92h239v-658h132z" />
    <glyph glyph-name="m" unicode="m" 
d="M553 365v-365h-105v313c0 54 -2 88 -5 102c-4 14 -13 21 -26 21c-11 0 -22 -7 -34 -21c-13 -14 -23 -30 -30 -47v-368h-103v302c0 63 -2 101 -6 114s-13 20 -26 20c-9 0 -19 -7 -32 -22s-24 -31 -31 -46v-368h-105v515h102v-44c31 37 62 56 94 56c25 0 44 -4 58 -15
c13 -10 25 -29 35 -54c33 46 69 69 106 69c39 0 67 -12 84 -37c16 -25 24 -67 24 -125z" />
    <glyph glyph-name="n" unicode="n" 
d="M520 347v-347h-113v301c0 49 -4 84 -15 104c-10 19 -30 29 -57 29c-43 0 -88 -25 -137 -74v-360h-114v515h112v-53c55 43 109 65 162 65c57 0 99 -14 124 -43s38 -74 38 -137z" />
    <glyph glyph-name="o" unicode="o" 
d="M551 257c0 -76 -24 -140 -71 -192s-106 -78 -177 -78s-131 26 -178 78s-71 116 -71 192c0 79 23 143 70 194c46 51 106 76 179 76s133 -25 179 -76s69 -115 69 -194zM431 257c0 57 -11 101 -32 132c-22 31 -54 46 -96 46s-74 -15 -96 -46s-33 -75 -33 -132
c0 -56 11 -99 34 -130c22 -31 54 -47 95 -47s73 15 95 46s33 74 33 131z" />
    <glyph glyph-name="p" unicode="p" 
d="M550 267c0 -81 -20 -147 -59 -200s-91 -80 -155 -80c-55 0 -101 21 -138 62v-257h-114v723h112v-40c40 35 89 52 146 52c65 0 116 -23 153 -70s55 -111 55 -190zM431 255c0 57 -9 102 -28 133s-47 47 -84 47c-44 0 -84 -22 -120 -67v-192c31 -65 70 -97 117 -97
c35 0 63 17 84 50s31 75 31 126z" />
    <glyph glyph-name="q" unicode="q" 
d="M521 515v-723h-115v247c-40 -35 -88 -52 -143 -52c-62 0 -112 25 -150 74c-39 49 -58 111 -58 186c0 84 19 152 58 203c38 51 90 77 156 77c56 0 103 -21 140 -62v50h112zM407 146v192c-31 65 -71 97 -118 97c-35 0 -62 -17 -83 -50s-31 -75 -31 -126
c0 -58 10 -102 29 -133s46 -47 82 -47c44 0 84 22 121 67z" />
    <glyph glyph-name="r" unicode="r" 
d="M532 502l-47 -106c-45 19 -83 28 -114 28c-21 0 -41 -6 -62 -19s-39 -30 -54 -51v-354h-116v510h116v-48c45 43 91 65 138 65c37 0 83 -8 139 -25z" />
    <glyph glyph-name="s" unicode="s" 
d="M510 152c0 -49 -23 -89 -68 -119c-46 -31 -102 -46 -168 -46c-69 0 -128 11 -178 33l24 92c52 -25 102 -37 151 -37c32 0 60 6 85 19c25 12 37 28 37 47c0 17 -7 31 -21 42c-15 11 -44 23 -88 35l-69 19c-37 10 -67 27 -88 52c-22 25 -33 53 -33 86c0 45 22 81 66 110
c43 28 98 42 164 42c50 0 103 -8 160 -23l-25 -92c-54 18 -99 27 -134 27c-34 0 -62 -5 -83 -15s-32 -24 -32 -41c0 -13 5 -24 15 -33c9 -9 27 -17 52 -24l79 -21c55 -15 94 -34 118 -58s36 -56 36 -95z" />
    <glyph glyph-name="t" unicode="t" 
d="M493 114l21 -81l-70 -25c-39 -14 -73 -20 -102 -20c-104 0 -156 52 -156 155v280h-92v92h92v133h114v-133h173v-92h-173v-267c0 -23 5 -41 16 -55s24 -21 40 -21c22 0 43 3 64 10z" />
    <glyph glyph-name="u" unicode="u" 
d="M521 515v-515h-112v52c-56 -43 -110 -65 -162 -65c-57 0 -99 14 -124 43s-38 74 -38 137v348h114v-302c0 -51 5 -85 15 -104s29 -29 56 -29c41 0 86 25 137 75v360h114z" />
    <glyph glyph-name="v" unicode="v" 
d="M433 515h117l-201 -515h-90l-223 515h121l140 -328l10 -53l9 54z" />
    <glyph glyph-name="w" unicode="w" 
d="M453 515h113l-85 -515h-80l-92 213l-13 49l-15 -50l-92 -212h-84l-67 515h110l32 -277l2 -78l13 76l54 121h100l46 -113l14 -83l3 83z" />
    <glyph glyph-name="x" unicode="x" 
d="M428 515h130l-195 -252l194 -263h-135l-125 177l-131 -177h-130l195 261l-195 254h136l127 -171z" />
    <glyph glyph-name="y" unicode="y" 
d="M432 515h117l-192 -497c-28 -72 -56 -129 -93 -168s-76 -58 -119 -58c-27 0 -63 7 -106 21l39 90c33 -13 57 -19 74 -19c37 0 71 44 100 131l-217 500h120l150 -352z" />
    <glyph glyph-name="z" unicode="z" 
d="M510 92v-92h-431v53l273 370h-266v92h424v-49l-275 -374h275z" />
    <glyph glyph-name="braceleft" unicode="{" 
d="M467 -114v-94h-59c-55 0 -94 14 -117 42c-24 29 -36 78 -36 148v84c0 55 -8 91 -23 110c-15 18 -41 27 -77 27v116c36 0 62 9 77 28c15 18 23 54 23 109v84c0 70 12 119 36 148c23 28 62 42 117 42h59v-94h-35c-23 0 -38 -6 -47 -17c-9 -12 -14 -38 -14 -78v-69
c0 -58 -6 -103 -18 -135c-13 -33 -34 -58 -63 -76c29 -18 51 -43 63 -75c13 -33 18 -78 18 -136v-69c0 -40 5 -66 14 -78c9 -11 24 -17 47 -17h35z" />
    <glyph glyph-name="bar" unicode="|" 
d="M346 750v-958h-90v958h90z" />
    <glyph glyph-name="braceright" unicode="}" 
d="M443 319v-116c-37 0 -63 -9 -78 -28c-16 -19 -24 -56 -24 -109v-84c0 -71 -12 -121 -35 -149c-23 -27 -62 -41 -116 -41h-59v94h35c23 0 39 6 48 17c9 12 13 38 13 78v69c0 59 6 104 19 136c12 32 32 57 61 75c-29 18 -49 43 -61 75c-13 32 -19 77 -19 136v69
c0 40 -4 66 -13 78c-9 11 -25 17 -48 17h-35v94h59c54 0 93 -14 116 -42s35 -77 35 -148v-84c0 -53 8 -89 24 -108c15 -19 41 -29 78 -29z" />
    <glyph glyph-name="asciitilde" unicode="~" 
d="M580 430v-93c-59 -35 -115 -53 -166 -53c-33 0 -77 11 -133 29c-59 18 -97 25 -114 25s-36 -4 -56 -11c-21 -7 -56 -24 -106 -51v91c60 35 116 53 169 53c31 0 75 -9 134 -28c50 -17 87 -25 112 -25c33 0 86 21 160 63z" />
    <glyph glyph-name="exclamdown" unicode="&#xa1;" 
d="M231 -176v147l19 330h86l19 -328v-149h-124zM209 447c0 22 8 41 24 57c16 15 35 23 58 23c22 0 41 -7 57 -23s23 -35 23 -57s-8 -40 -23 -55c-16 -15 -35 -22 -57 -22c-23 0 -43 7 -58 22c-16 15 -24 33 -24 55z" />
    <glyph glyph-name="cent" unicode="&#xa2;" 
d="M297 -101v92c-63 11 -115 42 -155 92c-40 49 -60 107 -60 174c0 69 20 128 60 177c39 49 91 78 155 89v87h71v-84c52 -3 100 -13 145 -32l-31 -97c-36 19 -74 30 -114 35v-350c28 1 71 13 128 36l19 -97c-51 -19 -100 -30 -147 -33v-89h-71zM297 89v336
c-31 -11 -55 -31 -72 -62s-26 -66 -26 -106c0 -37 10 -72 27 -103c18 -32 41 -54 71 -65z" />
    <glyph glyph-name="sterling" unicode="&#xa3;" 
d="M100 82l52 211h-76v80h96l4 17c26 112 63 190 102 239s86 73 142 73c43 0 85 -7 126 -20l-51 -86c-25 8 -49 12 -73 12c-30 0 -57 -17 -80 -50c-23 -34 -47 -92 -67 -173l-3 -12h134v-80h-154l-48 -198c15 1 29 2 44 2c37 0 70 -2 99 -7c33 -5 57 -8 72 -8
c39 0 80 10 121 31v-95c-42 -15 -84 -22 -125 -22c-21 0 -49 2 -84 7c-33 5 -62 7 -86 7c-54 0 -115 -6 -182 -19v85z" />
    <glyph glyph-name="fraction" unicode="&#x2044;" 
d="M409 702h83l-299 -715h-82z" />
    <glyph glyph-name="fraction" unicode="&#x2215;" 
d="M409 702h83l-299 -715h-82z" />
    <glyph glyph-name="yen" unicode="&#xa5;" 
d="M551 265h-192v-59h192v-80h-192v-126h-116v126h-194v80h194v59h-194v80h163l-201 344h125l169 -293l162 293h124l-201 -344h161v-80z" />
    <glyph glyph-name="florin" unicode="&#x192;" 
d="M594 682l-51 -93c-27 9 -51 13 -73 13c-16 0 -29 -6 -39 -17c-11 -11 -21 -35 -32 -70h114v-95h-137l-84 -358c-31 -133 -94 -199 -185 -199c-28 0 -63 6 -106 19l50 92c18 -7 36 -11 54 -11c17 0 31 6 42 18s22 37 31 74l89 365h-84v95h104c32 125 92 187 181 187
c39 0 81 -7 126 -20z" />
    <glyph glyph-name="section" unicode="&#xa7;" 
d="M117 416c-28 27 -42 62 -42 106c0 54 22 98 66 131s102 49 174 49c55 0 120 -10 195 -30l-39 -98c-21 9 -48 17 -79 24c-32 7 -57 10 -76 10c-39 0 -69 -7 -91 -22c-23 -15 -34 -35 -34 -61c0 -16 6 -30 19 -42s37 -26 74 -40l77 -30c61 -24 105 -52 132 -83
c27 -32 40 -70 40 -114c0 -45 -12 -84 -35 -116c23 -25 35 -58 35 -99c0 -65 -24 -117 -71 -154c-48 -37 -111 -55 -190 -55c-43 0 -80 4 -109 11s-59 19 -89 36l38 99c53 -35 105 -52 156 -52c45 0 81 9 109 27s42 43 42 76c0 19 -8 36 -24 51c-17 15 -49 33 -96 52l-80 32
c-96 38 -144 100 -144 183c0 43 14 80 42 109zM360 183l49 -23c7 14 10 29 10 44c0 25 -11 49 -32 71c-21 21 -50 39 -87 53l-88 34c-14 -14 -21 -31 -21 -52c0 -35 32 -68 95 -95z" />
    <glyph glyph-name="currency" unicode="&#xa4;" 
d="M539 175c-19 -18 -36 -37 -55 -56l-68 68c-34 -24 -75 -36 -116 -36c-34 0 -78 9 -115 36c-23 -23 -46 -45 -69 -68c-18 19 -36 38 -54 56c23 21 46 44 69 65c-24 37 -36 77 -36 114s11 78 36 114l-69 66c18 18 36 37 54 56c23 -23 46 -45 69 -68c39 27 81 36 115 36
c37 0 81 -11 116 -36c22 23 45 45 68 68c19 -19 36 -38 55 -56l-69 -66c27 -39 36 -80 36 -114c0 -36 -11 -76 -36 -114c23 -21 46 -44 69 -65zM428 355c0 74 -63 126 -127 126c-73 0 -129 -58 -129 -126c0 -69 58 -128 128 -128c71 0 128 58 128 128z" />
    <glyph glyph-name="quotesingle" unicode="'" 
d="M362 689v-119l-26 -135h-72l-26 135v119h124z" />
    <glyph glyph-name="quotedblleft" unicode="&#x201c;" 
d="M325 518c0 39 13 77 40 113c27 35 63 63 108 83v-68c-37 -21 -55 -41 -55 -58c18 0 34 -8 48 -23c13 -15 20 -33 20 -53c0 -21 -8 -38 -23 -53s-33 -23 -54 -23c-25 0 -45 8 -60 23c-16 15 -24 34 -24 59zM119 518c0 39 13 77 40 113c27 35 63 63 108 83v-68
c-37 -21 -55 -41 -55 -58c18 0 34 -8 48 -23c13 -15 20 -33 20 -53c0 -21 -8 -38 -23 -53s-33 -23 -54 -23c-25 0 -45 8 -60 23c-16 15 -24 34 -24 59z" />
    <glyph glyph-name="guillemotleft" unicode="&#xab;" 
d="M307 26l-242 219v59l242 217v-90l-140 -159l140 -154v-92zM538 26l-242 219v59l242 217v-90l-140 -159l140 -154v-92z" />
    <glyph glyph-name="guilsinglleft" unicode="&#x2039;" 
d="M403 26l-242 219v59l242 217v-90l-140 -159l140 -154v-92z" />
    <glyph glyph-name="guilsinglright" unicode="&#x203a;" 
d="M439 304v-59l-242 -219v92l140 154l-140 159v90z" />
    <glyph glyph-name="endash" unicode="&#x2013;" 
d="M515 362v-84h-440v84h440z" />
    <glyph glyph-name="dagger" unicode="&#x2020;" 
d="M550 494v-122h-87l-107 14v-557h-113v557l-108 -14h-86v122h86l105 -14l-3 98v111h125v-111l-3 -98l104 14h87z" />
    <glyph glyph-name="daggerdbl" unicode="&#x2021;" 
d="M550 146v-122h-87l-104 14l3 -97v-112h-125v112l3 97l-105 -14h-86v122h86l110 -14l15 126l-15 128l-119 -14h-77v122h77l114 -14l-3 98v111h125v-111l-3 -98l104 14h87v-122h-87l-109 14l-16 -128l16 -126l109 14h87z" />
    <glyph glyph-name="periodcentered" unicode="&#xb7;" 
d="M377 451c0 -21 -8 -40 -23 -55c-16 -15 -35 -23 -58 -23c-22 0 -41 8 -56 23c-16 15 -24 33 -24 55s8 40 23 55c15 14 34 21 57 21s42 -7 58 -22c15 -15 23 -33 23 -54z" />
    <glyph glyph-name="periodcentered" unicode="&#x2219;" 
d="M377 451c0 -21 -8 -40 -23 -55c-16 -15 -35 -23 -58 -23c-22 0 -41 8 -56 23c-16 15 -24 33 -24 55s8 40 23 55c15 14 34 21 57 21s42 -7 58 -22c15 -15 23 -33 23 -54z" />
    <glyph glyph-name="paragraph" unicode="&#xb6;" 
d="M550 689v-82h-70v-814h-90v814h-83v-814h-89v461c-60 11 -110 37 -149 77c-40 40 -60 88 -60 143c0 66 24 118 72 157s113 58 194 58h275z" />
    <glyph glyph-name="bullet" unicode="&#x2022;" 
d="M443 341c0 -35 -14 -66 -43 -93s-63 -41 -101 -41c-39 0 -72 14 -101 41s-43 58 -43 93s14 67 43 94s62 40 101 40c38 0 72 -13 101 -40s43 -59 43 -94z" />
    <glyph glyph-name="quotesinglbase" unicode="&#x201a;" 
d="M378 59c0 -39 -13 -77 -40 -113c-27 -35 -63 -63 -108 -83v68c37 21 55 41 55 58c-18 0 -34 8 -47 23c-14 15 -21 33 -21 53c0 21 8 39 23 54s33 22 54 22c25 0 45 -7 61 -22c15 -15 23 -35 23 -60z" />
    <glyph glyph-name="quotedblbase" unicode="&#x201e;" 
d="M275 59c0 -39 -13 -77 -40 -113c-27 -35 -63 -63 -108 -83v68c37 21 55 41 55 58c-18 0 -34 8 -47 23c-14 15 -21 33 -21 53c0 21 8 39 23 54s33 22 54 22c25 0 45 -7 61 -22c15 -15 23 -35 23 -60zM481 59c0 -39 -13 -77 -40 -113c-27 -35 -63 -63 -108 -83v68
c37 21 55 41 55 58c-18 0 -34 8 -47 23c-14 15 -21 33 -21 53c0 21 8 39 23 54s33 22 54 22c25 0 45 -7 61 -22c15 -15 23 -35 23 -60z" />
    <glyph glyph-name="quotedblright" unicode="&#x201d;" 
d="M275 620c0 -39 -13 -77 -40 -112c-27 -36 -63 -64 -108 -84v68c37 21 55 41 55 58c-18 0 -34 8 -47 23c-14 15 -21 33 -21 53c0 21 8 39 23 54s33 22 54 22c25 0 45 -7 61 -22c15 -15 23 -35 23 -60zM481 620c0 -39 -13 -77 -40 -112c-27 -36 -63 -64 -108 -84v68
c37 21 55 41 55 58c-18 0 -34 8 -47 23c-14 15 -21 33 -21 53c0 21 8 39 23 54s33 22 54 22c25 0 45 -7 61 -22c15 -15 23 -35 23 -60z" />
    <glyph glyph-name="guillemotright" unicode="&#xbb;" 
d="M538 304v-59l-242 -219v92l140 154l-140 159v90zM307 304v-59l-242 -219v92l140 154l-140 159v90z" />
    <glyph glyph-name="ellipsis" unicode="&#x2026;" 
d="M164 49c0 -17 -6 -32 -19 -44c-13 -13 -28 -19 -46 -19s-33 6 -45 18c-13 12 -19 27 -19 45c0 17 6 32 19 44c12 11 27 17 45 17s33 -6 46 -18s19 -26 19 -43zM565 50c0 -17 -6 -32 -19 -44c-13 -13 -28 -19 -46 -19s-33 6 -45 18c-13 12 -19 27 -19 45c0 17 6 32 19 44
c12 11 27 17 45 17s33 -6 46 -18s19 -26 19 -43zM366 50c0 -17 -6 -32 -19 -44c-13 -13 -28 -19 -46 -19s-33 6 -45 18c-13 12 -19 27 -19 45c0 17 6 32 19 44c12 11 27 17 45 17s33 -6 46 -18s19 -26 19 -43z" />
    <glyph glyph-name="perthousand" unicode="&#x2030;" 
d="M283 555c0 -46 -12 -82 -36 -108c-24 -27 -58 -40 -102 -40c-43 0 -77 13 -101 40c-25 27 -37 63 -37 108s12 81 37 108c24 26 58 39 101 39c44 0 78 -13 102 -38c24 -26 36 -62 36 -109zM557 641v-96l-556 -399v93zM184 555c0 47 -13 71 -39 71s-39 -24 -39 -71
c0 -48 13 -72 39 -72s39 24 39 72zM319 135c0 47 -13 71 -39 71s-39 -24 -39 -71c0 -48 13 -72 39 -72s39 24 39 72zM455 63c26 0 39 24 39 72c0 47 -13 71 -39 71c-27 0 -40 -24 -40 -71c0 -48 13 -72 40 -72zM368 18c-27 -21 -56 -31 -88 -31c-44 0 -78 13 -102 40
c-24 26 -36 62 -36 108c0 45 12 81 37 108c24 26 58 39 101 39c32 0 61 -10 88 -31c29 21 58 31 87 31c44 0 78 -13 102 -38c24 -26 36 -62 36 -109s-12 -83 -36 -109s-58 -39 -102 -39c-29 0 -58 10 -87 31z" />
    <glyph glyph-name="questiondown" unicode="&#xbf;" 
d="M91 -16c0 60 39 122 119 183l39 30c22 17 32 43 32 75v45h107v-46c0 -60 -20 -106 -61 -139l-51 -41c-43 -35 -68 -67 -68 -104c0 -26 9 -46 27 -60c17 -13 42 -20 74 -20c34 0 69 8 105 24l33 15l38 -93l-37 -15c-48 -19 -96 -28 -144 -28c-67 0 -119 15 -156 45
c-38 30 -57 73 -57 129zM245 445c0 23 8 42 24 57c15 15 34 23 57 23c22 0 41 -8 57 -23c15 -15 23 -34 23 -57c0 -21 -8 -39 -23 -54s-34 -22 -57 -22s-42 7 -57 22c-16 15 -24 33 -24 54z" />
    <glyph glyph-name="grave" unicode="`" 
d="M314 731l85 -147h-96l-142 147h153z" />
    <glyph glyph-name="acute" unicode="&#xb4;" 
d="M297 731h153l-142 -147h-96z" />
    <glyph glyph-name="circumflex" unicode="&#x2c6;" 
d="M363 735l119 -151h-99l-79 62l-75 -62h-96l115 151h115z" />
    <glyph glyph-name="tilde" unicode="&#x2dc;" 
d="M403 702h76c0 -37 -9 -65 -27 -86s-42 -32 -72 -32c-19 0 -44 5 -75 14c-27 8 -49 12 -64 12c-8 0 -13 -9 -16 -26h-80c7 77 40 116 99 116c19 0 48 -5 89 -15c27 -7 44 -11 52 -11c5 0 9 2 12 6c2 4 4 11 6 22z" />
    <glyph glyph-name="macron" unicode="&#xaf;" 
d="M486 690v-73h-371v73h371z" />
    <glyph glyph-name="macron" unicode="&#x2c9;" 
d="M486 690v-73h-371v73h371z" />
    <glyph glyph-name="breve" unicode="&#x2d8;" 
d="M356 713h107c-20 -86 -75 -129 -164 -129c-91 0 -147 43 -167 129h106c5 -17 13 -29 22 -36s23 -11 40 -11c15 0 27 4 36 11c8 7 15 19 20 36z" />
    <glyph glyph-name="dotaccent" unicode="&#x2d9;" 
d="M368 649c0 -18 -6 -33 -19 -46s-29 -19 -48 -19c-18 0 -33 6 -46 19s-20 28 -20 46c0 17 7 32 20 45s28 19 46 19c19 0 35 -6 48 -18c13 -13 19 -28 19 -46z" />
    <glyph glyph-name="dieresis" unicode="&#xa8;" 
d="M459 641c0 -14 -7 -27 -20 -39s-29 -18 -46 -18s-33 6 -46 18c-14 12 -21 25 -21 39s7 27 21 39c13 11 29 17 46 17s33 -6 46 -17c13 -12 20 -25 20 -39zM273 641c0 -14 -7 -27 -20 -39s-29 -18 -46 -18s-33 6 -46 18c-14 12 -21 25 -21 39s7 27 21 39c13 11 29 17 46 17
s33 -6 46 -17c13 -12 20 -25 20 -39z" />
    <glyph glyph-name="ring" unicode="&#x2da;" 
d="M404 688c0 -29 -10 -53 -30 -73c-21 -21 -45 -31 -74 -31s-53 10 -73 31c-21 21 -31 45 -31 73s10 52 31 73c20 21 44 31 73 31s53 -9 74 -30s30 -45 30 -74zM345 689c0 13 -4 23 -13 32s-19 13 -32 13s-23 -4 -32 -13s-13 -19 -13 -32s4 -23 13 -32s19 -13 32 -13
s23 4 32 13s13 19 13 32z" />
    <glyph glyph-name="cedilla" unicode="&#xb8;" 
d="M394 -80c0 -31 -15 -53 -44 -67c-30 -14 -80 -21 -151 -21v66c66 0 99 8 99 24c0 6 -8 11 -23 15c-15 5 -33 7 -53 7l34 64h89l-11 -26c18 -3 33 -11 44 -23c11 -11 16 -24 16 -39z" />
    <glyph glyph-name="hungarumlaut" unicode="&#x2dd;" 
d="M352 750h153l-142 -147h-96zM192 750h153l-142 -147h-96z" />
    <glyph glyph-name="ogonek" unicode="&#x2db;" 
d="M415 -84v-77c-22 -8 -38 -13 -49 -15s-26 -3 -44 -3c-34 0 -61 9 -82 26s-31 40 -31 68c0 34 18 65 55 93h101c-17 -16 -29 -30 -36 -42c-8 -11 -12 -24 -12 -37c0 -6 3 -12 10 -18c6 -5 13 -8 21 -8c18 0 40 4 67 13z" />
    <glyph glyph-name="caron" unicode="&#x2c7;" 
d="M379 750h99l-119 -151h-115l-115 151h96l75 -62z" />
    <glyph glyph-name="emdash" unicode="&#x2014;" 
d="M624 362v-84h-649v84h649z" />
    <glyph glyph-name="AE" unicode="&#xc6;" 
d="M207 689h351v-99h-172v-172h161v-94h-161v-225h175v-99h-290v207h-108l-58 -207h-119zM190 301h81v265h-5z" />
    <glyph glyph-name="ordfeminine" unicode="&#xaa;" 
d="M440 575v-196h-105v20c-27 -18 -53 -27 -80 -27c-32 0 -59 8 -80 25c-21 16 -32 38 -32 67c0 33 16 59 48 78c31 18 75 27 130 27h12c0 39 -15 59 -45 59c-35 0 -67 -9 -98 -26l-22 66c18 10 40 18 65 25c25 6 48 9 69 9c41 0 74 -11 100 -34c25 -23 38 -54 38 -93z
M334 471v35h-14c-45 0 -68 -13 -68 -39c0 -5 3 -10 8 -13s10 -5 17 -5c24 0 43 7 57 22z" />
    <glyph glyph-name="Lslash" unicode="&#x141;" 
d="M367 486v-86l-132 -87v-219h261v-94h-376v237l-85 -56v85l85 56v367h115v-291z" />
    <glyph glyph-name="Oslash" unicode="&#xd8;" 
d="M538 344c0 -111 -21 -199 -63 -263s-101 -96 -176 -96c-39 0 -73 9 -103 26c-1 0 -11 -23 -31 -68h-109l64 142c-40 63 -60 149 -60 259c0 115 21 204 62 267c41 62 100 93 177 93c36 0 66 -6 90 -18l28 64h110l-58 -129c46 -61 69 -154 69 -277zM186 234l161 360
c-15 7 -31 10 -48 10c-43 0 -73 -18 -91 -55c-19 -37 -28 -105 -28 -205c0 -40 2 -77 6 -110zM418 344c0 61 -3 108 -10 141l-171 -380c16 -13 37 -20 62 -20c43 0 73 18 92 55c18 37 27 105 27 204z" />
    <glyph glyph-name="OE" unicode="&#x152;" 
d="M561 99v-99h-270c-73 0 -130 31 -170 92c-41 61 -61 145 -61 252c0 112 20 198 61 257s100 88 178 88h259v-99h-172v-172h161v-99h-161v-220h175zM271 101v486c-33 -5 -56 -24 -70 -57s-21 -95 -21 -186c0 -81 7 -141 22 -178s38 -59 69 -65z" />
    <glyph glyph-name="ordmasculine" unicode="&#xba;" 
d="M467 537c0 -45 -16 -83 -48 -116c-33 -33 -72 -49 -117 -49s-84 16 -116 49c-33 33 -49 71 -49 116c0 47 16 86 48 118c31 31 70 47 117 47s86 -15 118 -47s47 -71 47 -118zM357 537c0 25 -5 44 -14 59c-10 15 -24 22 -41 22c-18 0 -32 -7 -41 -21
c-10 -15 -15 -35 -15 -60c0 -26 5 -47 15 -62c9 -15 23 -23 41 -23c17 0 31 8 41 24c9 15 14 36 14 61z" />
    <glyph glyph-name="ae" unicode="&#xe6;" 
d="M598 281v-46h-238c0 -46 8 -83 24 -111c17 -29 40 -43 69 -43c24 0 45 2 63 6c17 3 38 10 62 21l18 -88c-40 -22 -88 -33 -143 -33c-65 0 -115 19 -152 57c-48 -38 -98 -57 -150 -57c-41 0 -75 14 -104 43s-44 64 -44 105c0 50 17 90 51 120c33 30 82 50 146 56l42 4
c0 43 -6 73 -17 91s-29 27 -53 27c-20 0 -37 -2 -52 -7s-32 -12 -51 -23l-40 76c57 32 112 48 167 48s96 -14 122 -42c30 28 67 42 110 42c31 0 60 -10 87 -31s48 -50 62 -86c15 -37 21 -80 21 -129zM360 320h113c-3 77 -18 115 -45 115c-39 0 -61 -38 -68 -115zM260 116
c-11 34 -18 71 -20 112l-24 -3c-31 -4 -54 -12 -70 -27c-17 -15 -25 -34 -25 -57c0 -17 5 -32 15 -43c10 -12 23 -18 38 -18c24 0 53 12 86 36z" />
    <glyph glyph-name="dotlessi" unicode="&#x131;" 
d="M377 515v-515h-114v423h-132v92h246z" />
    <glyph glyph-name="lslash" unicode="&#x142;" 
d="M422 515v-84l-85 -59v-280h132v-92h-246v293l-83 -57v85l83 57v280h-125v92h239v-294z" />
    <glyph glyph-name="oslash" unicode="&#xf8;" 
d="M401 385l-123 -303c11 -1 19 -2 25 -2c41 0 73 15 95 46s33 74 33 131c0 55 -10 97 -30 128zM206 128l124 305c-11 1 -20 2 -27 2c-42 0 -74 -15 -96 -46s-33 -75 -33 -132c0 -55 11 -98 32 -129zM111 -107l55 136c-35 25 -62 57 -82 98c-19 40 -30 83 -30 130
c0 79 23 143 70 194c46 51 106 76 179 76c23 0 43 -2 62 -7l36 88h91l-50 -122c35 -24 62 -56 81 -96s28 -84 28 -133c0 -76 -24 -140 -71 -192s-106 -78 -177 -78c-15 0 -36 2 -61 7l-41 -101h-90z" />
    <glyph glyph-name="oe" unicode="&#x153;" 
d="M598 281v-43h-238v-8c0 -46 8 -82 25 -109c16 -27 39 -40 68 -40c40 0 82 9 125 27l18 -88c-27 -13 -50 -22 -71 -27c-21 -4 -45 -6 -72 -6c-46 0 -85 11 -118 34c-33 -23 -69 -34 -110 -34c-63 0 -116 26 -157 77s-62 114 -62 190c0 80 20 146 61 197
c40 51 93 76 158 76c42 0 78 -9 108 -28c27 19 58 28 95 28c31 0 61 -10 88 -31s47 -49 61 -86s21 -80 21 -129zM360 320h113c-3 77 -18 116 -45 116c-39 0 -61 -39 -68 -116zM274 98c-21 46 -32 106 -32 181c0 43 10 88 29 135c-14 9 -29 14 -46 14c-66 0 -99 -58 -99 -174
c0 -112 33 -168 99 -168c19 0 36 4 49 12z" />
    <glyph glyph-name="germandbls" unicode="&#xdf;" 
d="M575 155c0 -51 -18 -91 -54 -122s-83 -46 -142 -46c-55 0 -108 12 -158 37l24 90c53 -25 96 -38 131 -38c23 0 43 7 60 20c16 13 24 30 24 49c0 18 -4 32 -11 43c-8 10 -28 21 -59 32l-51 19c-80 30 -120 77 -120 140c0 19 5 37 16 53c10 15 31 34 64 55
c29 19 49 36 58 49s13 27 13 42c0 30 -8 53 -25 69s-41 24 -73 24c-67 0 -101 -47 -101 -140v-531h-115v560c0 65 19 114 57 149s92 52 162 52c37 0 72 -7 106 -22s60 -36 78 -63c17 -27 26 -58 26 -94c0 -26 -6 -49 -18 -68c-12 -20 -36 -42 -71 -67
c-25 -17 -40 -30 -47 -39s-11 -20 -11 -31c0 -16 17 -28 48 -41l63 -26c44 -18 76 -39 96 -64s30 -56 30 -91z" />
    <glyph glyph-name="onesuperior" unicode="&#xb9;" 
d="M267 387v224l-52 -30l-25 74l78 41h94v-309h48v-77h-199v77h56z" />
    <glyph glyph-name="logicalnot" unicode="&#xac;" 
d="M551 483v-240h-90v160h-412v80h502z" />
    <glyph glyph-name="mu" unicode="&#xb5;" 
d="M202 -7v-201h-117v723h114v-302c0 -51 5 -85 15 -104s29 -29 56 -29c41 0 86 25 137 75v360h114v-515h-112v52c-56 -43 -110 -65 -162 -65c-20 0 -35 2 -45 6z" />
    <glyph glyph-name="mu" unicode="&#x3bc;" 
d="M202 -7v-201h-117v723h114v-302c0 -51 5 -85 15 -104s29 -29 56 -29c41 0 86 25 137 75v360h114v-515h-112v52c-56 -43 -110 -65 -162 -65c-20 0 -35 2 -45 6z" />
    <glyph glyph-name="trademark" unicode="&#x2122;" 
d="M562 689v-363h-74v225l-45 -108h-54l-45 108v-225h-69v363h84l58 -150l61 150h84zM251 689v-64h-82v-299h-76v299h-82v64h240z" />
    <glyph glyph-name="Eth" unicode="&#xd0;" 
d="M199 393h85v-80h-85v-219h58c53 0 93 21 121 64s42 105 42 186s-14 144 -42 187s-68 64 -121 64h-58v-202zM84 313h-68v80h68v296h173c86 0 155 -31 206 -94s76 -147 76 -251c0 -100 -26 -182 -78 -247s-120 -97 -204 -97h-173v313z" />
    <glyph glyph-name="onehalf" unicode="&#xbd;" 
d="M81 387v224l-52 -30l-25 74l78 41h94v-309h48v-77h-199v77h56zM111 -13l298 715h83l-299 -715h-82zM590 0h-247v24c0 27 5 49 16 68s31 39 61 61c31 22 51 41 61 56s16 33 16 51c0 30 -19 44 -58 44c-9 0 -20 -2 -34 -5s-26 -7 -34 -11l-23 67c13 6 29 12 48 17
s35 7 49 7c47 0 84 -11 109 -31s38 -49 38 -87c0 -49 -34 -98 -101 -146c-23 -16 -35 -30 -37 -40h136v-75z" />
    <glyph glyph-name="plusminus" unicode="&#xb1;" 
d="M551 80v-80h-502v80h502zM551 393v-80h-205v-192h-90v192h-207v80h207v192h90v-192h205z" />
    <glyph glyph-name="Thorn" unicode="&#xde;" 
d="M531 357c0 -39 -12 -74 -37 -106s-59 -58 -104 -77s-89 -29 -134 -29h-41v-145h-115v689h115v-136h50c78 0 143 -18 192 -53s74 -83 74 -143zM409 356c0 30 -14 55 -42 74s-62 29 -102 29h-50v-220h46c38 0 73 11 103 33s45 51 45 84z" />
    <glyph glyph-name="onequarter" unicode="&#xbc;" 
d="M81 387v224l-52 -30l-25 74l78 41h94v-309h48v-77h-199v77h56zM111 -13l298 715h83l-299 -715h-82zM614 74h-42v-74h-97v74h-181v63l179 236h97v-222h44v-77zM475 151v122l-91 -122h91z" />
    <glyph glyph-name="divide" unicode="&#xf7;" 
d="M375 528c0 -19 -7 -36 -22 -50s-32 -21 -53 -21s-38 8 -52 21c-15 14 -22 30 -22 50s7 37 21 50s32 19 53 19s39 -6 54 -19c14 -13 21 -30 21 -50zM551 393v-80h-502v80h502zM375 180c0 -19 -7 -36 -22 -50s-32 -21 -53 -21s-38 8 -52 21c-15 14 -22 30 -22 50
s7 37 21 50s32 19 53 19s39 -6 54 -19c14 -13 21 -30 21 -50z" />
    <glyph glyph-name="brokenbar" unicode="&#xa6;" 
d="M256 379v371h90v-371h-90zM346 167v-375h-90v375h90z" />
    <glyph glyph-name="degree" unicode="&#xb0;" 
d="M454 609c0 -38 -15 -71 -46 -98c-31 -28 -67 -42 -109 -42c-43 0 -79 15 -109 42c-31 28 -46 60 -46 98s15 71 46 99c30 27 66 41 109 41c42 0 78 -14 109 -41c31 -28 46 -61 46 -99zM367 609c0 15 -7 30 -21 44c-14 13 -30 20 -47 20s-33 -7 -46 -20
c-14 -14 -21 -29 -21 -44c0 -16 7 -31 21 -44c14 -14 29 -21 46 -21s32 7 47 21c14 13 21 28 21 44z" />
    <glyph glyph-name="thorn" unicode="&#xfe;" 
d="M550 267c0 -80 -20 -147 -59 -200s-91 -80 -155 -80c-54 0 -101 21 -138 62v-257h-114v958h115v-275c40 35 88 52 143 52c65 0 115 -24 152 -71s56 -110 56 -189zM431 255c0 57 -10 102 -29 133s-47 47 -83 47c-44 0 -84 -22 -120 -67v-192c31 -64 70 -97 117 -97
c35 0 63 17 84 50s31 76 31 126z" />
    <glyph glyph-name="threequarters" unicode="&#xbe;" 
d="M492 702l-299 -715h-82l298 715h83zM614 74h-42v-74h-97v74h-181v63l179 236h97v-222h44v-77zM273 445c0 -41 -17 -74 -50 -97s-76 -35 -128 -35c-40 0 -76 10 -109 30l25 72c26 -19 54 -28 86 -28c24 0 43 5 57 15s22 23 22 40s-7 30 -21 38s-36 12 -67 12h-15l-7 65h19
c55 0 83 13 83 40c0 20 -20 30 -60 30c-24 0 -54 -8 -88 -25l-15 75c39 17 74 25 104 25c51 0 89 -8 116 -26s40 -43 40 -77c0 -17 -7 -32 -21 -46s-30 -23 -48 -26c24 -5 42 -15 56 -29s21 -32 21 -53zM475 151v122l-91 -122h91z" />
    <glyph glyph-name="twosuperior" unicode="&#xb2;" 
d="M412 323h-247v24c0 27 5 49 16 68s31 39 61 61s51 41 61 56s16 32 16 51c0 29 -20 44 -58 44c-9 0 -21 -2 -35 -5s-25 -7 -33 -11l-23 67c34 16 66 24 97 24c47 0 83 -10 109 -30s38 -50 38 -88c0 -25 -8 -49 -23 -72s-41 -47 -78 -74c-23 -17 -35 -30 -37 -40h136v-75z
" />
    <glyph glyph-name="registered" unicode="&#xae;" 
d="M536 283c0 68 -22 125 -67 170s-102 68 -169 68c-68 0 -124 -23 -169 -68s-67 -102 -67 -170c0 -69 23 -126 68 -172s101 -69 168 -69s124 23 169 69s67 103 67 172zM595 283c0 -82 -29 -152 -86 -209c-58 -58 -128 -87 -209 -87c-82 0 -152 29 -209 87
c-57 57 -86 127 -86 209c0 81 29 151 86 208s127 86 209 86c81 0 151 -29 209 -86c57 -57 86 -127 86 -208zM329 258l106 -143h-71l-93 131h-14v-131h-62v319h87c34 0 63 -8 86 -23c23 -16 34 -37 34 -64c0 -21 -7 -40 -21 -56c-15 -16 -32 -27 -52 -33zM337 343
c0 29 -19 44 -57 44h-23v-95h20c40 0 60 17 60 51z" />
    <glyph glyph-name="minus" unicode="&#x2212;" 
d="M551 393v-80h-502v80h502z" />
    <glyph glyph-name="eth" unicode="&#xf0;" 
d="M431 257c0 58 -11 101 -33 132s-53 46 -95 46s-74 -15 -96 -46s-33 -75 -33 -132c0 -56 11 -100 33 -131s54 -46 96 -46c41 0 73 15 95 46s33 75 33 131zM332 525c-23 28 -49 55 -76 80l-87 -53l-43 41l88 52l-71 62l62 40c25 -18 51 -39 78 -62l79 48l44 -42l-81 -47
c83 -77 141 -146 175 -206s51 -120 51 -181c0 -76 -24 -140 -71 -192s-106 -78 -177 -78c-72 0 -131 26 -178 78s-71 116 -71 192c0 79 24 143 70 194s106 76 179 76c12 0 22 -1 29 -2z" />
    <glyph glyph-name="multiply" unicode="&#xd7;" 
d="M151 559l148 -149l149 149l57 -57l-149 -149l149 -149l-56 -57l-151 151l-149 -150l-55 56l148 150l-148 148z" />
    <glyph glyph-name="threesuperior" unicode="&#xb3;" 
d="M425 445c0 -41 -17 -74 -50 -97s-76 -35 -128 -35c-40 0 -76 10 -109 30l25 72c26 -19 55 -28 86 -28c24 0 44 5 58 15s21 23 21 40s-6 30 -20 38s-37 12 -68 12h-15l-7 65h19c55 0 83 13 83 40c0 20 -20 30 -60 30c-24 0 -54 -8 -88 -25l-15 75c39 17 73 25 104 25
c50 0 89 -8 116 -26s40 -44 40 -77c0 -17 -7 -32 -21 -46s-30 -23 -48 -26c23 -5 42 -15 56 -29s21 -32 21 -53z" />
    <glyph glyph-name="copyright" unicode="&#xa9;" 
d="M385 409l-16 -45c-18 15 -39 23 -62 23c-39 0 -59 -37 -59 -111c0 -34 5 -61 16 -81s25 -30 43 -30c25 0 45 4 62 13l11 -45c-21 -11 -46 -17 -73 -17c-37 0 -66 15 -89 45s-35 68 -35 115c0 46 12 84 35 114c23 29 52 44 89 44c32 0 58 -8 78 -25zM536 283
c0 68 -22 125 -67 170s-102 68 -169 68c-68 0 -124 -23 -169 -68s-67 -102 -67 -170c0 -69 23 -126 68 -172s101 -69 168 -69s124 23 169 69s67 103 67 172zM595 283c0 -82 -29 -152 -86 -209c-58 -58 -128 -87 -209 -87c-82 0 -152 29 -209 87c-57 57 -86 127 -86 209
c0 81 29 151 86 208s127 86 209 86c81 0 151 -29 209 -86c57 -57 86 -127 86 -208z" />
    <glyph glyph-name="Aacute" unicode="&#xc1;" 
d="M404 207h-205l-58 -207h-119l221 689h119l217 -689h-116zM226 301h151l-75 265zM296 911h153l-142 -147h-96z" />
    <glyph glyph-name="Acircumflex" unicode="&#xc2;" 
d="M404 207h-205l-58 -207h-119l221 689h119l217 -689h-116zM226 301h151l-75 265zM363 915l119 -151h-99l-79 62l-75 -62h-96l115 151h115z" />
    <glyph glyph-name="Adieresis" unicode="&#xc4;" 
d="M404 207h-205l-58 -207h-119l221 689h119l217 -689h-116zM226 301h151l-75 265zM459 813c0 -14 -7 -27 -20 -39s-29 -18 -46 -18s-33 6 -46 18c-14 12 -21 25 -21 39s7 27 21 39c13 11 29 17 46 17s33 -6 46 -17c13 -12 20 -25 20 -39zM273 813c0 -14 -7 -27 -20 -39
s-29 -18 -46 -18s-33 6 -46 18c-14 12 -21 25 -21 39s7 27 21 39c13 11 29 17 46 17s33 -6 46 -17c13 -12 20 -25 20 -39z" />
    <glyph glyph-name="Agrave" unicode="&#xc0;" 
d="M404 207h-205l-58 -207h-119l221 689h119l217 -689h-116zM226 301h151l-75 265zM315 911l85 -147h-96l-142 147h153z" />
    <glyph glyph-name="Aring" unicode="&#xc5;" 
d="M579 0h-116l-59 207h-205l-58 -207h-119l212 656c-20 20 -38 48 -38 77c0 28 10 52 31 73c20 21 44 31 73 31s53 -9 74 -30s30 -45 30 -74s-11 -54 -31 -74zM226 301h151l-75 265zM345 734c0 12 -4 23 -13 32s-19 13 -32 13s-23 -4 -32 -13s-13 -20 -13 -32
c0 -13 4 -23 13 -32s19 -13 32 -13s23 4 32 13s13 19 13 32z" />
    <glyph glyph-name="Atilde" unicode="&#xc3;" 
d="M404 207h-205l-58 -207h-119l221 689h119l217 -689h-116zM226 301h151l-75 265zM403 874h76c0 -37 -9 -65 -27 -86s-42 -32 -72 -32c-19 0 -44 5 -75 14c-27 8 -49 12 -64 12c-8 0 -13 -9 -16 -26h-80c7 77 40 116 99 116c19 0 48 -5 89 -16c27 -7 44 -10 52 -10
c5 0 9 2 12 6c2 3 4 11 6 22z" />
    <glyph glyph-name="Ccedilla" unicode="&#xc7;" 
d="M140 78c-43 60 -66 149 -66 266c0 115 22 203 67 265s109 93 193 93c41 0 76 -4 107 -15c30 -10 62 -28 95 -52l-58 -83c-51 37 -99 56 -144 56c-47 0 -82 -21 -105 -64s-35 -110 -35 -200c0 -175 47 -263 140 -263c19 0 43 4 72 11c28 7 53 15 76 26l39 -84
c-57 -31 -88 -37 -142 -46l-11 -19c18 -3 33 -11 44 -23c11 -11 16 -24 16 -39c0 -31 -15 -53 -44 -67c-30 -14 -80 -21 -151 -21v66c66 0 99 8 99 24c0 6 -8 10 -23 15c-15 4 -33 7 -53 7l31 61c-39 1 -103 25 -147 86z" />
    <glyph glyph-name="Eacute" unicode="&#xc9;" 
d="M491 99v-99h-400v689h397v-99h-282v-172h271v-94h-271v-225h285zM298 911h154l-142 -147h-97z" />
    <glyph glyph-name="Ecircumflex" unicode="&#xca;" 
d="M491 99v-99h-400v689h397v-99h-282v-172h271v-94h-271v-225h285zM365 915l119 -151h-99l-79 62l-75 -62h-96l115 151h115z" />
    <glyph glyph-name="Edieresis" unicode="&#xcb;" 
d="M491 99v-99h-400v689h397v-99h-282v-172h271v-94h-271v-225h285zM463 813c0 -14 -7 -27 -20 -39s-29 -18 -46 -18s-33 6 -46 18c-14 12 -21 25 -21 39s7 27 21 39c13 11 29 17 46 17s33 -6 46 -17c13 -12 20 -25 20 -39zM277 813c0 -14 -7 -27 -20 -39s-29 -18 -46 -18
s-33 6 -46 18c-14 12 -21 25 -21 39s7 27 21 39c13 11 29 17 46 17s33 -6 46 -17c13 -12 20 -25 20 -39z" />
    <glyph glyph-name="Egrave" unicode="&#xc8;" 
d="M491 99v-99h-400v689h397v-99h-282v-172h271v-94h-271v-225h285zM315 911l85 -147h-95l-142 147h152z" />
    <glyph glyph-name="Iacute" unicode="&#xcd;" 
d="M482 94v-94h-349v94h119v501h-119v94h349v-94h-114v-501h114zM288 911h153l-142 -147h-96z" />
    <glyph glyph-name="Icircumflex" unicode="&#xce;" 
d="M482 94v-94h-349v94h119v501h-119v94h349v-94h-114v-501h114zM363 915l119 -151h-99l-79 62l-75 -62h-96l115 151h115z" />
    <glyph glyph-name="Idieresis" unicode="&#xcf;" 
d="M482 94v-94h-349v94h119v501h-119v94h349v-94h-114v-501h114zM459 813c0 -14 -7 -27 -20 -39s-29 -18 -46 -18s-33 6 -46 18c-14 12 -21 25 -21 39s7 27 21 39c13 11 29 17 46 17s33 -6 46 -17c13 -12 20 -25 20 -39zM273 813c0 -14 -7 -27 -20 -39s-29 -18 -46 -18
s-33 6 -46 18c-14 12 -21 25 -21 39s7 27 21 39c13 11 29 17 46 17s33 -6 46 -17c13 -12 20 -25 20 -39z" />
    <glyph glyph-name="Igrave" unicode="&#xcc;" 
d="M482 94v-94h-349v94h119v501h-119v94h349v-94h-114v-501h114zM308 911l85 -147h-96l-142 147h153z" />
    <glyph glyph-name="Ntilde" unicode="&#xd1;" 
d="M530 689v-689h-110l-215 435l-31 79l11 -159v-355h-111v689h113l223 -452l22 -62l-13 134v380h111zM403 874h76c0 -37 -9 -65 -27 -86s-42 -32 -72 -32c-19 0 -44 5 -75 14c-27 8 -49 12 -64 12c-8 0 -13 -9 -16 -26h-80c7 77 40 116 99 116c19 0 48 -5 89 -16
c27 -7 44 -10 52 -10c5 0 9 2 12 6c2 3 4 11 6 22z" />
    <glyph glyph-name="Oacute" unicode="&#xd3;" 
d="M538 344c0 -111 -21 -198 -63 -261c-42 -64 -101 -96 -176 -96s-134 32 -176 96c-42 63 -63 150 -63 261c0 114 21 202 62 265c41 62 100 93 177 93s136 -31 177 -93c41 -63 62 -151 62 -265zM418 344c0 100 -9 169 -28 207s-49 57 -91 57s-72 -19 -91 -56
c-19 -38 -28 -107 -28 -208c0 -98 9 -166 28 -205s49 -58 91 -58s72 19 91 57c19 37 28 106 28 206zM294 911h153l-142 -147h-96z" />
    <glyph glyph-name="Ocircumflex" unicode="&#xd4;" 
d="M538 344c0 -111 -21 -198 -63 -261c-42 -64 -101 -96 -176 -96s-134 32 -176 96c-42 63 -63 150 -63 261c0 114 21 202 62 265c41 62 100 93 177 93s136 -31 177 -93c41 -63 62 -151 62 -265zM418 344c0 100 -9 169 -28 207s-49 57 -91 57s-72 -19 -91 -56
c-19 -38 -28 -107 -28 -208c0 -98 9 -166 28 -205s49 -58 91 -58s72 19 91 57c19 37 28 106 28 206zM363 915l119 -151h-99l-79 62l-75 -62h-96l115 151h115z" />
    <glyph glyph-name="Odieresis" unicode="&#xd6;" 
d="M538 344c0 -111 -21 -198 -63 -261c-42 -64 -101 -96 -176 -96s-134 32 -176 96c-42 63 -63 150 -63 261c0 114 21 202 62 265c41 62 100 93 177 93s136 -31 177 -93c41 -63 62 -151 62 -265zM418 344c0 100 -9 169 -28 207s-49 57 -91 57s-72 -19 -91 -56
c-19 -38 -28 -107 -28 -208c0 -98 9 -166 28 -205s49 -58 91 -58s72 19 91 57c19 37 28 106 28 206zM459 813c0 -14 -7 -27 -20 -39s-29 -18 -46 -18s-33 6 -46 18c-14 12 -21 25 -21 39s7 27 21 39c13 11 29 17 46 17s33 -6 46 -17c13 -12 20 -25 20 -39zM273 813
c0 -14 -7 -27 -20 -39s-29 -18 -46 -18s-33 6 -46 18c-14 12 -21 25 -21 39s7 27 21 39c13 11 29 17 46 17s33 -6 46 -17c13 -12 20 -25 20 -39z" />
    <glyph glyph-name="Ograve" unicode="&#xd2;" 
d="M538 344c0 -111 -21 -198 -63 -261c-42 -64 -101 -96 -176 -96s-134 32 -176 96c-42 63 -63 150 -63 261c0 114 21 202 62 265c41 62 100 93 177 93s136 -31 177 -93c41 -63 62 -151 62 -265zM418 344c0 100 -9 169 -28 207s-49 57 -91 57s-72 -19 -91 -56
c-19 -38 -28 -107 -28 -208c0 -98 9 -166 28 -205s49 -58 91 -58s72 19 91 57c19 37 28 106 28 206zM306 911l85 -147h-96l-142 147h153z" />
    <glyph glyph-name="Otilde" unicode="&#xd5;" 
d="M538 344c0 -111 -21 -198 -63 -261c-42 -64 -101 -96 -176 -96s-134 32 -176 96c-42 63 -63 150 -63 261c0 114 21 202 62 265c41 62 100 93 177 93s136 -31 177 -93c41 -63 62 -151 62 -265zM418 344c0 100 -9 169 -28 207s-49 57 -91 57s-72 -19 -91 -56
c-19 -38 -28 -107 -28 -208c0 -98 9 -166 28 -205s49 -58 91 -58s72 19 91 57c19 37 28 106 28 206zM403 874h76c0 -37 -9 -65 -27 -86s-42 -32 -72 -32c-19 0 -44 5 -75 14c-27 8 -49 12 -64 12c-8 0 -13 -9 -16 -26h-80c7 77 40 116 99 116c19 0 48 -5 89 -16
c27 -7 44 -10 52 -10c5 0 9 2 12 6c2 3 4 11 6 22z" />
    <glyph glyph-name="Scaron" unicode="&#x160;" 
d="M527 196c0 -65 -24 -117 -72 -154s-110 -55 -189 -55c-43 0 -79 4 -109 11s-59 19 -89 36l37 99c53 -35 106 -52 157 -52c45 0 81 9 109 27s42 43 42 76c0 20 -9 38 -27 56s-49 39 -97 62l-76 37c-53 26 -90 53 -112 82s-32 63 -32 101c0 54 22 98 66 131s102 49 174 49
c55 0 119 -10 194 -30l-38 -98c-21 9 -48 17 -80 24s-56 10 -75 10c-39 0 -70 -7 -92 -22s-33 -35 -33 -61c0 -16 6 -31 20 -45s38 -32 75 -50l66 -33c55 -28 94 -52 116 -71s38 -39 49 -60s16 -45 16 -70zM472 930l-119 -151h-115l-115 151h96l74 -62l80 62h99z" />
    <glyph glyph-name="Uacute" unicode="&#xda;" 
d="M520 689v-449c0 -83 -18 -145 -55 -188s-91 -65 -163 -65c-70 0 -123 22 -161 67c-37 44 -57 105 -57 184v451h115v-451c0 -47 9 -85 27 -114s43 -43 76 -43c35 0 61 13 78 38s25 65 25 121v449h115zM297 911h153l-142 -147h-96z" />
    <glyph glyph-name="Ucircumflex" unicode="&#xdb;" 
d="M520 689v-449c0 -83 -18 -145 -55 -188s-91 -65 -163 -65c-70 0 -123 22 -161 67c-37 44 -57 105 -57 184v451h115v-451c0 -47 9 -85 27 -114s43 -43 76 -43c35 0 61 13 78 38s25 65 25 121v449h115zM363 915l119 -151h-99l-79 62l-75 -62h-96l115 151h115z" />
    <glyph glyph-name="Udieresis" unicode="&#xdc;" 
d="M520 689v-449c0 -83 -18 -145 -55 -188s-91 -65 -163 -65c-70 0 -123 22 -161 67c-37 44 -57 105 -57 184v451h115v-451c0 -47 9 -85 27 -114s43 -43 76 -43c35 0 61 13 78 38s25 65 25 121v449h115zM459 813c0 -14 -7 -27 -20 -39s-29 -18 -46 -18s-33 6 -46 18
c-14 12 -21 25 -21 39s7 27 21 39c13 11 29 17 46 17s33 -6 46 -17c13 -12 20 -25 20 -39zM273 813c0 -14 -7 -27 -20 -39s-29 -18 -46 -18s-33 6 -46 18c-14 12 -21 25 -21 39s7 27 21 39c13 11 29 17 46 17s33 -6 46 -17c13 -12 20 -25 20 -39z" />
    <glyph glyph-name="Ugrave" unicode="&#xd9;" 
d="M520 689v-449c0 -83 -18 -145 -55 -188s-91 -65 -163 -65c-70 0 -123 22 -161 67c-37 44 -57 105 -57 184v451h115v-451c0 -47 9 -85 27 -114s43 -43 76 -43c35 0 61 13 78 38s25 65 25 121v449h115zM310 911l85 -147h-96l-142 147h153z" />
    <glyph glyph-name="Yacute" unicode="&#xdd;" 
d="M591 689l-232 -397v-292h-116v292l-232 397h125l169 -293l162 293h124zM453 911l-142 -147h-97l85 147h154z" />
    <glyph glyph-name="Ydieresis" unicode="&#x178;" 
d="M467 689h124l-232 -397v-292h-116v292l-232 397h125l169 -293zM459 813c0 -14 -7 -27 -20 -39s-29 -18 -46 -18s-33 6 -46 18c-14 12 -21 25 -21 39s7 27 21 39c13 11 29 17 46 17s33 -6 46 -17c13 -12 20 -25 20 -39zM273 813c0 -14 -7 -27 -20 -39s-29 -18 -46 -18
s-33 6 -46 18c-14 12 -21 25 -21 39s7 27 21 39c13 11 29 17 46 17s33 -6 46 -17c13 -12 20 -25 20 -39z" />
    <glyph glyph-name="Zcaron" unicode="&#x17d;" 
d="M528 689v-63l-324 -532h318v-94h-453v62l323 533h-309v94h445zM380 915h99l-119 -151h-115l-115 151h96l75 -62z" />
    <glyph glyph-name="aacute" unicode="&#xe1;" 
d="M518 329v-329h-112v51c-41 -43 -90 -64 -149 -64c-51 0 -94 14 -127 41s-50 65 -50 113c0 50 23 90 68 119s105 47 182 51l74 4v4c0 34 -11 62 -32 83s-47 32 -78 32c-47 0 -98 -14 -151 -43l-40 83c27 15 62 28 104 38s79 15 111 15c64 0 113 -17 148 -51
s52 -83 52 -147zM404 147v85l-58 -3c-99 -5 -148 -34 -148 -88c0 -17 7 -32 22 -44s32 -18 51 -18c45 0 89 23 133 68zM297 731h153l-142 -147h-96z" />
    <glyph glyph-name="acircumflex" unicode="&#xe2;" 
d="M518 329v-329h-112v51c-41 -43 -90 -64 -149 -64c-51 0 -94 14 -127 41s-50 65 -50 113c0 50 23 90 68 119s105 47 182 51l74 4v4c0 34 -11 62 -32 83s-47 32 -78 32c-47 0 -98 -14 -151 -43l-40 83c27 15 62 28 104 38s79 15 111 15c64 0 113 -17 148 -51
s52 -83 52 -147zM404 147v85l-58 -3c-99 -5 -148 -34 -148 -88c0 -17 7 -32 22 -44s32 -18 51 -18c45 0 89 23 133 68zM369 735l119 -151h-99l-79 62l-75 -62h-96l115 151h115z" />
    <glyph glyph-name="adieresis" unicode="&#xe4;" 
d="M518 329v-329h-112v51c-41 -43 -90 -64 -149 -64c-51 0 -94 14 -127 41s-50 65 -50 113c0 50 23 90 68 119s105 47 182 51l74 4v4c0 34 -11 62 -32 83s-47 32 -78 32c-47 0 -98 -14 -151 -43l-40 83c27 15 62 28 104 38s79 15 111 15c64 0 113 -17 148 -51
s52 -83 52 -147zM404 147v85l-58 -3c-99 -5 -148 -34 -148 -88c0 -17 7 -32 22 -44s32 -18 51 -18c45 0 89 23 133 68zM459 641c0 -14 -7 -27 -20 -39s-29 -18 -46 -18s-33 6 -46 18c-14 12 -21 25 -21 39s7 27 21 39c13 11 29 17 46 17s33 -6 46 -17c13 -12 20 -25 20 -39z
M273 641c0 -14 -7 -27 -20 -39s-29 -18 -46 -18s-33 6 -46 18c-14 12 -21 25 -21 39s7 27 21 39c13 11 29 17 46 17s33 -6 46 -17c13 -12 20 -25 20 -39z" />
    <glyph glyph-name="agrave" unicode="&#xe0;" 
d="M518 329v-329h-112v51c-41 -43 -90 -64 -149 -64c-51 0 -94 14 -127 41s-50 65 -50 113c0 50 23 90 68 119s105 47 182 51l74 4v4c0 34 -11 62 -32 83s-47 32 -78 32c-47 0 -98 -14 -151 -43l-40 83c27 15 62 28 104 38s79 15 111 15c64 0 113 -17 148 -51
s52 -83 52 -147zM404 147v85l-58 -3c-99 -5 -148 -34 -148 -88c0 -17 7 -32 22 -44s32 -18 51 -18c45 0 89 23 133 68zM314 731l85 -147h-96l-142 147h153z" />
    <glyph glyph-name="aring" unicode="&#xe5;" 
d="M518 329v-329h-112v51c-41 -43 -90 -64 -149 -64c-51 0 -94 14 -127 41s-50 65 -50 113c0 50 23 90 68 119s105 47 182 51l74 4v4c0 34 -11 62 -32 83s-47 32 -78 32c-47 0 -98 -14 -151 -43l-40 83c27 15 62 28 104 38s79 15 111 15c64 0 113 -17 148 -51
s52 -83 52 -147zM404 147v85l-58 -3c-99 -5 -148 -34 -148 -88c0 -17 7 -32 22 -44s32 -18 51 -18c45 0 89 23 133 68zM404 688c0 -29 -10 -53 -30 -73c-21 -21 -45 -31 -74 -31s-53 10 -73 31c-21 21 -31 45 -31 73s10 52 31 73c20 21 44 31 73 31s53 -9 74 -30
s30 -45 30 -74zM345 689c0 13 -4 23 -13 32s-19 13 -32 13s-23 -4 -32 -13s-13 -19 -13 -32s4 -23 13 -32s19 -13 32 -13s23 4 32 13s13 19 13 32z" />
    <glyph glyph-name="atilde" unicode="&#xe3;" 
d="M518 329v-329h-112v51c-41 -43 -90 -64 -149 -64c-51 0 -94 14 -127 41s-50 65 -50 113c0 50 23 90 68 119s105 47 182 51l74 4v4c0 34 -11 62 -32 83s-47 32 -78 32c-47 0 -98 -14 -151 -43l-40 83c27 15 62 28 104 38s79 15 111 15c64 0 113 -17 148 -51
s52 -83 52 -147zM404 147v85l-58 -3c-99 -5 -148 -34 -148 -88c0 -17 7 -32 22 -44s32 -18 51 -18c45 0 89 23 133 68zM403 702h76c0 -37 -9 -65 -27 -86s-42 -32 -72 -32c-19 0 -44 5 -75 14c-27 8 -49 12 -64 12c-8 0 -13 -9 -16 -26h-80c7 77 40 116 99 116
c19 0 48 -5 89 -15c27 -7 44 -11 52 -11c5 0 9 2 12 6c2 4 4 11 6 22z" />
    <glyph glyph-name="ccedilla" unicode="&#xe7;" horiz-adv-x="603" 
d="M515 21l-18 92c-34 -13 -62 -22 -83 -26c-21 -5 -44 -7 -69 -7c-43 0 -78 18 -105 53s-41 76 -41 124c0 51 13 93 40 127c27 33 62 50 105 50c44 0 89 -11 136 -33l33 93c-51 22 -107 33 -170 33c-75 0 -138 -25 -187 -76s-74 -116 -74 -194c0 -76 30 -145 78 -197
c25 -27 91 -60 128 -69l-32 -64c20 0 38 -2 53 -7c15 -4 23 -9 23 -15c0 -16 -33 -20 -99 -20v-70c71 0 121 7 151 21c29 14 44 36 44 67c0 15 -5 28 -16 39c-11 12 -26 20 -44 23l10 24c60 4 80 9 137 32z" />
    <glyph glyph-name="eacute" unicode="&#xe9;" 
d="M524 265v-30h-346v-3c0 -40 14 -75 42 -106s62 -47 103 -47c49 0 103 11 162 34l19 -93c-60 -22 -120 -33 -181 -33c-77 0 -140 25 -189 76c-49 50 -74 114 -74 191c0 79 23 145 69 196s105 77 177 77c37 0 73 -11 108 -34s63 -54 82 -93s28 -84 28 -135zM187 320h215
c-5 35 -16 63 -33 84s-39 31 -64 31c-56 0 -95 -38 -118 -115zM295 731h153l-142 -147h-96z" />
    <glyph glyph-name="ecircumflex" unicode="&#xea;" 
d="M524 265v-30h-346v-3c0 -40 14 -75 42 -106s62 -47 103 -47c49 0 103 11 162 34l19 -93c-60 -22 -120 -33 -181 -33c-77 0 -140 25 -189 76c-49 50 -74 114 -74 191c0 79 23 145 69 196s105 77 177 77c37 0 73 -11 108 -34s63 -54 82 -93s28 -84 28 -135zM187 320h215
c-5 35 -16 63 -33 84s-39 31 -64 31c-56 0 -95 -38 -118 -115zM363 735l119 -151h-99l-79 62l-75 -62h-96l115 151h115z" />
    <glyph glyph-name="edieresis" unicode="&#xeb;" 
d="M524 265v-30h-346v-3c0 -40 14 -75 42 -106s62 -47 103 -47c49 0 103 11 162 34l19 -93c-60 -22 -120 -33 -181 -33c-77 0 -140 25 -189 76c-49 50 -74 114 -74 191c0 79 23 145 69 196s105 77 177 77c37 0 73 -11 108 -34s63 -54 82 -93s28 -84 28 -135zM187 320h215
c-5 35 -16 63 -33 84s-39 31 -64 31c-56 0 -95 -38 -118 -115zM459 641c0 -14 -7 -27 -20 -39s-29 -18 -46 -18s-33 6 -46 18c-14 12 -21 25 -21 39s7 27 21 39c13 11 29 17 46 17s33 -6 46 -17c13 -12 20 -25 20 -39zM273 641c0 -14 -7 -27 -20 -39s-29 -18 -46 -18
s-33 6 -46 18c-14 12 -21 25 -21 39s7 27 21 39c13 11 29 17 46 17s33 -6 46 -17c13 -12 20 -25 20 -39z" />
    <glyph glyph-name="egrave" unicode="&#xe8;" 
d="M524 265v-30h-346v-3c0 -40 14 -75 42 -106s62 -47 103 -47c49 0 103 11 162 34l19 -93c-60 -22 -120 -33 -181 -33c-77 0 -140 25 -189 76c-49 50 -74 114 -74 191c0 79 23 145 69 196s105 77 177 77c37 0 73 -11 108 -34s63 -54 82 -93s28 -84 28 -135zM187 320h215
c-5 35 -16 63 -33 84s-39 31 -64 31c-56 0 -95 -38 -118 -115zM316 731l85 -147h-96l-142 147h153z" />
    <glyph glyph-name="iacute" unicode="&#xed;" 
d="M377 515v-515h-114v423h-132v92h246zM293 731h154l-142 -147h-97z" />
    <glyph glyph-name="icircumflex" unicode="&#xee;" 
d="M377 515v-515h-114v423h-132v92h246zM356 735l119 -151h-99l-79 62l-75 -62h-96l115 151h115z" />
    <glyph glyph-name="idieresis" unicode="&#xef;" 
d="M377 515v-515h-114v423h-132v92h246zM459 641c0 -14 -7 -27 -20 -39s-29 -18 -46 -18s-33 6 -46 18c-14 12 -21 25 -21 39s7 27 21 39c13 11 29 17 46 17s33 -6 46 -17c13 -12 20 -25 20 -39zM273 641c0 -14 -7 -27 -20 -39s-29 -18 -46 -18s-33 6 -46 18
c-14 12 -21 25 -21 39s7 27 21 39c13 11 29 17 46 17s33 -6 46 -17c13 -12 20 -25 20 -39z" />
    <glyph glyph-name="igrave" unicode="&#xec;" 
d="M377 515v-515h-114v423h-132v92h246zM312 731l84 -147h-95l-142 147h153z" />
    <glyph glyph-name="ntilde" unicode="&#xf1;" 
d="M520 347v-347h-113v301c0 49 -4 84 -15 104c-10 19 -30 29 -57 29c-43 0 -88 -25 -137 -74v-360h-114v515h112v-53c55 43 109 65 162 65c57 0 99 -14 124 -43s38 -74 38 -137zM403 702h76c0 -37 -9 -65 -27 -86s-42 -32 -72 -32c-19 0 -44 5 -75 14c-27 8 -49 12 -64 12
c-8 0 -13 -9 -16 -26h-80c7 77 40 116 99 116c19 0 48 -5 89 -15c27 -7 44 -11 52 -11c5 0 9 2 12 6c2 4 4 11 6 22z" />
    <glyph glyph-name="oacute" unicode="&#xf3;" 
d="M551 257c0 -76 -24 -140 -71 -192s-106 -78 -177 -78s-131 26 -178 78s-71 116 -71 192c0 79 23 143 70 194c46 51 106 76 179 76s133 -25 179 -76s69 -115 69 -194zM431 257c0 57 -11 101 -32 132c-22 31 -54 46 -96 46s-74 -15 -96 -46s-33 -75 -33 -132
c0 -56 11 -99 34 -130c22 -31 54 -47 95 -47s73 15 95 46s33 74 33 131zM303 731h154l-143 -147h-96z" />
    <glyph glyph-name="ocircumflex" unicode="&#xf4;" 
d="M551 257c0 -76 -24 -140 -71 -192s-106 -78 -177 -78s-131 26 -178 78s-71 116 -71 192c0 79 23 143 70 194c46 51 106 76 179 76s133 -25 179 -76s69 -115 69 -194zM431 257c0 57 -11 101 -32 132c-22 31 -54 46 -96 46s-74 -15 -96 -46s-33 -75 -33 -132
c0 -56 11 -99 34 -130c22 -31 54 -47 95 -47s73 15 95 46s33 74 33 131zM363 735l119 -151h-99l-79 62l-75 -62h-96l115 151h115z" />
    <glyph glyph-name="odieresis" unicode="&#xf6;" 
d="M551 257c0 -76 -24 -140 -71 -192s-106 -78 -177 -78s-131 26 -178 78s-71 116 -71 192c0 79 23 143 70 194c46 51 106 76 179 76s133 -25 179 -76s69 -115 69 -194zM431 257c0 57 -11 101 -32 132c-22 31 -54 46 -96 46s-74 -15 -96 -46s-33 -75 -33 -132
c0 -56 11 -99 34 -130c22 -31 54 -47 95 -47s73 15 95 46s33 74 33 131zM459 641c0 -14 -7 -27 -20 -39s-29 -18 -46 -18s-33 6 -46 18c-14 12 -21 25 -21 39s7 27 21 39c13 11 29 17 46 17s33 -6 46 -17c13 -12 20 -25 20 -39zM273 641c0 -14 -7 -27 -20 -39
s-29 -18 -46 -18s-33 6 -46 18c-14 12 -21 25 -21 39s7 27 21 39c13 11 29 17 46 17s33 -6 46 -17c13 -12 20 -25 20 -39z" />
    <glyph glyph-name="ograve" unicode="&#xf2;" 
d="M551 257c0 -76 -24 -140 -71 -192s-106 -78 -177 -78s-131 26 -178 78s-71 116 -71 192c0 79 23 143 70 194c46 51 106 76 179 76s133 -25 179 -76s69 -115 69 -194zM431 257c0 57 -11 101 -32 132c-22 31 -54 46 -96 46s-74 -15 -96 -46s-33 -75 -33 -132
c0 -56 11 -99 34 -130c22 -31 54 -47 95 -47s73 15 95 46s33 74 33 131zM319 731l85 -147h-95l-142 147h152z" />
    <glyph glyph-name="otilde" unicode="&#xf5;" 
d="M551 257c0 -76 -24 -140 -71 -192s-106 -78 -177 -78s-131 26 -178 78s-71 116 -71 192c0 79 23 143 70 194c46 51 106 76 179 76s133 -25 179 -76s69 -115 69 -194zM431 257c0 57 -11 101 -32 132c-22 31 -54 46 -96 46s-74 -15 -96 -46s-33 -75 -33 -132
c0 -56 11 -99 34 -130c22 -31 54 -47 95 -47s73 15 95 46s33 74 33 131zM403 702h76c0 -37 -9 -65 -27 -86s-42 -32 -72 -32c-19 0 -44 5 -75 14c-27 8 -49 12 -64 12c-8 0 -13 -9 -16 -26h-80c7 77 40 116 99 116c19 0 48 -5 89 -15c27 -7 44 -11 52 -11c5 0 9 2 12 6
c2 4 4 11 6 22z" />
    <glyph glyph-name="scaron" unicode="&#x161;" 
d="M483 152c0 -49 -22 -90 -68 -120s-101 -45 -167 -45c-69 0 -128 11 -178 33l24 92c52 -24 102 -37 151 -37c32 0 60 7 85 19s37 28 37 47c0 16 -8 31 -22 42s-43 23 -87 35l-70 19c-37 10 -67 27 -88 52s-32 53 -32 86c0 45 22 82 65 110s99 42 165 42
c50 0 104 -8 160 -23l-25 -92c-54 18 -99 27 -134 27c-34 0 -62 -5 -83 -15s-32 -24 -32 -41c0 -13 4 -24 14 -33s27 -17 52 -24l80 -21c55 -15 94 -34 118 -58s35 -56 35 -95zM452 750l-119 -151h-115l-115 151h96l74 -62l80 62h99z" />
    <glyph glyph-name="uacute" unicode="&#xfa;" 
d="M521 515v-515h-112v52c-56 -43 -110 -65 -162 -65c-57 0 -99 14 -124 43s-38 74 -38 137v348h114v-302c0 -51 5 -85 15 -104s29 -29 56 -29c41 0 86 25 137 75v360h114zM297 731h153l-142 -147h-96z" />
    <glyph glyph-name="ucircumflex" unicode="&#xfb;" 
d="M521 515v-515h-112v52c-56 -43 -110 -65 -162 -65c-57 0 -99 14 -124 43s-38 74 -38 137v348h114v-302c0 -51 5 -85 15 -104s29 -29 56 -29c41 0 86 25 137 75v360h114zM363 735l119 -151h-99l-79 62l-75 -62h-96l115 151h115z" />
    <glyph glyph-name="udieresis" unicode="&#xfc;" 
d="M521 515v-515h-112v52c-56 -43 -110 -65 -162 -65c-57 0 -99 14 -124 43s-38 74 -38 137v348h114v-302c0 -51 5 -85 15 -104s29 -29 56 -29c41 0 86 25 137 75v360h114zM459 641c0 -14 -7 -27 -20 -39s-29 -18 -46 -18s-33 6 -46 18c-14 12 -21 25 -21 39s7 27 21 39
c13 11 29 17 46 17s33 -6 46 -17c13 -12 20 -25 20 -39zM273 641c0 -14 -7 -27 -20 -39s-29 -18 -46 -18s-33 6 -46 18c-14 12 -21 25 -21 39s7 27 21 39c13 11 29 17 46 17s33 -6 46 -17c13 -12 20 -25 20 -39z" />
    <glyph glyph-name="ugrave" unicode="&#xf9;" 
d="M521 515v-515h-112v52c-56 -43 -110 -65 -162 -65c-57 0 -99 14 -124 43s-38 74 -38 137v348h114v-302c0 -51 5 -85 15 -104s29 -29 56 -29c41 0 86 25 137 75v360h114zM314 731l85 -147h-96l-142 147h153z" />
    <glyph glyph-name="yacute" unicode="&#xfd;" 
d="M549 515l-192 -497c-28 -73 -56 -129 -93 -168s-76 -58 -119 -58c-27 0 -62 7 -106 21l39 90c33 -13 57 -19 74 -19c37 0 71 43 100 131l-217 500h120l150 -352l127 352h117zM455 731l-142 -147h-96l85 147h153z" />
    <glyph glyph-name="ydieresis" unicode="&#xff;" 
d="M432 515h117l-192 -497c-28 -72 -56 -129 -93 -168s-76 -58 -119 -58c-27 0 -63 7 -106 21l39 90c33 -13 57 -19 74 -19c37 0 71 44 100 131l-217 500h120l150 -352zM459 641c0 -14 -7 -27 -20 -39s-29 -18 -46 -18s-33 6 -46 18c-14 12 -21 25 -21 39s7 27 21 39
c13 11 29 17 46 17s33 -6 46 -17c13 -12 20 -25 20 -39zM273 641c0 -14 -7 -27 -20 -39s-29 -18 -46 -18s-33 6 -46 18c-14 12 -21 25 -21 39s7 27 21 39c13 11 29 17 46 17s33 -6 46 -17c13 -12 20 -25 20 -39z" />
    <glyph glyph-name="zcaron" unicode="&#x17e;" 
d="M510 92v-92h-431v53l273 370h-266v92h424v-49l-275 -374h275zM376 750h99l-119 -151h-115l-115 151h96l75 -62z" />
    <glyph glyph-name="notequal" unicode="&#x2260;" 
d="M481 702l-91 -224h161v-80h-194l-37 -90h231v-80h-263l-98 -241h-90l98 241h-149v80h181l36 90h-217v80h250l91 224h91z" />
    <glyph glyph-name="infinity" unicode="&#x221e;" 
d="M585 272c0 -55 -12 -98 -37 -128c-25 -31 -58 -46 -100 -46c-39 0 -85 30 -137 89l-7 8c-23 -35 -45 -59 -66 -74c-22 -15 -45 -22 -70 -22c-42 0 -78 17 -108 50s-45 73 -45 120c0 49 14 91 42 126c27 35 62 52 105 52c24 0 44 -5 59 -14s36 -32 65 -67l9 -11
c15 28 36 50 61 67s51 25 80 25c45 0 82 -15 109 -46s40 -74 40 -129zM484 272c0 58 -18 87 -54 87c-23 0 -47 -26 -73 -77c41 -53 69 -80 86 -80c27 0 41 23 41 70zM242 271l-15 20c-19 25 -32 41 -41 48s-18 11 -26 11c-13 0 -24 -7 -31 -22c-8 -15 -12 -35 -12 -61
c0 -20 6 -37 18 -52c11 -15 23 -22 34 -22s21 5 31 16c9 10 23 31 42 62z" />
    <glyph glyph-name="lessequal" unicode="&#x2264;" 
d="M493 190v-85l-405 213v71l405 211v-85l-313 -164zM493 80v-80h-405v80h405z" />
    <glyph glyph-name="greaterequal" unicode="&#x2265;" 
d="M512 389v-71l-405 -213v85l313 161l-313 164v85zM512 80v-80h-405v80h405z" />
    <glyph glyph-name="partialdiff" unicode="&#x2202;" 
d="M559 338c0 -65 -14 -123 -43 -176s-68 -96 -117 -127c-49 -32 -100 -48 -153 -48c-60 0 -107 19 -144 58c-36 38 -55 89 -55 154c0 54 14 108 43 161s67 95 115 126s100 46 155 46c15 0 31 -2 46 -5c-21 40 -51 71 -91 93c-41 22 -88 33 -141 33h-10l-27 97h33
c117 0 212 -37 283 -111s106 -174 106 -301zM346 432c-52 0 -95 -24 -128 -72c-34 -49 -51 -103 -51 -164c0 -35 8 -61 24 -80s39 -28 69 -28c33 0 63 11 90 32s48 52 65 91c16 39 24 76 24 112c0 35 -8 62 -24 81s-39 28 -69 28z" />
    <glyph glyph-name="summation" unicode="&#x2211;" 
d="M568 -108v-100h-544v78l234 410l-222 326v83h513v-100h-365l215 -302l-230 -395h399z" />
    <glyph glyph-name="product" unicode="&#x220f;" 
d="M604 689v-111h-84v-786h-115v786h-206v-786h-115v786h-88v111h608z" />
    <glyph glyph-name="pi" unicode="&#x3c0;" 
d="M604 413h-104v-413h-115v413h-156v-413h-115v413h-12c-21 0 -57 -5 -106 -15v111c45 8 78 12 100 12h508v-108z" />
    <glyph glyph-name="integral" unicode="&#x222b;" 
d="M514 607c0 -25 -7 -45 -21 -59s-32 -21 -55 -21c-14 0 -26 5 -37 14s-16 20 -16 32c0 7 2 13 5 18s5 11 5 16c0 3 -4 4 -11 4c-20 0 -30 -26 -30 -79v-558c0 -57 -12 -102 -37 -134s-60 -48 -106 -48c-34 0 -61 9 -82 27s-32 42 -32 72c0 26 7 46 20 61s30 22 51 22
c16 0 30 -4 41 -13c11 -8 16 -19 16 -32c0 -9 -2 -16 -7 -21c-3 -5 -5 -10 -5 -16s3 -9 10 -9c9 0 16 5 20 14c3 9 5 31 5 65v558c0 57 13 102 38 134s60 48 106 48c35 0 65 -9 88 -26c23 -18 34 -41 34 -69z" />
    <glyph glyph-name="radical" unicode="&#x221a;" 
d="M599 782v-102h-56l-210 -812h-120l-95 287l-81 -29l-36 99l188 67l82 -258l192 748h136z" />
    <glyph glyph-name="approxequal" unicode="&#x2248;" 
d="M588 519v-93c-59 -35 -115 -53 -166 -53c-31 0 -76 11 -133 29c-59 18 -97 25 -114 25c-39 0 -93 -21 -162 -62v91c60 35 116 53 169 53c32 0 77 -10 134 -29c50 -16 87 -24 112 -24c33 0 87 21 160 63zM588 340v-93c-59 -35 -114 -53 -166 -53c-32 0 -76 11 -133 29
c-60 18 -98 25 -114 25c-37 0 -91 -21 -162 -62v91c59 35 116 53 169 53c31 0 75 -9 134 -28c51 -17 89 -25 112 -25c33 0 87 21 160 63z" />
    <glyph glyph-name="Delta" unicode="&#x394;" 
d="M559 84v-84h-530v83l210 606h119zM152 99h286l-143 443z" />
    <glyph glyph-name="Delta" unicode="&#x2206;" 
d="M559 84v-84h-530v83l210 606h119zM152 99h286l-143 443z" />
    <glyph glyph-name="lozenge" unicode="&#x25ca;" 
d="M300 748l290 -374l-290 -374l-289 374zM300 158l165 215l-165 209l-165 -208z" />
    <glyph glyph-name="apple" 
d="M549 407c-26 -18 -44 -36 -54 -55s-15 -39 -15 -61c0 -19 3 -35 8 -48c7 -17 16 -30 25 -41c10 -12 27 -25 52 -38c-9 -27 -24 -56 -44 -84s-37 -49 -54 -62c-15 -12 -31 -18 -46 -18c-6 0 -13 0 -21 2s-16 5 -26 9l-25 10c-14 3 -26 5 -36 5c-12 0 -27 -3 -44 -9
l-27 -10c-11 -4 -23 -7 -35 -7c-25 0 -51 17 -80 52c-14 17 -25 34 -36 53s-20 38 -28 59c-14 40 -21 80 -21 121c0 52 15 95 45 130s70 53 121 53c17 0 34 -3 52 -10c22 -11 38 -16 48 -16c16 0 34 5 54 16c20 7 39 10 60 10c53 0 95 -21 127 -61zM425 607
c0 -8 0 -13 1 -17c0 -19 -6 -40 -18 -61s-27 -38 -46 -51c-18 -12 -38 -18 -62 -18l-2 17c0 17 5 35 15 54c6 11 13 20 19 27s14 15 23 22s19 13 29 17s20 6 31 8z" />
    <glyph glyph-name="uni00AD" 
d="M460 393v-80h-330v80h330z" />
    <glyph glyph-name="uni03A9" 
d="M543 89v-89h-226v85c67 27 101 117 101 270c0 97 -9 164 -28 201s-49 56 -91 56s-72 -18 -91 -55s-28 -105 -28 -202c0 -154 36 -244 107 -270v-85h-232v89h87c-25 34 -44 75 -59 122s-23 95 -23 144c0 112 20 198 61 258c41 59 100 89 178 89s137 -30 178 -89
c41 -60 61 -146 61 -258c0 -49 -7 -97 -22 -144s-35 -88 -60 -122h87z" />
    <glyph glyph-name="uni03BC" 
d="M202 -7v-201h-117v723h114v-302c0 -51 5 -85 15 -104s29 -29 56 -29c41 0 86 25 137 75v360h114v-515h-112v52c-56 -43 -110 -65 -162 -65c-20 0 -35 2 -45 6z" />
    <glyph glyph-name="litre" unicode="&#x2113;" 
d="M470 49c-30 -28 -83 -64 -147 -64c-45 0 -76 13 -100 38c-28 29 -41 81 -41 129v76l-57 -57c-11 19 -24 37 -36 55c31 31 62 61 93 92v208c0 129 56 202 149 202c85 0 114 -67 114 -119c0 -97 -49 -176 -119 -257c-11 -12 -26 -31 -35 -40v-148c0 -69 26 -94 63 -94
c34 0 63 24 81 43c12 -22 24 -43 35 -64zM375 594c0 27 -11 49 -36 49c-31 0 -48 -32 -48 -98v-138c6 6 15 17 20 24c39 53 64 115 64 163z" />
    <glyph glyph-name="estimated" unicode="&#x212e;" 
d="M595 300h-462v-207c44 -43 99 -67 164 -67c107 0 171 54 222 136c12 -7 24 -15 36 -22c-61 -91 -131 -152 -258 -152c-179 0 -292 140 -292 312c0 173 111 312 293 312c185 0 292 -140 297 -312zM463 338v168c-43 42 -102 68 -165 68c-65 0 -121 -22 -165 -67v-169h330z
" />
    <glyph glyph-name="Omega" unicode="&#x3a9;" 
d="M543 89v-89h-226v85c67 27 101 117 101 270c0 97 -9 164 -28 201s-49 56 -91 56s-72 -18 -91 -55s-28 -105 -28 -202c0 -154 36 -244 107 -270v-85h-232v89h87c-25 34 -44 75 -59 122s-23 95 -23 144c0 112 20 198 61 258c41 59 100 89 178 89s137 -30 178 -89
c41 -60 61 -146 61 -258c0 -49 -7 -97 -22 -144s-35 -88 -60 -122h87z" />
    <glyph glyph-name="Euro" unicode="&#x20ac;" 
d="M520 45c-50 -36 -105 -54 -167 -54c-67 0 -122 21 -164 62s-70 101 -83 180h-69l37 80h25c-1 6 -1 17 -1 31c0 17 0 28 1 36h-62l37 79h33c14 78 42 138 84 178c42 41 96 61 162 61c62 0 113 -15 154 -44l-26 -87c-40 25 -83 37 -128 37c-69 0 -112 -48 -130 -145h296
l-37 -79h-268c-1 -8 -1 -19 -1 -36v-31h243l-37 -80h-198c17 -99 61 -148 132 -148c45 0 92 16 142 47z" />
  </font>
</defs>
</svg>
