<?xml version="1.0" encoding="UTF-8"?>
<svg width="66px" height="23px" viewBox="0 0 66 23" version="1.1" xmlns="http://www.w3.org/2000/svg" xmlns:xlink="http://www.w3.org/1999/xlink">
    <!-- Generator: Sketch 63.1 (92452) - https://sketch.com -->
    <title>arrow-long</title>
    <desc>Created with Sketch.</desc>
    <g id="Page-1" stroke="none" stroke-width="1" fill="none" fill-rule="evenodd">
        <g id="Cosound-Landing-2020" transform="translate(-200.000000, -2296.000000)" fill="#FFFFFF" fill-rule="nonzero" stroke="#FFFFFF" stroke-width="0.52015">
            <g id="MIddle-Section-" transform="translate(-53.000000, 1544.000000)">
                <g id="left-col" transform="translate(0.595120, 0.791000)">
                    <g id="next-btn" transform="translate(51.934400, 719.689840)">
                        <g id="Down-7-Copy" transform="translate(233.788236, 42.599324) rotate(-90.000000) translate(-233.788236, -42.599324) translate(222.788236, 10.099324)">
                            <path d="M10.0318173,-0.0202701049 C9.88364666,0.127895662 9.79200098,0.332555557 9.79200098,0.558476842 L9.79200098,61.7231865 L1.13696984,53.06844 C0.977341827,52.9088172 0.76780233,52.8289143 0.558215959,52.8289143 C0.348629588,52.8289143 0.139090091,52.9088172 -0.0205379246,53.06844 C-0.180169276,53.2280661 -0.260075,53.4376034 -0.260075,53.6471869 C-0.260075,53.8567704 -0.180169276,54.0663077 -0.0205379246,54.2259338 L11.0128122,64.4544656 L21.2416803,54.2259338 C21.4018965,54.0657229 21.4818987,53.8564569 21.4821942,53.6472406 C21.4824901,53.4377633 21.402858,53.228198 21.243267,53.0677939 C21.0831693,52.9077002 20.8736298,52.8277973 20.6640434,52.8277973 C20.454457,52.8277973 20.2449175,52.9077002 20.0852895,53.067323 L11.4291414,61.7231865 L11.4291414,0.558476842 C11.4291414,0.332555557 11.3374957,0.127895662 11.1893251,-0.0202701049 C11.057681,-0.151909851 10.9153357,-0.316274866 10.0318173,-0.0202701049 Z" id="arrow-long"></path>
                        </g>
                    </g>
                </g>
            </g>
        </g>
    </g>
</svg>