<?xml version="1.0" encoding="UTF-8"?>
<svg width="19px" height="11px" viewBox="0 0 19 11" version="1.1" xmlns="http://www.w3.org/2000/svg" xmlns:xlink="http://www.w3.org/1999/xlink">
    <!-- Generator: Sketch 63.1 (92452) - https://sketch.com -->
    <title>eye</title>
    <desc>Created with Sketch.</desc>
    <g id="Page-1" stroke="none" stroke-width="1" fill="none" fill-rule="evenodd">
        <g id="Cosound-Landing-2020" transform="translate(-699.000000, -1532.000000)" fill="#FFFFFF" fill-rule="nonzero">
            <g id="Connect.Collaborate.-Create." transform="translate(404.000000, 1111.000000)">
                <g id="Explore" transform="translate(274.000000, 404.000000)">
                    <path d="M39.6560757,22.2391338 C39.5086153,22.0253553 35.9648855,17 30.3629524,17 C25.5560569,17 21.2726846,21.9964874 21.0924553,22.2094857 C20.9691816,22.3546054 20.9691816,22.5676037 21.0924553,22.7135036 C21.2726846,22.9265019 25.5560569,27.9229893 30.3629524,27.9229893 C35.1698479,27.9229893 39.4532202,22.9265019 39.6334495,22.7135036 C39.7465805,22.5785267 39.7567232,22.3842535 39.6560757,22.2391338 Z M30.3629524,25.5823488 C28.6418014,25.5823488 27.2420983,24.1826457 27.2420983,22.4614947 C27.2420983,20.7403436 28.6418014,19.3406406 30.3629524,19.3406406 C32.0841034,19.3406406 33.4838065,20.7403436 33.4838065,22.4614947 C33.4838065,24.1826457 32.0841034,25.5823488 30.3629524,25.5823488 Z" id="eye"></path>
                </g>
            </g>
        </g>
    </g>
</svg>