<?xml version="1.0" encoding="UTF-8"?>
<svg width="11px" height="20px" viewBox="0 0 11 20" version="1.1" xmlns="http://www.w3.org/2000/svg" xmlns:xlink="http://www.w3.org/1999/xlink">
    <!-- Generator: Sketch 63.1 (92452) - https://sketch.com -->
    <title>facebook</title>
    <desc>Created with Sketch.</desc>
    <g id="Page-1" stroke="none" stroke-width="1" fill="none" fill-rule="evenodd">
        <g id="Cosound-Landing-2020" transform="translate(-197.000000, -4213.000000)" fill="#FFFFFF">
            <g id="Footer" transform="translate(0.000000, 3885.000000)">
                <g id="Footer-widget-1" transform="translate(180.000000, 171.000000)">
                    <g id="Socials" transform="translate(0.000000, 144.112500)">
                        <g id="facebook">
                            <g id="Icon/Facebook" transform="translate(12.862360, 12.993750)">
                                <g id="facebook-f" transform="translate(4.677222, 0.000000)">
                                    <path d="M9.39610004,10.63125 L9.91571015,7.21079297 L6.66686806,7.21079297 L6.66686806,4.99115039 C6.66686806,4.05537891 7.12070473,3.14323242 8.57575919,3.14323242 L10.0527381,3.14323242 L10.0527381,0.231082031 C10.0527381,0.231082031 8.71242176,0 7.43093608,0 C4.75541907,0 3.00657662,1.63824609 3.00657662,4.60392188 L3.00657662,7.21079297 L0.0325213076,7.21079297 L0.0325213076,10.63125 L3.00657662,10.63125 L3.00657662,18.9 L6.66686806,18.9 L6.66686806,10.63125 L9.39610004,10.63125 Z" id="Path"></path>
                                </g>
                            </g>
                        </g>
                    </g>
                </g>
            </g>
        </g>
    </g>
</svg>