<?xml version="1.0" encoding="UTF-8"?>
<svg width="19px" height="20px" viewBox="0 0 19 20" version="1.1" xmlns="http://www.w3.org/2000/svg" xmlns:xlink="http://www.w3.org/1999/xlink">
    <!-- Generator: Sketch 63.1 (92452) - https://sketch.com -->
    <title>instagram</title>
    <desc>Created with Sketch.</desc>
    <g id="Page-1" stroke="none" stroke-width="1" fill="none" fill-rule="evenodd">
        <g id="Cosound-Landing-2020" transform="translate(-305.000000, -4213.000000)" fill="#FFFFFF">
            <g id="Footer" transform="translate(0.000000, 3885.000000)">
                <g id="Footer-widget-1" transform="translate(180.000000, 171.000000)">
                    <g id="Socials" transform="translate(0.000000, 144.112500)">
                        <g id="instagram" transform="translate(112.000000, 0.000000)">
                            <g id="Icon/Instagram" transform="translate(13.115682, 12.993750)">
                                <g id="instagram">
                                    <path d="M9.35653041,4.6042787 C6.70201794,4.6042787 4.56087816,6.76777307 4.56087816,9.45 C4.56087816,12.1322269 6.70201794,14.2957213 9.35653041,14.2957213 C12.0110429,14.2957213 14.1521827,12.1322269 14.1521827,9.45 C14.1521827,6.76777307 12.0110429,4.6042787 9.35653041,4.6042787 Z M9.35653041,12.6003514 C7.64111433,12.6003514 6.23873038,11.1875432 6.23873038,9.45 C6.23873038,7.71245677 7.63694057,6.29964856 9.35653041,6.29964856 C11.0761203,6.29964856 12.4743304,7.71245677 12.4743304,9.45 C12.4743304,11.1875432 11.0719465,12.6003514 9.35653041,12.6003514 L9.35653041,12.6003514 Z M15.4669176,4.40606382 C15.4669176,5.03444717 14.9660662,5.53631039 14.3483495,5.53631039 C13.726459,5.53631039 13.2297813,5.03022983 13.2297813,4.40606382 C13.2297813,3.7818978 13.7306327,3.27581725 14.3483495,3.27581725 C14.9660662,3.27581725 15.4669176,3.7818978 15.4669176,4.40606382 Z M18.6431503,5.55317974 C18.5721964,4.03915542 18.2299479,2.69804195 17.1322486,1.59309941 C16.038723,0.488156867 14.7114667,0.142335156 13.2130863,0.0664230726 C11.6687944,-0.0221410242 7.04009264,-0.0221410242 5.49580079,0.0664230726 C4.00159408,0.138117818 2.67433784,0.483939529 1.5766385,1.58888207 C0.478939161,2.69382461 0.140864459,4.03493808 0.0657367476,5.5489624 C-0.0219122492,7.10937744 -0.0219122492,11.7864052 0.0657367476,13.3468203 C0.136690697,14.8608446 0.478939161,16.201958 1.5766385,17.3069006 C2.67433784,18.4118431 3.99742032,18.7576648 5.49580079,18.8335769 C7.04009264,18.922141 11.6687944,18.922141 13.2130863,18.8335769 C14.7114667,18.7618822 16.038723,18.4160605 17.1322486,17.3069006 C18.2257741,16.201958 18.5680226,14.8608446 18.6431503,13.3468203 C18.7307993,11.7864052 18.7307993,7.11359478 18.6431503,5.55317974 Z M16.6480922,15.0211034 C16.3225388,15.8477017 15.6923008,16.4845197 14.8700697,16.8176894 C13.63881,17.3111179 10.7171767,17.1972498 9.35653041,17.1972498 C7.99588408,17.1972498 5.07007709,17.3069006 3.84299114,16.8176894 C3.02493383,16.488737 2.39469581,15.851919 2.06496863,15.0211034 C1.5766385,13.7769887 1.68933007,10.8248522 1.68933007,9.45 C1.68933007,8.07514783 1.58081226,5.11879393 2.06496863,3.87889657 C2.39052205,3.05229834 3.02076007,2.41548031 3.84299114,2.08231061 C5.07425085,1.58888207 7.99588408,1.7027502 9.35653041,1.7027502 C10.7171767,1.7027502 13.6429837,1.59309941 14.8700697,2.08231061 C15.688127,2.41126297 16.318365,3.048081 16.6480922,3.87889657 C17.1364223,5.12301127 17.0237308,8.07514783 17.0237308,9.45 C17.0237308,10.8248522 17.1364223,13.7812061 16.6480922,15.0211034 Z" id="Shape"></path>
                                </g>
                            </g>
                        </g>
                    </g>
                </g>
            </g>
        </g>
    </g>
</svg>