<?xml version="1.0" encoding="UTF-8"?>
<svg width="15px" height="14px" viewBox="0 0 15 14" version="1.1" xmlns="http://www.w3.org/2000/svg" xmlns:xlink="http://www.w3.org/1999/xlink">
    <!-- Generator: Sketch 63.1 (92452) - https://sketch.com -->
    <title>like</title>
    <desc>Created with Sketch.</desc>
    <g id="Page-1" stroke="none" stroke-width="1" fill="none" fill-rule="evenodd">
        <g id="Cosound-Landing-2020" transform="translate(-981.000000, -2525.000000)" fill="#FFFFFF" fill-rule="nonzero">
            <g id="MIddle-Section-" transform="translate(-53.000000, 1544.000000)">
                <g id="right-col" transform="translate(990.021640, 134.000000)">
                    <g id="share-icons" transform="translate(44.940960, 847.636440)">
                        <path d="M4.2912375,5.72165 L1.4304125,5.72165 C0.64196913,5.72165 0,6.36361913 0,7.1520625 L0,11.7293825 C0,12.5178259 0.64196913,13.159795 1.4304125,13.159795 L3.1469075,13.159795 C3.93535087,13.159795 4.57732,12.5178259 4.57732,11.7293825 L4.57732,6.0077325 C4.57732,5.84981496 4.44915504,5.72165 4.2912375,5.72165 Z M13.73196,7.86726875 C13.73196,7.52339759 13.5952126,7.20298519 13.3600528,6.96610888 C13.6272538,6.67373256 13.7634291,6.28122737 13.7256662,5.87384589 C13.6587229,5.14662418 13.0030218,4.57732 12.2334599,4.57732 L8.69976882,4.57732 C8.87427915,4.04577872 9.15464,3.07138172 9.15464,2.28866 C9.15464,1.04763412 8.1001399,0 7.438145,0 C6.84366557,0 6.41911913,0.33414436 6.40080985,0.348448485 C6.33272222,0.40280416 6.293815,0.48519592 6.293815,0.572165 L6.293815,2.51180435 L5.00758808,5.2982479 C4.96810869,5.38464482 4.97325818,5.48477369 5.02246437,5.56602112 C5.10657263,5.70505722 5.149485,5.85382012 5.149485,6.00716034 L5.149485,11.7288103 C5.149485,11.8667021 5.13346438,12.0068825 5.10027881,12.1585063 C5.06652107,12.3124186 5.16321696,12.4646145 5.31655718,12.4989444 C5.56773761,12.5555888 5.81376856,12.5870578 6.0077325,12.5870578 L11.259635,12.5870578 C11.8827227,12.5870578 12.427996,12.1670887 12.5555888,11.5874856 C12.6213877,11.2893876 12.5824805,10.9884288 12.4525991,10.7280938 C12.875429,10.5152484 13.159795,10.0792586 13.159795,9.58319159 C13.159795,9.38121734 13.1134496,9.18668124 13.0253362,9.01102659 C13.447594,8.79875337 13.73196,8.36333581 13.73196,7.86726875 Z" id="like"></path>
                    </g>
                </g>
            </g>
        </g>
    </g>
</svg>