<?xml version="1.0" encoding="UTF-8"?>
<svg width="45px" height="45px" viewBox="0 0 45 45" version="1.1" xmlns="http://www.w3.org/2000/svg" xmlns:xlink="http://www.w3.org/1999/xlink">
    <!-- Generator: Sketch 63.1 (92452) - https://sketch.com -->
    <title>Group 14</title>
    <desc>Created with Sketch.</desc>
    <g id="Page-1" stroke="none" stroke-width="1" fill="none" fill-rule="evenodd">
        <g id="Cosound-Landing-2020" transform="translate(-1427.000000, -377.000000)" fill="#FFFFFF">
            <g id="Header">
                <g id="Group-14" transform="translate(1427.000000, 377.000000)">
                    <g id="Group-13">
                        <circle id="Oval-2" cx="2.5" cy="2.5" r="2.5"></circle>
                        <circle id="Oval-2" cx="12.5" cy="2.5" r="2.5"></circle>
                        <circle id="Oval-2" cx="22.5" cy="2.5" r="2.5"></circle>
                        <circle id="Oval-2" cx="32.5" cy="2.5" r="2.5"></circle>
                        <circle id="Oval-2" cx="42.5" cy="2.5" r="2.5"></circle>
                    </g>
                    <g id="Group-13" transform="translate(0.000000, 10.000000)">
                        <circle id="Oval-2" cx="2.5" cy="2.5" r="2.5"></circle>
                        <circle id="Oval-2" cx="12.5" cy="2.5" r="2.5"></circle>
                        <circle id="Oval-2" cx="22.5" cy="2.5" r="2.5"></circle>
                        <circle id="Oval-2" cx="32.5" cy="2.5" r="2.5"></circle>
                        <circle id="Oval-2" cx="42.5" cy="2.5" r="2.5"></circle>
                    </g>
                    <g id="Group-13" transform="translate(0.000000, 20.000000)">
                        <circle id="Oval-2" cx="2.5" cy="2.5" r="2.5"></circle>
                        <circle id="Oval-2" cx="12.5" cy="2.5" r="2.5"></circle>
                        <circle id="Oval-2" cx="22.5" cy="2.5" r="2.5"></circle>
                        <circle id="Oval-2" cx="32.5" cy="2.5" r="2.5"></circle>
                        <circle id="Oval-2" cx="42.5" cy="2.5" r="2.5"></circle>
                    </g>
                    <g id="Group-13" transform="translate(0.000000, 30.000000)">
                        <circle id="Oval-2" cx="2.5" cy="2.5" r="2.5"></circle>
                        <circle id="Oval-2" cx="12.5" cy="2.5" r="2.5"></circle>
                        <circle id="Oval-2" cx="22.5" cy="2.5" r="2.5"></circle>
                        <circle id="Oval-2" cx="32.5" cy="2.5" r="2.5"></circle>
                        <circle id="Oval-2" cx="42.5" cy="2.5" r="2.5"></circle>
                    </g>
                    <g id="Group-13" transform="translate(0.000000, 40.000000)">
                        <circle id="Oval-2" cx="2.5" cy="2.5" r="2.5"></circle>
                        <circle id="Oval-2" cx="12.5" cy="2.5" r="2.5"></circle>
                        <circle id="Oval-2" cx="22.5" cy="2.5" r="2.5"></circle>
                        <circle id="Oval-2" cx="32.5" cy="2.5" r="2.5"></circle>
                        <circle id="Oval-2" cx="42.5" cy="2.5" r="2.5"></circle>
                    </g>
                </g>
            </g>
        </g>
    </g>
</svg>