<?xml version="1.0" encoding="UTF-8"?>
<svg width="13px" height="14px" viewBox="0 0 13 14" version="1.1" xmlns="http://www.w3.org/2000/svg" xmlns:xlink="http://www.w3.org/1999/xlink">
    <!-- Generator: Sketch 63.1 (92452) - https://sketch.com -->
    <title>Shape</title>
    <desc>Created with Sketch.</desc>
    <g id="Page-1" stroke="none" stroke-width="1" fill="none" fill-rule="evenodd">
        <g id="Cosound-Landing-2020" transform="translate(-1059.000000, -2528.000000)" fill="#FFFFFF" fill-rule="nonzero">
            <g id="MIddle-Section-" transform="translate(-53.000000, 1544.000000)">
                <g id="right-col" transform="translate(990.021640, 134.000000)">
                    <g id="share-icons" transform="translate(44.940960, 847.636440)">
                        <g id="Share-Copy" transform="translate(77.149960, 3.248360)">
                            <path d="M10.403,8.3224 C9.68259225,8.3224 9.04800925,8.69014605 8.6740214,9.24774685 L4.0353237,6.928398 C4.11178575,6.71253575 4.1612,6.48366975 4.1612,6.2418 C4.1612,5.99993025 4.11178575,5.77106425 4.0353237,5.555202 L8.6740214,3.23585315 C9.04800925,3.79345395 9.68259225,4.1612 10.403,4.1612 C11.5504509,4.1612 12.4836,3.2280509 12.4836,2.0806 C12.4836,0.9331491 11.5504509,0 10.403,0 C9.2555491,0 8.3224,0.9331491 8.3224,2.0806 C8.3224,2.32246975 8.37181425,2.55133575 8.4482763,2.767198 L3.8095786,5.08654685 C3.43559075,4.52894605 2.80100775,4.1612 2.0806,4.1612 C0.9331491,4.1612 0,5.0943491 0,6.2418 C0,7.3892509 0.9331491,8.3224 2.0806,8.3224 C2.80100775,8.3224 3.43559075,7.95465395 3.8095786,7.39705315 L8.4482763,9.716402 C8.37181425,9.93226425 8.3224,10.1611302 8.3224,10.403 C8.3224,11.5504509 9.2555491,12.4836 10.403,12.4836 C11.5504509,12.4836 12.4836,11.5504509 12.4836,10.403 C12.4836,9.2555491 11.5504509,8.3224 10.403,8.3224 Z" id="Shape"></path>
                        </g>
                    </g>
                </g>
            </g>
        </g>
    </g>
</svg>