<?xml version="1.0" encoding="UTF-8"?>
<svg width="19px" height="16px" viewBox="0 0 19 16" version="1.1" xmlns="http://www.w3.org/2000/svg" xmlns:xlink="http://www.w3.org/1999/xlink">
    <!-- Generator: Sketch 63.1 (92452) - https://sketch.com -->
    <title>twitter</title>
    <desc>Created with Sketch.</desc>
    <g id="Page-1" stroke="none" stroke-width="1" fill="none" fill-rule="evenodd">
        <g id="Cosound-Landing-2020" transform="translate(-249.000000, -4215.000000)" fill="#FFFFFF">
            <g id="Footer" transform="translate(0.000000, 3885.000000)">
                <g id="Footer-widget-1" transform="translate(180.000000, 171.000000)">
                    <g id="Socials" transform="translate(0.000000, 144.112500)">
                        <g id="twitter" transform="translate(56.000000, 0.000000)">
                            <g id="Icon/Twitter" transform="translate(12.989021, 12.993750)">
                                <path d="M18.7088871,4.18539019 C17.9728507,4.50520875 17.236648,4.70493783 16.5009443,4.7851655 C17.3319061,4.28149537 17.8939748,3.56994738 18.1868177,2.65056353 C17.4267069,3.10618106 16.6156615,3.41789285 15.7530994,3.5858669 C14.9932797,2.77040098 14.0595754,2.3625 12.9513629,2.3625 C11.8910082,2.3625 10.9869083,2.74020009 10.2387308,3.49576829 C9.49096909,4.25129448 9.11704665,5.16462976 9.11704665,6.23590012 C9.11704665,6.52366962 9.1486469,6.8195879 9.21201372,7.12336093 C7.6449739,7.04342729 6.17498011,6.64569128 4.80178289,5.93015291 C3.42866882,5.21453053 2.2633264,4.26112342 1.30575564,3.0699316 C0.957529187,3.66941288 0.783353592,4.32110516 0.783353592,5.02463038 C0.783353592,5.68820979 0.937654292,6.30390462 1.24646359,6.87154686 C1.55506499,7.4391051 1.97064987,7.89875502 2.49301033,8.25058064 C1.87559964,8.22655434 1.29789715,8.06261268 0.759819721,7.75879765 L0.759819721,7.80676623 C0.759819721,8.74223762 1.05066677,9.5635421 1.63227771,10.2713097 C2.2139718,10.9789934 2.94805395,11.4244459 3.83435783,11.6084235 C3.50193151,11.6962539 3.16551357,11.7402321 2.82527034,11.7402321 C2.60365279,11.7402321 2.36224351,11.7202802 2.10112564,11.6805864 C2.34644338,12.4559385 2.79757854,13.0933074 3.45436481,13.5932392 C4.11127582,14.0929189 4.85521226,14.3504875 5.6862157,14.3668691 C4.29339306,15.4699785 2.70664466,16.0215332 0.925970515,16.0215332 C0.585602547,16.0215332 0.277042727,16.0058657 0,15.9736906 C1.78071573,17.1328334 3.74338237,17.7124048 5.88812468,17.7124048 C7.24934707,17.7124048 8.52749407,17.494782 9.72214988,17.0589483 C10.9173878,16.6234087 11.9382006,16.0396369 12.7850874,15.307969 C13.6317246,14.5764691 14.3619815,13.7350027 14.9752342,12.7836538 C15.5885286,11.8322209 16.0454017,10.838952 16.3463941,9.80363704 C16.6470123,8.76811209 16.7974461,7.73099099 16.7974461,6.69147566 C16.7974461,6.46759426 16.7934545,6.29978823 16.7855128,6.18780553 C17.5375572,5.63641884 18.178585,4.96872304 18.7088871,4.18539019 Z"></path>
                            </g>
                        </g>
                    </g>
                </g>
            </g>
        </g>
    </g>
</svg>