<?xml version="1.0" encoding="UTF-8"?>
<svg width="19px" height="14px" viewBox="0 0 19 14" version="1.1" xmlns="http://www.w3.org/2000/svg" xmlns:xlink="http://www.w3.org/1999/xlink">
    <!-- Generator: Sketch 63.1 (92452) - https://sketch.com -->
    <title>youtube</title>
    <desc>Created with Sketch.</desc>
    <g id="Page-1" stroke="none" stroke-width="1" fill="none" fill-rule="evenodd">
        <g id="Cosound-Landing-2020" transform="translate(-360.000000, -4216.000000)" fill="#FFFFFF">
            <g id="Footer" transform="translate(0.000000, 3885.000000)">
                <g id="Footer-widget-1" transform="translate(180.000000, 171.000000)">
                    <g id="Socials" transform="translate(0.000000, 144.112500)">
                        <g id="youtube" transform="translate(167.000000, 0.000000)">
                            <g id="Icon/Youtube" transform="translate(13.073038, 13.000000)">
                                <path d="M18.3179467,5.57683198 C18.1027788,4.77656587 17.4688196,4.14630132 16.663884,3.93241201 C15.2048803,3.54375 9.35444353,3.54375 9.35444353,3.54375 C9.35444353,3.54375 3.50404101,3.54375 2.0450031,3.93241201 C1.24006746,4.14633516 0.606108279,4.77656587 0.390940354,5.57683198 C0,7.02736084 0,10.0537541 0,10.0537541 C0,10.0537541 0,13.0801474 0.390940354,14.5306762 C0.606108279,15.3309423 1.24006746,15.9349487 2.0450031,16.148838 C3.50404101,16.5375 9.35444353,16.5375 9.35444353,16.5375 C9.35444353,16.5375 15.2048461,16.5375 16.663884,16.148838 C17.4688196,15.9349487 18.1027788,15.3309423 18.3179467,14.5306762 C18.7088871,13.0801474 18.7088871,10.0537541 18.7088871,10.0537541 C18.7088871,10.0537541 18.7088871,7.02736084 18.3179467,5.57683198 Z M7.01583265,12.99375 L7.01583265,7.0875 L11.6930544,10.0406977 L7.01583265,12.99375 Z"></path>
                            </g>
                        </g>
                    </g>
                </g>
            </g>
        </g>
    </g>
</svg>