<?xml version="1.0" encoding="UTF-8"?>
<svg width="195px" height="67px" viewBox="0 0 195 67" version="1.1" xmlns="http://www.w3.org/2000/svg" xmlns:xlink="http://www.w3.org/1999/xlink">
    <!-- Generator: Sketch 63.1 (92452) - https://sketch.com -->
    <title>apple</title>
    <desc>Created with Sketch.</desc>
    <g id="Page-1" stroke="none" stroke-width="1" fill="none" fill-rule="evenodd">
        <g id="Cosound-Landing-2020" transform="translate(-972.000000, -3663.000000)">
            <g id="App" transform="translate(125.000000, 2783.000000)">
                <g id="Download-Apps" transform="translate(847.000000, 880.000000)">
                    <g id="apple">
                        <rect id="bg" fill="#000000" x="0" y="0" width="194.992344" height="66.0931071" rx="8.33976"></rect>
                        <path d="M75.517835,48.3233839 L72.1985804,48.3233839 L70.3803714,42.6123133 L64.0604873,42.6123133 L62.3285116,48.3233839 L59.096952,48.3233839 L65.3583728,28.8803224 L69.225721,28.8803224 L75.517835,48.3233839 L75.517835,48.3233839 Z M85.8190708,34.0157568 C87.4735825,34.0157568 88.8547783,34.6688263 89.9597349,35.9764262 C91.0676147,37.2854872 91.620093,39.0065517 91.620093,41.1410808 C91.620093,43.5254418 90.975535,45.4101389 89.6864189,46.7937111 C88.5317685,48.0253388 87.0979557,48.6404221 85.3864422,48.6404221 C83.5390016,48.6404221 82.2118844,47.9771256 81.4036291,46.6505326 L81.3451657,46.6505326 L81.3451657,54.0359155 L78.2290712,54.0359155 L78.2290712,38.9188914 C78.2290712,37.4198997 78.1896084,35.8814609 78.1136061,34.3035749 L80.8540739,34.3035749 L81.0280023,36.5257643 L81.0864656,36.5257643 C82.125651,34.851452 83.7026988,34.0157568 85.8190708,34.0157568 Z M101.952022,34.0157568 C103.605072,34.0157568 104.986268,34.6688263 106.094148,35.9764262 C107.197643,37.2854872 107.751583,39.0065517 107.751583,41.1410808 C107.751583,43.5254418 107.107025,45.4101389 105.816447,46.7937111 C104.663258,48.0253388 103.229445,48.6404221 101.517932,48.6404221 C99.6704912,48.6404221 98.343374,47.9771256 97.5365802,46.6505326 L97.4781169,46.6505326 L97.4781169,54.0359155 L94.3620224,54.0359155 L94.3620224,38.9188914 C94.3620224,37.4198997 94.3225596,35.8814609 94.2465573,34.3035749 L96.9870251,34.3035749 L97.1609535,36.5257643 L97.2194168,36.5257643 C98.2571406,34.851452 99.8341884,34.0157568 101.952022,34.0157568 Z M144.831939,34.0172178 C146.889847,34.0172178 148.545821,34.6995074 149.795474,36.0655476 C150.991049,37.3906796 151.587375,39.101517 151.587375,41.19806 C151.587375,43.3530431 150.970587,45.1223208 149.739934,46.5058931 C148.449356,47.9303734 146.736381,48.6404221 144.601009,48.6404221 C142.5431,48.6404221 140.904666,47.9581325 139.682783,46.5935534 C138.460899,45.2289742 137.849958,43.5064487 137.849958,41.4303599 C137.849958,39.2578446 138.478438,37.4783399 139.739784,36.0947677 C140.998207,34.7097344 142.696566,34.0172178 144.831939,34.0172178 Z M120.623743,28.5954263 C122.393719,28.5954263 123.864072,28.9036985 125.037723,29.5187818 L124.258699,32.0580094 C123.162512,31.4619191 121.92309,31.163874 120.536048,31.163874 C119.43986,31.163874 118.583373,31.43416 117.969508,31.9718101 C117.450646,32.4524809 117.190484,33.0383441 117.190484,33.7323217 C117.190484,34.5008106 117.487186,35.136348 118.083512,35.6360119 C118.602373,36.0976897 119.545094,36.5973536 120.913136,37.1364646 C122.586648,37.8099882 123.815839,38.5974701 124.606556,39.5003716 C125.394349,40.400351 125.787515,41.5267862 125.787515,42.8709113 C125.787515,44.5247696 125.213113,45.8703556 124.059924,46.9091306 C122.792731,48.0443319 121.028601,48.611202 118.761686,48.611202 C116.668699,48.611202 114.990802,48.2079645 113.720687,47.4000284 L114.442709,44.8038216 C115.81075,45.6307507 117.311796,46.0456763 118.947307,46.0456763 C120.120958,46.0456763 121.034447,45.7797733 121.690698,45.2508893 C122.344025,44.7220053 122.669958,44.0119566 122.669958,43.1265873 C122.669958,42.3376443 122.401027,41.6728868 121.861703,41.1337757 C121.325302,40.5946647 120.429352,40.0935398 119.178237,39.630401 C115.772749,38.3607872 114.071467,36.5009272 114.071467,34.055204 C114.071467,32.4568639 114.667793,31.146342 115.861906,30.1265601 C117.051634,29.1053172 118.638913,28.5954263 120.623743,28.5954263 Z M132.655492,30.8103107 L132.655492,34.3006529 L136.090212,34.3006529 L136.090212,36.6411837 L132.655492,36.6411837 L132.655492,43.4480085 C132.655492,45.1793 133.260588,46.0442153 134.473701,46.0442153 C135.030564,46.0442153 135.492425,45.9960021 135.85782,45.8995758 L135.944054,48.2649437 C135.330189,48.4943216 134.521934,48.609741 133.520749,48.609741 C132.290097,48.609741 131.328375,48.2342626 130.634123,47.4847668 C129.942795,46.7338099 129.594938,45.4744232 129.594938,43.7051455 L129.594938,36.6382617 L127.548722,36.6382617 L127.548722,34.3006529 L129.594938,34.3006529 L129.594938,31.7336662 L132.655492,30.8103107 Z M169.825005,33.9894587 C171.846374,33.9894587 173.376651,34.7389545 174.415837,36.2379462 C175.238708,37.4286657 175.652336,38.9013593 175.652336,40.6501829 C175.652336,41.208287 175.615796,41.6787308 175.538332,42.0629752 L166.190049,42.0629752 C166.226588,43.4480085 166.678217,44.5072375 167.546397,45.2377403 C168.334191,45.8908097 169.352914,46.218075 170.604029,46.218075 C171.988148,46.218075 173.250955,45.9974631 174.386605,45.5547785 L174.874774,47.7170666 C173.547656,48.2956248 171.98084,48.5834429 170.172862,48.5834429 C167.998027,48.5834429 166.290898,47.9435225 165.048552,46.6651427 C163.80913,45.3867628 163.187957,43.6700813 163.187957,41.5165592 C163.187957,39.4024842 163.765283,37.6419725 164.921395,36.2379462 C166.131585,34.7389545 167.767096,33.9894587 169.825005,33.9894587 Z M160.93712,34.0157568 C161.225052,34.0157568 161.485213,34.0362109 161.716144,34.072736 L161.716144,37.0429603 C161.40775,36.985981 161.078893,36.9567609 160.73396,36.9567609 C159.637773,36.9567609 158.790055,37.3702255 158.193729,38.1986156 C157.674867,38.9291184 157.414705,39.8524739 157.414705,40.9672211 L157.414705,48.3233839 L154.300072,48.3233839 L154.329304,38.7187336 C154.329304,37.1028615 154.289841,35.6316289 154.212377,34.3050359 L156.926537,34.3050359 L157.04054,36.987442 L157.126773,36.987442 C157.45563,36.0655476 157.974492,35.3233568 158.684821,34.7667136 C159.379073,34.2655888 160.128865,34.0157568 160.93712,34.0157568 Z M144.720858,36.2949254 C143.468282,36.2949254 142.516792,36.8544905 141.863464,37.9721598 C141.303678,38.8984373 141.027439,40.0248725 141.027439,41.3573096 C141.027439,42.6502995 141.303678,43.7592027 141.863464,44.6825582 C142.537254,45.8016884 143.478513,46.3597925 144.693088,46.3597925 C145.882817,46.3597925 146.816768,45.7900003 147.490558,44.653338 C148.06496,43.7109895 148.354353,42.5903982 148.354353,41.2988694 C148.354353,40.0058795 148.078114,38.8969763 147.518328,37.9721598 C146.865,36.8530295 145.931049,36.2949254 144.720858,36.2949254 Z M84.809117,36.4950832 C84.0403245,36.4950832 83.3416879,36.7522202 82.717592,37.2591891 C82.0920346,37.770541 81.6827914,38.4382205 81.491324,39.2651497 C81.3948596,39.6508551 81.3466273,39.9664323 81.3466273,40.2148033 L81.3466273,42.5524121 C81.3466273,43.572194 81.659406,44.4327262 82.2849635,45.1354699 C82.9105209,45.8382135 83.723161,46.1888549 84.7228836,46.1888549 C85.8965347,46.1888549 86.8100239,45.7359431 87.4633514,44.8330417 C88.1181405,43.9286793 88.4455351,42.7364988 88.4455351,41.2550392 C88.4455351,39.89046 88.1386027,38.7654858 87.5218147,37.8801164 C86.8480251,36.9567609 85.9433053,36.4950832 84.809117,36.4950832 Z M100.940607,36.4950832 C100.170352,36.4950832 99.4731775,36.7522202 98.84762,37.2591891 C98.2220626,37.770541 97.814281,38.4382205 97.6228136,39.2651497 C97.5278107,39.6508551 97.4781169,39.9664323 97.4781169,40.2148033 L97.4781169,42.5524121 C97.4781169,43.572194 97.7908957,44.4327262 98.4135299,45.1354699 C99.0390874,45.8367525 99.8517274,46.1888549 100.854373,46.1888549 C102.028024,46.1888549 102.941514,45.7359431 103.594841,44.8330417 C104.24963,43.9286793 104.577025,42.7364988 104.577025,41.2550392 C104.577025,39.89046 104.268631,38.7654858 103.651843,37.8801164 C102.978053,36.9567609 102.076256,36.4950832 100.940607,36.4950832 Z M67.2072751,31.4765292 C67.6881359,33.3992125 68.0140688,34.6206131 68.1879972,35.1392701 L68.1879972,35.1392701 L69.8322779,40.2162643 L64.6100424,40.2162643 L66.2250914,35.1392701 C66.6489505,33.524859 66.9573444,32.3034583 67.1488118,31.4765292 L67.1488118,31.4765292 Z M169.592613,36.1488249 C168.57389,36.1488249 167.745173,36.5710555 167.112307,37.4184387 C166.593445,38.0919622 166.285051,38.8998983 166.190049,39.8407858 L172.680938,39.8407858 C172.7014,38.9188914 172.49824,38.1211823 172.075843,37.4476588 C171.536519,36.5812825 170.707801,36.1488249 169.592613,36.1488249 Z" id="app-store" fill="#FFFFFF"></path>
                        <path d="M74.0474827,14.8941165 C75.058898,14.8941165 75.8715381,15.2286867 76.4868644,15.8992883 C77.0714976,16.5508967 77.3652757,17.3924359 77.3652757,18.4209838 C77.3652757,19.4802128 77.0627281,20.3480501 76.4576328,21.0288787 C75.8233058,21.7287003 74.9828957,22.0778807 73.9334793,22.0778807 C72.9220639,22.0778807 72.1167318,21.7433104 71.5160213,21.0712478 C70.9167723,20.4006463 70.6171478,19.5547241 70.6171478,18.5349423 C70.6171478,17.4684082 70.9255418,16.5932659 71.5452529,15.9138983 C72.164964,15.2345308 72.9980662,14.8941165 74.0474827,14.8941165 Z M106.710936,14.8941165 C107.723813,14.8941165 108.534991,15.2286867 109.151779,15.8992883 C109.736412,16.5508967 110.03019,17.3924359 110.03019,18.4209838 C110.03019,19.4802128 109.727643,20.3480501 109.122547,21.0288787 C108.48822,21.7287003 107.646349,22.0778807 106.598394,22.0778807 C105.585517,22.0778807 104.780185,21.7433104 104.180936,21.0712478 C103.581687,20.4006463 103.282062,19.5547241 103.282062,18.5349423 C103.282062,17.4684082 103.590456,16.5932659 104.210167,15.9138983 C104.829879,15.2345308 105.662981,14.8941165 106.710936,14.8941165 Z M114.640022,14.8941165 C116.440692,14.8941165 117.343951,15.8437701 117.343951,17.7430773 L117.343951,20.2793829 C117.343951,20.9675165 117.377567,21.5153935 117.443338,21.9215531 L116.067989,21.9215531 L115.953985,21.1282271 L115.911599,21.1282271 C115.44097,21.7608425 114.770103,22.0778807 113.899,22.0778807 C113.248596,22.0778807 112.722426,21.8689569 112.326337,21.4540313 C111.966787,21.0770919 111.787013,20.6081091 111.787013,20.051466 C111.787013,19.2099268 112.137793,18.5685454 112.843737,18.1243997 C113.54822,17.680254 114.539173,17.4625642 115.815135,17.4727912 L115.815135,17.3442227 C115.815135,16.4369383 115.338659,15.9840266 114.384245,15.9840266 C113.704609,15.9840266 113.10536,16.1549642 112.58796,16.4939175 L112.276643,15.4887457 C112.916816,15.0928132 113.707533,14.8941165 114.640022,14.8941165 Z M126.092985,11.8742181 L126.092985,20.066076 C126.092985,20.7366776 126.110524,21.3546829 126.147064,21.9215531 L124.787792,21.9215531 L124.716174,20.8155719 L124.673789,20.8155719 C124.239698,21.6571111 123.500137,22.0778807 122.460952,22.0778807 C121.630773,22.0778807 120.939444,21.7520764 120.391351,21.100468 C119.843257,20.4488595 119.569941,19.6029373 119.569941,18.5641624 C119.569941,17.4494151 119.866643,16.5465137 120.462968,15.8569191 C121.040294,15.2140767 121.7477,14.8926555 122.589571,14.8926555 C123.514753,14.8926555 124.162235,15.2038497 124.530553,15.827699 L124.559785,15.827699 L124.559785,11.8742181 L126.092985,11.8742181 Z M135.930899,14.8941165 C136.940853,14.8941165 137.754955,15.2286867 138.36882,15.8992883 C138.953453,16.5508967 139.247231,17.3924359 139.247231,18.4209838 C139.247231,19.4802128 138.944683,20.3480501 138.339588,21.0288787 C137.705261,21.7287003 136.866312,22.0778807 135.815434,22.0778807 C134.805481,22.0778807 134.000148,21.7433104 133.397976,21.0712478 C132.798727,20.4006463 132.499103,19.5547241 132.499103,18.5349423 C132.499103,17.4684082 132.807497,16.5932659 133.427208,15.9138983 C134.046919,15.2345308 134.880021,14.8941165 135.930899,14.8941165 Z M156.103666,13.3191525 L156.103666,15.032912 L157.790332,15.032912 L157.790332,16.1812623 L156.105127,16.1812623 L156.105127,19.526965 C156.105127,20.3772702 156.404752,20.8024228 156.998154,20.8024228 C157.272932,20.8024228 157.500939,20.7790467 157.680713,20.7308336 L157.720176,21.892333 C157.417628,22.0062914 157.020078,22.0632706 156.530448,22.0632706 C155.925352,22.0632706 155.454723,21.8791839 155.114174,21.5110105 C154.772164,21.1428371 154.60262,20.5233708 154.60262,19.6540725 L154.60262,16.1812623 L153.595589,16.1812623 L153.595589,15.034373 L154.60262,15.034373 L154.60262,13.7720642 L156.103666,13.3191525 Z M171.39913,14.8809674 C172.390083,14.8809674 173.142798,15.2491408 173.651429,15.9854876 C174.062134,16.5698898 174.265294,17.2930876 174.265294,18.1521588 C174.265294,18.4268278 174.244831,18.6576667 174.208292,18.8461364 L169.614537,18.8461364 C169.634999,19.526965 169.854237,20.045622 170.279557,20.4050293 C170.668338,20.7264505 171.169661,20.8871611 171.783526,20.8871611 C172.463162,20.8871611 173.082873,20.7790467 173.641198,20.5613569 L173.880897,21.6249689 C173.22757,21.908404 172.458777,22.0501215 171.568673,22.0501215 C170.501718,22.0501215 169.661308,21.7360054 169.053289,21.107773 C168.442348,20.4795406 168.1398,19.6365404 168.1398,18.5787724 C168.1398,17.5399975 168.421886,16.6750822 168.990441,15.9854876 C169.583844,15.2491408 170.386253,14.8809674 171.39913,14.8809674 Z M63.5854729,12.2979097 C65.2589852,12.2979097 66.5203312,12.6617 67.3709724,13.3892808 C68.3239244,14.2118269 68.801862,15.3879363 68.801862,16.9190701 C68.801862,18.6386736 68.2859232,19.9331245 67.2555073,20.8024228 C66.3010938,21.6045149 64.9447449,22.0062914 63.1879223,22.0062914 C62.316819,22.0062914 61.5714117,21.9683052 60.9473159,21.892333 L60.9473159,12.4966064 C61.7614175,12.3651159 62.6383672,12.2979097 63.5854729,12.2979097 Z M94.391254,14.8897335 C95.0343505,14.8897335 95.5692898,15.0971962 95.9946104,15.5135828 C96.5237033,16.0234738 96.7882498,16.7846576 96.7882498,17.7956735 L96.7882498,21.9215531 L95.256511,21.9215531 L95.256511,17.9768381 C95.256511,16.7612815 94.7946509,16.1535032 93.8680074,16.1535032 C93.4134551,16.1535032 93.0465978,16.3200579 92.7615892,16.6546281 C92.4795037,16.9891984 92.3362686,17.3836699 92.3362686,17.8351206 L92.3362686,21.9200921 L90.8045298,21.9200921 L90.8045298,17.0023475 C90.8045298,16.3974912 90.7855292,15.7414997 90.7489896,15.031451 L92.0951074,15.031451 L92.166725,16.1082121 L92.2091109,16.1082121 C92.387424,15.7736418 92.653432,15.4975118 93.0027503,15.2768999 C93.4178399,15.019763 93.8826232,14.8897335 94.391254,14.8897335 Z M80.4389844,15.034373 L81.218008,18.3084864 C81.4065522,19.0828193 81.56148,19.8206271 81.6857145,20.5189878 L81.7134846,20.5189878 C81.8274881,19.9433516 82.0160323,19.2099268 82.2820403,18.3230965 L83.2598392,15.035834 L84.508031,15.035834 L85.4449056,18.2529682 C85.6714509,19.0375282 85.8556103,19.792868 85.9973839,20.5204488 L86.0397698,20.5204488 C86.1435421,19.8118611 86.2999315,19.0565212 86.5074763,18.2529682 L87.3435016,15.035834 L88.8474704,15.035834 L88.8474704,15.034373 L86.6916357,21.9215531 L85.2885162,21.9215531 L84.3954891,18.9308747 C84.1689438,18.1843009 83.9847843,17.4421101 83.8415492,16.7057633 L83.8137791,16.7057633 C83.6807751,17.4625642 83.4966157,18.203294 83.2598392,18.9308747 L82.311272,21.9215531 L80.8920751,21.9215531 L78.8648597,15.034373 L80.4389844,15.034373 Z M101.012224,11.8742181 L101.012224,21.9215531 L99.481947,21.9215531 L99.481947,11.8742181 L101.012224,11.8742181 Z M145.087716,14.8897335 C145.729351,14.8897335 146.26429,15.0971962 146.689611,15.5135828 C147.220165,16.0234738 147.48325,16.7846576 147.48325,17.7956735 L147.48325,21.9215531 L145.952973,21.9215531 L145.952973,17.9768381 C145.952973,16.7612815 145.491113,16.1535032 144.563008,16.1535032 C144.108455,16.1535032 143.741598,16.3200579 143.458051,16.6546281 C143.174504,16.9891984 143.03273,17.3836699 143.03273,17.8351206 L143.03273,21.9200921 L141.49953,21.9200921 L141.49953,17.0023475 C141.49953,16.3974912 141.481991,15.7414997 141.445451,15.031451 L142.790108,15.031451 L142.861725,16.1082121 L142.904111,16.1082121 C143.083886,15.7736418 143.349894,15.4975118 143.697751,15.2768999 C144.114302,15.019763 144.577623,14.8897335 145.087716,14.8897335 Z M161.447212,11.8742181 L161.447212,16.0249348 L161.476444,16.0249348 C161.958766,15.2695949 162.650095,14.8926555 163.546045,14.8926555 C164.180372,14.8926555 164.70508,15.1001183 165.121632,15.5165048 C165.640493,16.0351618 165.900655,16.8065727 165.900655,17.8263546 L165.900655,21.9215531 L164.367455,21.9215531 L164.367455,18.0060583 C164.367455,16.7715086 163.905595,16.1535032 162.980413,16.1535032 C162.270083,16.1535032 161.784838,16.5114496 161.51883,17.2273423 C161.473521,17.3778259 161.447212,17.5619126 161.447212,17.7781414 L161.447212,21.9200921 L159.916935,21.9200921 L159.916935,11.8742181 L161.447212,11.8742181 Z M135.873898,16.0117857 C135.260033,16.0117857 134.792326,16.2864547 134.469317,16.8357928 C134.194539,17.2901655 134.058612,17.8438866 134.058612,18.4984171 C134.058612,19.1339545 134.196001,19.6789096 134.469317,20.1332823 C134.801096,20.6826204 135.262956,20.9572894 135.859282,20.9572894 C136.443915,20.9572894 136.904314,20.6782374 137.234631,20.1186722 C137.516717,19.6555335 137.659952,19.1061954 137.659952,18.470658 C137.659952,17.8351206 137.522563,17.2901655 137.249247,16.8357928 C136.926237,16.2864547 136.470223,16.0117857 135.873898,16.0117857 Z M113.318752,19.8805283 C113.318752,20.2399357 113.415216,20.5087607 113.61253,20.6884644 C113.809843,20.8681681 114.061236,20.9572894 114.36086,20.9572894 C114.697024,20.9572894 115.011264,20.850636 115.297735,20.6387902 C115.585667,20.4254834 115.762518,20.1551974 115.828289,19.8235491 C115.844367,19.7490378 115.853136,19.6584555 115.853136,19.5547241 L115.853136,18.4925731 C114.163546,18.463353 113.318752,18.9264917 113.318752,19.8805283 Z M106.656857,16.0117857 C106.040069,16.0117857 105.572363,16.2864547 105.252276,16.8357928 C104.977498,17.2901655 104.841571,17.8438866 104.841571,18.4984171 C104.841571,19.1339545 104.97896,19.6789096 105.252276,20.1332823 C105.584055,20.6826204 106.045915,20.9572894 106.642241,20.9572894 C107.226874,20.9572894 107.68435,20.6782374 108.014667,20.1186722 C108.299676,19.6555335 108.439988,19.1061954 108.439988,18.470658 C108.439988,17.8351206 108.302599,17.2901655 108.029283,16.8357928 C107.709197,16.2864547 107.25026,16.0117857 106.656857,16.0117857 Z M73.9919426,16.0117857 C73.3766162,16.0117857 72.9089097,16.2864547 72.5873615,16.8357928 C72.3125839,17.2901655 72.1766567,17.8438866 72.1766567,18.4984171 C72.1766567,19.1339545 72.3140455,19.6789096 72.5873615,20.1332823 C72.9191408,20.6826204 73.3810009,20.9572894 73.9773267,20.9572894 C74.5619599,20.9572894 75.0208969,20.6782374 75.3512146,20.1186722 C75.6347617,19.6555335 75.7765352,19.1061954 75.7765352,18.470658 C75.7765352,17.8351206 75.6391464,17.2901655 75.3658304,16.8357928 C75.0442822,16.2864547 74.5868068,16.0117857 73.9919426,16.0117857 Z M122.93889,16.083375 C122.367411,16.083375 121.920166,16.3098308 121.59131,16.7642036 C121.265377,17.2185763 121.100219,17.7985955 121.100219,18.5071831 C121.100219,19.1880117 121.256608,19.7402718 121.570848,20.1654244 C121.902627,20.6183361 122.349872,20.844792 122.909658,20.844792 C123.412443,20.844792 123.814378,20.6563223 124.119849,20.2779218 C124.415088,19.9287415 124.559785,19.5079719 124.559785,19.0170741 L124.559785,17.8687237 C124.559785,17.670027 124.545169,17.5093164 124.517399,17.3865919 C124.431166,17.0184185 124.245545,16.7086853 123.963459,16.4588534 C123.678451,16.2090215 123.334979,16.083375 122.93889,16.083375 Z M63.7126306,13.5032392 C63.2303082,13.5032392 62.8196035,13.5353813 62.4790547,13.6025876 L62.4790547,20.7454436 C62.6675989,20.7746637 63.0125324,20.7878128 63.5138553,20.7878128 C64.6860447,20.7878128 65.5907645,20.4620085 66.2280146,19.8104001 C66.8652647,19.1587916 67.1868129,18.209138 67.1868129,16.9614393 C67.1868129,15.8466921 66.8915732,14.9920039 66.3010938,14.3959136 C65.7106143,13.8012843 64.8482804,13.5032392 63.7126306,13.5032392 Z M171.288049,15.9416574 C170.788188,15.9416574 170.380407,16.1491202 170.069089,16.5655068 C169.814774,16.8971551 169.664231,17.2930876 169.614537,17.7562263 L172.803711,17.7562263 C172.815403,17.3018536 172.714554,16.9103041 172.50701,16.5801169 C172.241001,16.1549642 171.836143,15.9416574 171.288049,15.9416574 Z" id="download-on-the" fill="#FFFFFF"></path>
                        <path d="M30.7185755,22.6538533 C32.1955871,22.6538533 35.0081003,20.6157541 37.9075832,20.9205854 C39.1207375,20.9559282 42.5729942,21.3991853 44.8003042,24.6433562 C44.6204684,24.7508571 40.687667,27.0599175 40.7304148,31.8061558 C40.7790589,37.4948676 45.7112754,39.375397 45.771712,39.3960137 C45.7422307,39.528549 44.9993027,42.1100432 43.149353,44.7312979 C41.6045345,47.0388857 39.9860128,49.2949319 37.415246,49.3361651 C34.9181824,49.3935971 34.0779662,47.8679679 31.2138608,47.8679679 C28.3232223,47.8679679 27.4284658,49.2949319 25.0331126,49.3935971 C22.5846931,49.4834266 20.7141065,46.9299122 19.1132735,44.642941 C15.9130817,39.9732787 13.4219143,31.4836531 16.7621422,25.7065843 C18.380664,22.873273 21.3317391,21.0487029 24.486235,21.0001066 C26.9376026,20.9500377 29.2120826,22.6538533 30.7185755,22.6538533 Z M37.9385385,11.8271876 C38.1832331,14.0493637 37.3017431,16.2391422 36.0134116,17.8487105 C34.6690657,19.4332442 32.518407,20.6452064 30.4237628,20.4891092 C30.149587,18.3508722 31.2109127,16.0771546 32.3990079,14.6899512 C33.7418798,13.1157257 36.0738482,11.909654 37.9385385,11.8271876 Z" fill="#FFFFFF"></path>
                    </g>
                </g>
            </g>
        </g>
    </g>
</svg>