<?xml version="1.0" encoding="UTF-8"?>
<svg width="195px" height="67px" viewBox="0 0 195 67" version="1.1" xmlns="http://www.w3.org/2000/svg" xmlns:xlink="http://www.w3.org/1999/xlink">
    <!-- Generator: Sketch 63.1 (92452) - https://sketch.com -->
    <title>google play</title>
    <desc>Created with Sketch.</desc>
    <defs>
        <linearGradient x1="50%" y1="0%" x2="50%" y2="100%" id="linearGradient-1">
            <stop stop-color="#1E79AF" offset="0%"></stop>
            <stop stop-color="#63FFD3" offset="100%"></stop>
        </linearGradient>
        <linearGradient x1="84.7178118%" y1="28.9197551%" x2="5.24419544%" y2="77.6068353%" id="linearGradient-2">
            <stop stop-color="#DC4057" offset="0%"></stop>
            <stop stop-color="#9E36BB" offset="100%"></stop>
        </linearGradient>
        <linearGradient x1="50%" y1="0%" x2="50%" y2="97.8256537%" id="linearGradient-3">
            <stop stop-color="#FF9676" offset="0%"></stop>
            <stop stop-color="#FFD074" offset="100%"></stop>
        </linearGradient>
        <linearGradient x1="17.4435371%" y1="20.3559085%" x2="100%" y2="79.6440915%" id="linearGradient-4">
            <stop stop-color="#51C6AD" offset="0%"></stop>
            <stop stop-color="#D5FFA1" offset="100%"></stop>
        </linearGradient>
    </defs>
    <g id="Page-1" stroke="none" stroke-width="1" fill="none" fill-rule="evenodd">
        <g id="Cosound-Landing-2020" transform="translate(-1191.000000, -3663.000000)">
            <g id="App" transform="translate(125.000000, 2783.000000)">
                <g id="Download-Apps" transform="translate(847.000000, 880.000000)">
                    <g id="google-play" transform="translate(219.000000, 0.000000)">
                        <rect id="bg" fill="#000000" x="0" y="0" width="194.992344" height="66.0931071" rx="8.33976"></rect>
                        <g transform="translate(14.571316, 27.163447)">
                            <path d="M1.21997653,-0.198690546 C0.670630374,-0.0255824737 0.315121305,0.5346737 0.315121305,1.38230633 L0.318507105,28.0597099 C0.318507105,28.8979623 0.663012323,29.449691 1.19712238,29.6338848 L16.0142325,14.7056586 L1.21997653,-0.198690546" id="left" fill="url(#linearGradient-1)"></path>
                            <path d="M1.19712238,29.6338848 C1.58141075,29.7652082 2.0630409,29.7038102 2.58784,29.4138755 L20.6697084,19.3957788 L16.0142325,14.7056586 L1.19712238,29.6338848" id="bottom" fill="url(#linearGradient-2)"></path>
                            <path d="M20.6722478,19.3957788 L26.8377908,15.9805186 C28.0879977,15.285528 28.0879977,14.1547827 26.8377908,13.4614977 L20.6493936,10.0334462 L16.0142325,14.7031004 L20.6722478,19.3957788" id="right" fill="url(#linearGradient-3)"></path>
                            <path d="M20.6485472,10.0334462 L2.58784,0.0289934702 C2.07573765,-0.25326649 1.60341846,-0.318928172 1.22082298,-0.198690546 L16.0142325,14.7031004 L20.6485472,10.0334462" id="top" fill="url(#linearGradient-4)"></path>
                        </g>
                        <path d="M112.879126,35.9859893 L111.049101,37.0263432 L109.274941,37.0263432 C109.93094,37.5695444 111.29965,38.7224612 111.29965,40.90891 C111.29965,43.03993 110.107002,44.0444685 108.904196,44.9952838 C108.535144,45.3696406 108.103454,45.7755492 108.103454,46.4031726 C108.103454,47.0401762 108.535144,47.3855396 108.845791,47.6430698 L109.877614,48.4455067 C111.132053,49.5122959 112.275607,50.4903991 112.275607,52.4773046 C112.275607,55.1839303 109.675312,57.9135803 104.761669,57.9135803 C100.622528,57.9135803 98.6215196,55.9275275 98.6215196,53.798213 C98.6215196,52.7621228 99.133622,51.2945416 100.823137,50.2891503 C102.59391,49.1984842 104.99275,49.0526641 106.277661,48.9673892 C105.876444,48.4455067 105.418514,47.8988945 105.418514,47.006919 C105.418514,46.5191465 105.564104,46.228359 105.704615,45.8855539 C105.392275,45.9154001 105.077395,45.9460991 104.791295,45.9460991 C101.76185,45.9460991 100.049481,43.6692589 100.049481,41.425676 C100.049481,40.1022093 100.648768,38.6337753 101.879506,37.5695444 C103.508076,36.2187898 105.449833,35.9859893 106.992912,35.9859893 L112.879126,35.9859893 Z M106.593387,49.7706789 C106.334374,49.7706789 104.791295,49.8269603 103.596107,50.2311634 C102.963809,50.4639639 101.136323,51.1521325 101.136323,53.1961721 C101.136323,55.235948 103.109398,56.7069402 106.161698,56.7069402 C108.904196,56.7069402 110.360091,55.3826209 110.360091,53.5995224 C110.360091,52.1319412 109.417992,51.357645 107.251079,49.8013778 C107.016612,49.7706789 106.876102,49.7706789 106.593387,49.7706789 Z M169.836758,35.8913341 L174.719082,47.6882655 L179.554006,35.8913341 L181.188501,35.8913341 L174.246763,52.3613307 C173.526434,54.0583015 172.393037,54.8743824 170.836416,54.8743824 C170.369175,54.8743824 169.752959,54.790813 169.392372,54.6791028 L169.640381,53.336023 C169.949336,53.4750211 170.476674,53.560296 170.811022,53.560296 C171.694716,53.560296 172.310085,53.1961721 172.862817,51.9102264 L173.916648,49.5046211 L168.225117,35.8913341 L169.836758,35.8913341 Z M144.014103,35.5544982 C147.597126,35.5544982 150.010356,38.2926757 150.010356,42.6271995 C150.010356,46.9327298 147.597126,49.7280414 144.014103,49.7280414 C142.128212,49.7280414 140.438697,48.7482327 139.355241,47.2124315 L139.355241,54.5418102 L137.910351,54.5418102 L137.910351,35.8913341 L139.355241,35.8913341 L139.355241,38.0155322 C140.296494,36.6426061 142.01648,35.5544982 144.014103,35.5544982 Z M59.9489045,29.8888331 C61.3937949,29.8888331 62.7836661,30.1028731 64.0499555,30.4507947 C66.0568889,31.0187256 66.9956021,31.7188327 67.5821921,32.129005 L65.357721,34.2574668 L64.4198542,34.4689486 L65.0885499,33.3953375 C64.1828482,32.5042146 62.5178807,30.8592616 59.3580822,30.8592616 C55.1334495,30.8592616 51.9465646,34.0945917 51.9465646,38.8179691 C51.9465646,43.8909737 55.5854539,48.6629578 61.4217277,48.6629578 C63.1366358,48.6629578 64.0194833,48.3158889 64.8210716,47.9918442 L64.8210716,43.6428237 L60.7775792,43.8619802 L62.920791,42.7022414 L68.5953929,42.7022414 L67.9013038,43.3750604 C67.7142383,43.5353773 67.6888448,43.5899532 67.6363649,43.804846 C67.608432,44.0504378 67.5821921,44.831556 67.5821921,45.1061412 L67.5821921,48.3951945 L63.7528515,49.2786426 C62.2013084,49.5250871 60.8080514,49.7416854 59.3326887,49.7416854 C51.9465646,49.7416854 49.1321178,44.2644778 49.1321178,39.9777079 C49.1321178,34.7426811 53.1197445,29.8888331 59.9489045,29.8888331 Z M161.462826,35.548529 C163.03807,35.548529 164.312824,35.9305606 165.273545,36.6929183 C166.23342,37.4476013 166.71505,38.5382674 166.71505,39.964064 L166.71505,46.6240346 C166.71505,47.1024269 166.737904,47.5646169 166.797155,48.0148684 C166.8581,48.4659727 166.955442,48.9162243 167.084948,49.3519791 L165.419981,49.3519791 C165.323486,48.8838198 165.250691,48.4710892 165.197365,48.1265786 C165.153349,47.7829207 165.127956,47.431588 165.127956,47.0742861 C164.632782,47.8067976 163.931075,48.4165133 163.034684,48.896611 C162.137447,49.3801198 161.285072,49.617184 160.116124,49.617184 C158.708478,49.617184 157.61571,49.2684096 156.83613,48.5606279 C156.059089,47.8536988 155.668029,46.8960616 155.668029,45.6843051 C155.668029,44.4742541 156.234304,43.4918871 157.363468,42.7406151 C158.492633,41.9859321 159.951913,41.6107225 161.758238,41.6107225 L165.127956,41.6107225 L165.127956,39.933365 C165.127956,38.9672002 164.801226,38.2074008 164.148613,37.6565248 C163.49346,37.1047961 162.574215,36.8259472 161.382414,36.8259472 C160.293032,36.8259472 159.409338,37.0809192 158.73641,37.5772192 C158.069408,38.0837521 157.733367,38.7113755 157.733367,39.467764 L156.254619,39.467764 L156.224146,39.3952803 C156.17082,38.3753923 156.633828,37.4808585 157.61825,36.7082678 C158.598439,35.9365298 159.882504,35.548529 161.462826,35.548529 Z M125.87129,35.6141907 C126.89888,35.6141907 127.954404,35.8734264 128.812704,36.4200386 C130.239819,37.3708539 130.608871,38.6064873 130.813712,39.2682207 L124.098823,42.0012816 L121.899746,42.1735369 C122.61161,45.8318307 125.068009,47.9594397 127.782574,47.9594397 C129.138587,47.9594397 130.145017,47.5134519 131.068494,47.0538202 C131.068494,47.0538202 131.253866,46.9566068 131.12182,47.0896356 L129.75565,48.3883725 C129.439924,48.5631861 129.125891,48.7661404 128.812704,48.910255 C127.863834,49.3443043 126.89888,49.4534562 126.041426,49.4534562 C125.128953,49.4534562 123.698452,49.3937638 122.239172,48.3303856 C120.211924,46.8917978 119.325691,44.4188254 119.325691,42.2639283 C119.325691,37.8023449 122.930722,35.6141907 125.87129,35.6141907 Z M76.7949557,35.6141907 C80.9916556,35.6141907 83.6190369,38.9262683 83.6190369,42.4037792 C83.6190369,45.800279 81.0229742,49.3937638 76.3641125,49.3937638 C71.8229074,49.3937638 69.3978277,45.8318307 69.3978277,42.6067335 C69.3978277,38.8384351 72.4526663,35.6141907 76.7949557,35.6141907 Z M91.9938148,35.6141907 C96.1930541,35.6141907 98.8229748,38.9262683 98.8229748,42.4037792 C98.8229748,45.800279 96.2235263,49.3937638 91.5655111,49.3937638 C87.0251524,49.3937638 84.5958404,45.8318307 84.5958404,42.6067335 C84.5958404,38.8384351 87.6498326,35.6141907 91.9938148,35.6141907 Z M153.427475,30.7415822 L153.427475,49.3920583 L151.983431,49.3920583 L151.983431,30.7415822 L153.427475,30.7415822 Z M118.352273,28.7077755 C117.466886,29.2245415 117.201947,29.5392059 117.088523,30.5463026 L117.081751,46.8670681 C117.081751,47.9850222 117.279821,48.158983 118.218534,48.2468162 C118.707782,48.3048031 119.195337,48.3303856 119.677814,48.3883725 L118.621444,49.0219651 L113.587605,49.0219651 C114.247836,48.158983 114.36126,48.0728554 114.36126,47.4981025 L114.36126,46.8559824 L114.350257,29.746424 L112.127478,29.746424 L114.267305,28.7077755 L118.352273,28.7077755 Z M76.0526189,36.507019 C75.107134,36.507019 74.1684208,36.8779649 73.4827962,37.4834168 C72.3654819,38.4905135 72.1674126,39.7559932 72.1674126,40.9975959 C72.1674126,43.8406615 73.5682876,48.5299289 77.0243437,48.5299289 C78.1391185,48.5299289 79.277594,47.9850222 79.9369787,47.0657587 C80.6226033,46.1447896 80.7935862,44.9952838 80.7935862,43.8747714 C80.7935862,41.340401 79.591627,36.507019 76.0526189,36.507019 Z M91.2548639,36.507019 C90.3127648,36.507019 89.3638942,36.8779649 88.6799624,37.4834168 C87.5643411,38.4905135 87.3654253,39.7559932 87.3654253,40.9975959 C87.3654253,43.8406615 88.7603752,48.5299289 92.2223564,48.5299289 C93.3396706,48.5299289 94.479839,47.9850222 95.1375308,47.0657587 C95.8282341,46.1447896 95.9958312,44.9952838 95.9958312,43.8747714 C95.9958312,41.340401 94.7972578,36.507019 91.2548639,36.507019 Z M143.770325,36.8685846 C141.908981,36.8685846 140.128896,38.3421351 139.355241,39.6272281 L139.355241,45.5973247 C140.128896,46.8849758 141.908981,48.4122495 143.770325,48.4122495 C146.767605,48.4122495 148.457966,45.8991979 148.457966,42.6271995 C148.457966,39.3603176 146.767605,36.8685846 143.770325,36.8685846 Z M165.127956,42.7661976 L161.742155,42.7661976 C160.448779,42.7661976 159.37802,43.0544268 158.535802,43.6360017 C157.691891,44.2158711 157.264434,44.9176836 157.264434,45.7337645 C157.264434,46.503797 157.535298,47.1194819 158.07364,47.5859356 C158.613675,48.0575059 159.35178,48.2911591 160.293032,48.2911591 C161.520385,48.2911591 162.402386,48.0148684 163.303856,47.4682562 C164.1994,46.925055 164.808844,46.2164205 165.127956,45.3585549 L165.127956,42.7661976 Z M105.190819,36.9376573 C104.450175,36.9376573 103.647741,37.3120142 103.192351,37.8910308 C102.709027,38.4905135 102.564285,39.2682207 102.564285,40.0160817 C102.564285,41.9432947 103.679906,45.1393984 106.133765,45.1393984 C106.849862,45.1393984 107.620131,44.7889185 108.072136,44.3335505 C108.732367,43.6692589 108.789925,42.7517008 108.789925,42.2306711 C108.789925,40.161049 107.565112,36.9376573 105.190819,36.9376573 Z M125.068009,36.5633004 C123.926994,36.5633004 121.784628,37.458687 121.784628,40.5678103 C121.784628,41.0530246 121.842187,41.5697906 121.870966,42.0865565 L127.07071,39.8131274 C127.615824,39.6135841 127.899384,39.4413287 127.899384,39.0405367 C127.899384,37.8910308 126.608548,36.5633004 125.068009,36.5633004 Z" id="logotype" fill="#FFFFFF"></path>
                        <path d="M53.8573976,10.6046028 C55.6524121,10.6046028 56.8255114,11.4602962 57.5578359,12.5081543 L56.2458623,13.2673344 C55.7490203,12.5770923 54.8786841,12.0402374 53.8573976,12.0402374 C52.0356434,12.0402374 50.6814037,13.4189981 50.6814037,15.3639124 C50.6814037,17.2803897 52.0356434,18.6875873 53.8573976,18.6875873 C54.7967396,18.6875873 55.6248098,18.2601715 56.0388448,17.8603309 L56.0388448,16.4393457 L53.2777485,16.4393457 L53.2777485,15.0183605 L57.6406429,15.0183605 L57.6406429,18.453198 C56.743567,19.4605551 55.4453946,20.1361478 53.8573976,20.1361478 C51.1782458,20.1361478 49.024401,18.2472456 49.024401,15.3639124 C49.024401,12.4676532 51.1782458,10.6046028 53.8573976,10.6046028 Z M100.877978,10.6046028 C103.624411,10.6046028 105.585902,12.6184551 105.585902,15.3639124 C105.585902,18.1085079 103.624411,20.1223602 100.877978,20.1223602 C98.115157,20.1223602 96.1691923,18.1085079 96.1691923,15.3639124 C96.1691923,12.6184551 98.115157,10.6046028 100.877978,10.6046028 Z M65.9480837,10.7562665 L65.9480837,12.1781134 L61.2530988,12.1781134 L61.2530988,14.5495818 L65.8514756,14.5495818 L65.8514756,15.9705671 L61.2530988,15.9705671 L61.2530988,18.5359237 L65.9480837,18.5359237 L65.9480837,19.9569089 L59.638362,19.9569089 L59.638362,10.7562665 L65.9480837,10.7562665 Z M74.822235,10.7562665 L74.822235,12.1781134 L72.0335364,12.1781134 L72.0335364,19.9569089 L70.4179372,19.9569089 L70.4179372,12.1781134 L67.6292386,12.1781134 L67.6292386,10.7562665 L74.822235,10.7562665 Z M82.0514596,10.7562665 L82.0514596,19.9569089 L80.4367229,19.9569089 L80.4367229,10.7562665 L82.0514596,10.7562665 Z M90.9549383,10.7562665 L90.9549383,12.1781134 L88.1662397,12.1781134 L88.1662397,19.9569089 L86.5506405,19.9569089 L86.5506405,12.1781134 L83.7619419,12.1781134 L83.7619419,10.7562665 L90.9549383,10.7562665 Z M109.129352,10.7562665 L113.837276,17.1295878 L113.837276,10.7562665 L115.452875,10.7562665 L115.452875,19.9569089 L113.89248,19.9569089 L109.087086,13.3776352 L109.087086,19.9569089 L107.472349,19.9569089 L107.472349,10.7562665 L109.129352,10.7562665 Z M100.877978,12.0402374 C99.0130956,12.0402374 97.8261951,13.4603609 97.8261951,15.3639124 C97.8261951,17.2528145 99.0130956,18.6875873 100.877978,18.6875873 C102.727335,18.6875873 103.928899,17.2528145 103.928899,15.3639124 C103.928899,13.4603609 102.727335,12.0402374 100.877978,12.0402374 Z" id="get-it-on" fill="#FFFFFF"></path>
                    </g>
                </g>
            </g>
        </g>
    </g>
</svg>