<?xml version="1.0" encoding="UTF-8"?>
<svg width="817px" height="138px" viewBox="0 0 817 138" version="1.1" xmlns="http://www.w3.org/2000/svg" xmlns:xlink="http://www.w3.org/1999/xlink">
    <!-- Generator: Sketch 63.1 (92452) - https://sketch.com -->
    <title>img-connect</title>
    <desc>Created with Sketch.</desc>
    <g id="Page-1" stroke="none" stroke-width="1" fill="none" fill-rule="evenodd">
        <g id="Cosound-Landing-2020" transform="translate(-168.000000, -909.000000)">
            <g id="img-connect" transform="translate(168.000000, 909.000000)">
                <rect id="Rectangle-7" stroke="#181818" stroke-width="10" x="486" y="10" width="168" height="60"></rect>
                <rect id="Rectangle-7" fill="#181818" x="659" y="38" width="158" height="3"></rect>
                <rect id="Rectangle-7" fill="#181818" x="323" y="38" width="158" height="3"></rect>
                <g id="Group-35" transform="translate(570.000000, 27.500000) rotate(90.000000) translate(-570.000000, -27.500000) translate(543.000000, 10.000000)" fill="#191919">
                    <g id="right-arrow" transform="translate(27.000000, 17.500000) scale(-1, 1) translate(-27.000000, -17.500000) ">
                        <g id="Capa_1" transform="translate(27.000000, 17.500000) scale(-1, 1) translate(-27.000000, -17.500000) translate(0.000000, 0.000000)">
                            <polygon id="Shape" points="36.3418554 0.311033321 34.9384489 1.68648943 50.1994839 16.6560601 0 16.6560601 0 18.6033403 50.2020996 18.6033403 34.9384489 33.5703457 36.3418554 34.9483671 54 17.6301666"></polygon>
                        </g>
                    </g>
                </g>
                <rect id="Rectangle-7" stroke="#181818" stroke-width="10" x="317" y="140" width="335" height="1"></rect>
                <rect id="Rectangle-9" stroke="#181818" fill="#181818" x="656.5" y="25.5" width="2" height="112"></rect>
                <rect id="Rectangle-7" stroke="#181818" stroke-width="10" x="5" y="140" width="335" height="1"></rect>
            </g>
        </g>
    </g>
</svg>