<?xml version="1.0" encoding="UTF-8"?>
<svg width="47px" height="22px" viewBox="0 0 47 22" version="1.1" xmlns="http://www.w3.org/2000/svg" xmlns:xlink="http://www.w3.org/1999/xlink">
    <!-- Generator: Sketch 63.1 (92452) - https://sketch.com -->
    <title>logo-small</title>
    <desc>Created with Sketch.</desc>
    <g id="Page-1" stroke="none" stroke-width="1" fill="none" fill-rule="evenodd">
        <g id="About-us" transform="translate(-97.000000, -42.000000)" fill="#FFFFFF">
            <g id="logo-small" transform="translate(97.000000, 42.000000)">
                <path d="M46.4812305,7.95654362 C45.3718602,4.40052433 42.9720874,1.83675993 39.3735767,0.654731735 C34.5533596,-0.928942743 30.41739,0.434951537 26.89551,3.93967526 C24.6675821,6.15694118 22.2592484,8.53377077 20,10.7214353 L21.7522747,12.7288557 C21.7522747,12.7288557 24.7861821,15.9097889 25.1271574,16.2550709 C26.0828487,17.2223876 27.0487714,18.1811889 28.09738,19.0434815 C29.1591432,19.9167225 30.3528699,20.7717162 31.6407667,21.228713 C35.9226897,22.7483187 39.9705444,22.0303836 43.2537626,19.0045536 C46.4787248,16.0320467 47.8294714,12.2793606 46.4812305,7.95654362 Z M41.5916908,12.8476668 C40.7381042,15.4177164 38.4604812,16.9855765 35.5877697,16.9837517 C33.9451165,17.0005799 32.5066727,16.4748511 31.326727,15.3694621 C30.0047953,14.1308669 28.7308882,12.8440173 27.4212759,11.5932571 C27.216649,11.3978068 26.8207585,10.99981 26.8207585,10.99981 C26.8207585,10.99981 27.1120387,10.6851432 27.3277322,10.4817857 C28.782045,9.10937592 30.1465725,7.63863278 31.675428,6.35117497 C33.7897671,4.57123921 36.8533246,4.48608452 39.1251011,5.98095482 C41.3983393,7.47663612 42.4254412,10.3366172 41.5916908,12.8476668 Z" id="Shape" fill-rule="nonzero"></path>
                <path d="M18.5894327,12.758128 C17.5994313,13.6948527 16.6144939,14.6157249 15.5626702,15.5870001 C12.4027681,18.5044841 6.92442301,17.0917755 5.4830975,13.1176563 C4.51757188,10.4552362 5.51242619,7.41093161 7.76714795,5.97647659 C10.4284624,4.40483579 13.4486839,4.60949663 15.7211295,6.54757585 C15.9464751,6.73983917 17.6078712,8.289327 18.4096626,9.00289623 C19.6212116,7.87695675 20.7553244,6.82296358 21.9765793,5.68808162 C21.5288421,5.23547021 21.1737329,4.84870796 20.788873,4.49161849 C18.7831286,2.62894063 16.7543854,0.874588722 13.8700464,0.258980294 C5.67299546,-1.4904939 -1.7845084,5.91347275 0.378429359,13.7330615 C2.64707698,21.9345347 13.2035045,24.824988 19.4228737,18.7634095 C20.2746715,17.9333848 21.1471472,17.1218548 22,16.2928463 C21.6552297,15.9469349 18.5894327,12.758128 18.5894327,12.758128 Z" id="Path"></path>
            </g>
        </g>
    </g>
</svg>