<?xml version="1.0" encoding="UTF-8"?>
<svg width="182px" height="34px" viewBox="0 0 182 34" version="1.1" xmlns="http://www.w3.org/2000/svg" xmlns:xlink="http://www.w3.org/1999/xlink">
    <!-- Generator: Sketch 63.1 (92452) - https://sketch.com -->
    <title>logo</title>
    <desc>Created with Sketch.</desc>
    <defs>
        <polygon id="path-1" points="0.000114598973 0.11606352 71.9462533 0.11606352 71.9462533 25.7219444 0.000114598973 25.7219444"></polygon>
    </defs>
    <g id="Page-1" stroke="none" stroke-width="1" fill="none" fill-rule="evenodd">
        <g id="Cosound-Landing-2020" transform="translate(-184.000000, -3972.000000)">
            <g id="Footer" transform="translate(0.000000, 3885.000000)">
                <g id="logo" transform="translate(184.000000, 87.000000)">
                    <path d="M153.145667,20.4167639 C153.161535,24.6422083 154.89883,27.2306944 157.756254,28.1435 C161.0926,29.2090694 164.550119,27.8400972 166.065263,24.8535278 C167.723458,21.5852778 166.796148,17.1185278 164.001715,15.2197222 C161.740539,13.6826389 159.262502,13.5497083 156.85539,14.7335694 C154.178523,16.0498889 153.174277,18.4353194 153.145667,20.4167639 Z M166.884624,13.002875 C166.884624,10.686625 166.884624,8.58618056 166.884624,6.48597222 C166.884624,4.41480556 166.884624,2.34340278 166.884624,0.186055556 C168.811852,0.186055556 170.642911,0.186055556 172.580959,0.186055556 C172.580959,11.0037222 172.580959,21.8365 172.580959,32.773875 C170.731627,32.773875 168.875083,32.773875 166.901934,32.773875 C166.901934,31.7104306 166.900251,30.6788611 166.900251,29.6711389 C166.708634,29.6744444 166.555004,29.6739722 166.555004,29.6739722 C163.32228,33.4670972 159.195424,34.0207778 154.706491,32.5764861 C150.137738,31.1062222 147.984272,27.5997361 147.406777,23.1192917 C146.939876,19.4994722 147.512563,16.054375 149.849952,13.0418333 C153.749849,8.01668056 162.846243,7.80701389 166.343913,12.5490694 C166.432388,12.6687778 166.577123,12.7483472 166.884624,13.002875 L166.884624,13.002875 Z" id="Fill-1" fill="#FFFFFE"></path>
                    <path d="M85.1969168,14.0691457 C81.1688745,14.0639583 78.3842985,16.9109861 78.3501585,21.0698472 C78.3157781,25.2610556 81.1518045,28.3021667 85.129358,28.3397083 C89.1035456,28.37725 92.0367028,25.3555 92.0600238,21.1999444 C92.0835852,16.9933889 89.2740053,14.0743472 85.1969168,14.0691457 Z M97.9145584,21.0568611 C97.9116724,28.5342639 92.3600713,33.4947222 84.3162483,33.0565 C79.4993791,32.7941806 75.5511572,30.8618472 73.5890674,26.2999444 C71.636354,21.76 71.9200528,17.2408333 75.1823487,13.3369722 C78.440317,9.43783333 82.956177,8.63222222 87.7821823,9.37384722 C94.11107,10.3463889 97.9167213,14.82825 97.9145584,21.0568611 L97.9145584,21.0568611 Z" id="Fill-3" fill="#FFFFFE"></path>
                    <path d="M128.844941,32.80575 C126.88237,32.80575 125.050108,32.80575 123.125284,32.80575 C123.125284,25.0202222 123.125284,17.248625 123.125284,9.38636111 C124.990003,9.38636111 126.85953,9.38636111 128.86153,9.38636111 C128.86153,10.7246389 128.86153,11.991375 128.86153,13.5768611 C131.660531,9.55163889 135.422666,8.62136111 139.706037,9.37620833 C143.612425,10.0644722 146.163791,12.9927222 146.281358,17.0720139 C146.431382,22.2607917 146.317902,27.4566528 146.317902,32.7641944 C144.42241,32.7641944 142.556248,32.7641944 140.501596,32.7641944 C140.501596,32.3410833 140.501596,31.8827917 140.501596,31.4242639 C140.501355,27.6575833 140.509049,23.8909028 140.498711,20.1242222 C140.490296,17.0571389 139.072042,15.1309444 136.499519,14.6532917 C133.417059,14.0811944 130.490634,15.4893611 129.464991,18.1798472 C129.088008,19.1698611 128.897834,20.278875 128.874753,21.33925 C128.800943,24.7146944 128.845662,28.0927361 128.844941,31.4698333 C128.844941,31.8915278 128.844941,32.31275 128.844941,32.80575" id="Fill-4" fill="#FFFFFE"></path>
                    <path d="M115.733007,9.36629167 C117.741017,9.36629167 119.571355,9.36629167 121.49041,9.36629167 C121.49041,17.1865278 121.49041,24.9510417 121.49041,32.8022083 C119.615112,32.8022083 117.74823,32.8022083 115.758011,32.8022083 C115.758011,31.5156389 115.758011,30.2909306 115.758011,29.0478056 C115.578174,29.0468611 115.440653,29.0473333 115.440653,29.0473333 C115.440653,29.0473333 115.440653,29.0473333 115.438008,29.0518194 C113.120333,32.8265278 108.579469,33.6533889 104.858927,32.7778889 C101.339139,31.9498472 99.0827715,29.3264167 98.8704782,25.007 C98.6163514,19.8385278 98.8106129,14.6485694 98.8106129,9.381875 C100.748901,9.381875 102.618188,9.381875 104.622832,9.381875 C104.622832,11.5115972 104.622592,13.5785139 104.622832,15.6456667 C104.622832,17.7227361 104.613696,19.8000417 104.625958,21.876875 C104.646394,25.459625 106.21395,27.4547639 109.141096,27.6457778 C112.592845,27.8715 115.278367,25.7944306 115.584666,22.3568889 C115.821723,19.692375 115.704637,16.9969306 115.730122,14.3156528 C115.745509,12.7176528 115.733007,11.1196528 115.733007,9.36629167" id="Fill-5" fill="#FFFFFE"></path>
                    <g id="Group-10" transform="translate(0.000000, 8.263889)">
                        <mask id="mask-2" fill="white">
                            <use xlink:href="#path-1"></use>
                        </mask>
                        <g id="Clip-7"></g>
                        <path d="M53.3909141,22.2027083 C53.8037199,21.5170417 54.1816645,20.8937083 54.5548005,20.2677778 C54.9077411,19.6765556 55.2556328,19.0827361 55.6412708,18.430125 C57.8841744,19.6463333 60.2133897,20.4824028 62.7912021,20.4146389 C63.143181,20.4051944 63.5042959,20.4198333 63.8444941,20.3475833 C64.9062008,20.1228056 65.9445865,19.8106667 66.1657754,18.5592778 C66.3961004,17.2557083 65.5986182,16.4720556 64.5169564,16.0565 C62.6760396,15.3491111 60.7846341,14.7659167 58.904288,14.1602917 C58.0262642,13.8776667 56.5418943,13.2581111 56.5418943,13.2581111 C56.5418943,13.2581111 56.4801057,11.9989306 56.4411572,11.2591944 C56.3435456,9.40572222 55.0767583,6.73436111 54.822391,6.16769444 C54.6526526,5.78968056 54.1326182,5.03081944 54.1326182,5.03081944 C54.1326182,5.03081944 54.5778811,4.23465278 54.813255,3.93030556 C56.3622985,1.92690278 58.5318732,1.11586111 60.9757701,0.820013889 C64.7463197,0.363611111 68.2108111,1.21172222 71.6106288,3.17002778 C70.8977754,4.56709722 69.964214,6.50533333 69.4054716,7.60041667 C67.2120951,6.35327778 65.3815165,5.57576389 63.172753,5.24426389 C62.4288851,5.17343056 61.304428,5.22631944 60.4574188,5.50681944 C58.8336037,6.04491667 58.5948639,7.74751389 59.9818626,8.72926389 C60.6447081,9.19865278 61.4556539,9.49473611 62.2358256,9.77004167 C63.8086711,10.3249028 65.4384967,10.7329028 66.986819,11.3427778 C70.5191096,12.7337083 72.154465,15.02375 71.9251017,18.0714722 C71.684679,21.2677083 69.6660898,23.4793611 66.0340238,24.36525 C61.8701427,25.3802917 57.9086975,24.7449167 54.1595456,22.7393889 C53.8991678,22.5998472 53.6717279,22.4008056 53.3909141,22.2027083" id="Fill-6" fill="#FFFFFE" mask="url(#mask-2)"></path>
                        <path d="M47.9051889,15.0780556 C46.9223408,18.071 44.2998098,19.8968472 40.992074,19.8947222 C39.1006684,19.9140833 37.4443963,19.3020833 36.0857675,18.0148056 C34.5636513,16.5724028 33.0968322,15.0738056 31.5886605,13.617 C31.3530462,13.3893889 30.8974452,12.9259028 30.8974452,12.9259028 C30.8974452,12.9259028 31.2328349,12.5596944 31.4811915,12.322875 C33.1557358,10.7244028 34.7268983,9.01165278 36.4872734,7.51234722 C38.9217939,5.43952778 42.4492761,5.34059722 45.0653157,7.08120833 C47.6825575,8.82323611 48.8654373,12.1538194 47.9051889,15.0780556 Z M53.5351678,9.38211111 C52.2578018,5.24072222 49.4946235,2.25509722 45.3514188,0.878569444 C39.8012602,-0.965694444 35.0387266,0.622388889 30.9835165,4.70404167 C28.4182061,7.28591667 25.6451704,10.0538472 23.0437966,12.6014861 L25.0616645,14.9392222 C25.0616645,14.9392222 28.5550066,18.6435694 28.9476169,19.0456667 C30.0480317,20.1723889 31.1604676,21.2887222 32.3676301,22.2929028 C33.5901797,23.3100694 34.9646764,24.3055139 36.4476037,24.8379444 C41.3779524,26.6075972 46.0385469,25.7712917 49.8191942,22.2475694 C53.5322827,18.7866528 55.0878177,14.4162361 53.5351678,9.38211111 L53.5351678,9.38211111 Z" id="Fill-8" fill="#FFFFFE" mask="url(#mask-2)"></path>
                        <path d="M21.1822034,14.9392222 C20.05414,16.0274583 18.9318468,17.0972778 17.7330991,18.2256528 C14.132288,21.6150278 7.89019287,19.9738194 6.24786526,15.3566667 C5.14769089,12.2638472 6.28128402,8.72713889 8.85044122,7.06043056 C11.882893,5.23481944 15.3240634,5.47234722 17.9134161,7.72413889 C18.1701876,7.9475 20.0635165,9.74761111 20.9771229,10.5765972 C22.3576301,9.26854167 23.6499022,8.04406944 25.041469,6.725625 C24.5312919,6.19980556 24.1264201,5.75072222 23.6881295,5.33563889 C21.4026711,3.17168056 19.0910066,1.13333333 15.804428,0.418388889 C6.46424571,-1.61405556 -2.03325495,6.98723611 0.431318362,16.0720833 C3.01634346,25.599875 15.0446922,28.9578472 22.1316328,21.9160694 C23.1022193,20.9515556 24.0963672,20.0087639 25.0681559,19.0456667 C24.6755456,18.6435694 21.1822034,14.9392222 21.1822034,14.9392222" id="Fill-9" fill="#FFFFFE" mask="url(#mask-2)"></path>
                    </g>
                    <path d="M177.857517,29.8043056 L178.567725,29.8043056 C178.933649,29.8043056 179.20196,29.7464583 179.372661,29.6300556 C179.543361,29.514125 179.62847,29.339875 179.62847,29.1077778 C179.62847,28.8721389 179.541678,28.7026111 179.367852,28.5984861 C179.194267,28.4945972 178.915376,28.4426528 178.531181,28.4426528 L177.857517,28.4426528 L177.857517,29.8043056 Z M177.857517,30.160125 L177.857517,31.6410139 L177.339406,31.6410139 L177.339406,28.07975 L178.561715,28.07975 C179.108196,28.07975 179.512106,28.1633333 179.773445,28.3305 C180.034544,28.4976667 180.165094,28.7495972 180.165094,29.0858194 C180.165094,29.556625 179.866489,29.8751389 179.268798,30.0406528 L180.479086,31.6410139 L179.866489,31.6410139 L178.787231,30.160125 L177.857517,30.160125 L177.857517,30.160125 Z" id="Fill-11" fill="#FFFFFE"></path>
                    <path d="M178.532143,26.9924583 C176.946795,26.9924583 175.657168,28.2589583 175.657168,29.815875 C175.657168,31.3725556 176.946795,32.6392917 178.532143,32.6392917 C180.11749,32.6392917 181.407358,31.3725556 181.407358,29.815875 C181.407358,28.2589583 180.11749,26.9924583 178.532143,26.9924583 Z M178.532143,33.1115139 C176.681849,33.1115139 175.176322,31.6329861 175.176322,29.815875 C175.176322,27.9985278 176.681849,26.5202361 178.532143,26.5202361 C180.382676,26.5202361 181.888203,27.9985278 181.888203,29.815875 C181.888203,31.6329861 180.382676,33.1115139 178.532143,33.1115139 L178.532143,33.1115139 Z" id="Fill-12" fill="#FFFFFE"></path>
                </g>
            </g>
        </g>
    </g>
</svg>