<?xml version="1.0" encoding="UTF-8"?>
<svg width="496px" height="359px" viewBox="0 0 496 359" version="1.1" xmlns="http://www.w3.org/2000/svg" xmlns:xlink="http://www.w3.org/1999/xlink">
    <!-- Generator: Sketch 63.1 (92452) - https://sketch.com -->
    <title>title</title>
    <desc>Created with Sketch.</desc>
    <g id="Page-1" stroke="none" stroke-width="1" fill="none" fill-rule="evenodd">
        <g id="Cosound-Landing-2020" transform="translate(-849.000000, -268.000000)" fill-rule="nonzero" stroke="#FFFFFF" stroke-width="2">
            <g id="Header">
                <path d="M944.165,370 L944.165,317.376 C945.166,315.231 946.739,312.943 948.598,310.798 C950.457,308.653 951.887,307.652 953.174,307.652 C955.033,307.652 956.32,308.653 956.892,310.512 C957.452784,312.334549 957.738674,317.593276 957.74967,326.288182 L957.75,370 L972.479,370 L972.479,317.376 C973.48,314.945 974.91,312.657 976.769,310.655 C978.485,308.653 980.058,307.652 981.631,307.652 C983.49,307.652 984.777,308.653 985.349,310.655 C985.76825,312.6115 986.050926,317.299477 986.063558,324.718932 L986.064,370 L1001.079,370 L1001.079,317.805 C1001.079,309.511 999.935,303.505 997.647,299.93 C995.216,296.355 991.212,294.639 985.635,294.639 C980.344,294.639 975.196,297.928 970.477,304.506 C969.047,300.931 967.331,298.214 965.472,296.784 C963.47,295.211 960.753,294.639 957.178,294.639 C952.602,294.639 948.169,297.356 943.736,302.647 L943.736,296.355 L929.15,296.355 L929.15,370 L944.165,370 Z M1043.121,371.859 C1050.557,371.859 1058.279,368.713 1066.287,362.564 L1066.287,370 L1082.303,370 L1082.303,296.355 L1066.001,296.355 L1066.001,347.835 C1058.708,354.985 1052.273,358.56 1046.41,358.56 C1042.549,358.56 1039.832,357.13 1038.402,354.413 C1036.972,351.696 1036.257,346.834 1036.257,339.541 L1036.257,296.355 L1019.955,296.355 L1019.955,346.119 C1019.955,355.128 1021.814,361.563 1025.389,365.71 C1028.964,369.857 1034.97,371.859 1043.121,371.859 Z M1132.782,371.859 C1142.22,371.859 1150.228,369.714 1156.806,365.281 C1163.241,360.991 1166.53,355.271 1166.53,348.264 C1166.53,342.687 1164.814,338.111 1161.382,334.679 C1157.95,331.247 1152.373,328.53 1144.508,326.385 L1133.211,323.382 C1129.636,322.381 1127.062,321.237 1125.775,319.95 C1124.345,318.663 1123.63,317.09 1123.63,315.231 C1123.63,312.8 1125.203,310.798 1128.206,309.368 C1131.209,307.938 1135.213,307.223 1140.075,307.223 C1145.08,307.223 1151.515,308.51 1159.237,311.084 L1162.812,297.928 C1154.661,295.783 1147.082,294.639 1139.932,294.639 C1130.494,294.639 1122.629,296.641 1116.48,300.645 C1110.188,304.792 1107.042,309.94 1107.042,316.375 C1107.042,321.094 1108.615,325.098 1111.761,328.673 C1114.764,332.248 1119.054,334.679 1124.345,336.109 L1134.212,338.826 C1140.504,340.542 1144.651,342.258 1146.796,343.831 C1148.798,345.404 1149.799,347.406 1149.799,349.837 C1149.799,352.554 1148.083,354.842 1144.508,356.558 C1140.933,358.417 1136.929,359.275 1132.353,359.275 C1125.346,359.275 1118.196,357.559 1110.76,353.984 L1107.328,367.14 C1114.478,370.286 1122.915,371.859 1132.782,371.859 Z M1225.303,288.061 C1228.02,288.061 1230.308,287.203 1232.167,285.344 C1234.026,283.485 1234.884,281.34 1234.884,278.766 C1234.884,276.192 1234.026,274.047 1232.167,272.188 C1230.308,270.472 1228.02,269.614 1225.303,269.614 C1222.729,269.614 1220.584,270.472 1218.725,272.331 C1216.866,274.19 1215.865,276.335 1215.865,278.766 C1215.865,281.34 1216.866,283.485 1218.725,285.344 C1220.584,287.203 1222.729,288.061 1225.303,288.061 Z M1233.311,370 L1233.311,296.355 L1198.133,296.355 L1198.133,309.511 L1217.009,309.511 L1217.009,370 L1233.311,370 Z M1314.535,371.859 C1322.543,371.859 1330.694,370.286 1338.845,366.997 L1336.271,353.841 C1331.409,355.7 1327.405,356.987 1324.402,357.559 C1321.399,358.274 1318.11,358.56 1314.535,358.56 C1308.386,358.56 1303.381,355.986 1299.52,350.981 C1295.659,345.976 1293.657,340.113 1293.657,333.249 C1293.657,325.956 1295.516,319.95 1299.377,315.088 C1303.238,310.369 1308.243,307.938 1314.392,307.938 C1320.684,307.938 1327.119,309.511 1333.84,312.657 L1338.559,299.358 C1331.266,296.212 1323.258,294.639 1314.249,294.639 C1303.524,294.639 1294.515,298.214 1287.508,305.507 C1280.501,312.8 1276.926,322.095 1276.926,333.249 C1276.926,344.117 1280.501,353.269 1287.651,360.705 C1294.801,368.141 1303.81,371.859 1314.535,371.859 Z M1120.627,497 L1133.783,466.684 L1135.928,459.534 L1137.787,466.541 L1150.943,497 L1162.383,497 L1174.538,423.355 L1158.379,423.355 L1152.516,462.108 L1152.087,473.977 L1150.085,462.108 L1143.507,445.949 L1129.207,445.949 L1121.485,463.252 L1119.626,474.12 L1119.34,462.966 L1114.764,423.355 L1099.034,423.355 L1108.615,497 L1120.627,497 Z M1206.57,498.859 L1248.183,396.614 L1235.17,396.614 L1193.7,498.859 L1206.57,498.859 Z M1308.529,498.859 C1318.682,498.859 1327.119,495.141 1333.84,487.705 C1340.561,480.269 1343.993,471.117 1343.993,460.249 C1343.993,448.952 1340.704,439.8 1334.126,432.507 C1327.548,425.214 1318.968,421.639 1308.529,421.639 C1298.09,421.639 1289.51,425.214 1282.932,432.507 C1276.211,439.8 1272.922,448.952 1272.922,460.249 C1272.922,471.117 1276.354,480.269 1283.075,487.705 C1289.796,495.141 1298.376,498.859 1308.529,498.859 Z M1308.529,485.56 C1302.666,485.56 1298.09,483.272 1294.944,478.839 C1291.655,474.406 1290.082,468.257 1290.082,460.249 C1290.082,452.098 1291.655,445.806 1294.801,441.373 C1297.947,436.94 1302.523,434.795 1308.529,434.795 C1314.535,434.795 1319.111,436.94 1322.257,441.373 C1325.26,445.806 1326.833,452.098 1326.833,460.249 C1326.833,468.4 1325.26,474.549 1322.114,478.982 C1318.968,483.415 1314.392,485.56 1308.529,485.56 Z M903.267,624 L903.267,610.844 L884.391,610.844 L884.391,516.75 L850.214,516.75 L850.214,529.906 L868.089,529.906 L868.089,624 L903.267,624 Z M958.751,625.859 C967.188,625.859 974.195,622.856 980.058,616.707 L980.058,624 L996.074,624 L996.074,576.953 C996.074,567.801 993.643,560.794 988.638,555.932 C983.633,551.07 976.626,548.639 967.474,548.639 C962.898,548.639 957.607,549.354 951.601,550.784 C945.595,552.214 940.59,554.073 936.729,556.218 L942.449,568.087 C950.028,563.94 957.321,561.938 964.042,561.938 C968.475,561.938 972.193,563.511 975.196,566.514 C978.199,569.517 979.772,573.521 979.772,578.383 L979.772,578.955 L969.19,579.527 C958.179,580.099 949.599,582.673 943.164,586.82 C936.729,590.967 933.44,596.687 933.44,603.837 C933.44,610.701 935.871,616.135 940.59,619.996 C945.309,623.857 951.458,625.859 958.751,625.859 Z M960.753,612.703 C958.036,612.703 955.605,611.845 953.46,610.129 C951.315,608.413 950.314,606.268 950.314,603.837 C950.314,596.115 957.321,591.968 971.478,591.253 L979.772,590.824 L979.772,602.979 C973.48,609.414 967.188,612.703 960.753,612.703 Z M1055.848,625.859 C1065,625.859 1072.436,621.998 1078.013,614.419 C1083.59,606.84 1086.45,597.402 1086.45,585.819 C1086.45,574.522 1083.876,565.37 1078.585,558.649 C1073.294,551.928 1066.001,548.639 1056.706,548.639 C1048.698,548.639 1041.834,551.07 1036.114,556.075 L1036.114,516.75 L1019.812,516.75 L1019.812,624 L1035.828,624 L1035.828,616.993 C1041.262,622.856 1047.983,625.859 1055.848,625.859 Z M1052.988,612.703 C1049.556,612.703 1046.41,611.559 1043.407,609.128 C1040.404,606.84 1037.973,603.694 1036.114,599.833 L1036.114,571.376 C1041.262,564.941 1046.982,561.795 1053.417,561.795 C1058.708,561.795 1062.712,564.083 1065.429,568.516 C1068.146,572.949 1069.433,579.384 1069.433,587.535 C1069.433,594.828 1068.003,600.834 1065,605.553 C1061.997,610.272 1057.993,612.703 1052.988,612.703 Z M1139.789,625.859 C1148.512,625.859 1157.092,624.286 1165.672,621.14 L1162.955,607.841 C1154.518,611.13 1146.796,612.703 1139.789,612.703 C1133.926,612.703 1129.064,610.415 1125.06,605.982 C1121.056,601.549 1119.054,596.544 1119.054,590.824 L1119.054,590.395 L1168.532,590.395 L1168.532,586.105 C1168.532,578.812 1167.245,572.377 1164.528,566.8 C1161.811,561.223 1157.807,556.79 1152.802,553.501 C1147.797,550.212 1142.649,548.639 1137.358,548.639 C1127.062,548.639 1118.625,552.357 1112.047,559.65 C1105.469,566.943 1102.18,576.381 1102.18,587.678 C1102.18,598.689 1105.755,607.841 1112.762,614.991 C1119.769,622.284 1128.778,625.859 1139.789,625.859 Z M1151.086,578.24 L1120.341,578.24 C1123.63,567.229 1129.207,561.795 1137.215,561.795 C1140.79,561.795 1143.936,563.225 1146.367,566.228 C1148.798,569.231 1150.371,573.235 1151.086,578.24 Z M1246.467,624 L1246.467,610.844 L1227.591,610.844 L1227.591,516.75 L1193.414,516.75 L1193.414,529.906 L1211.289,529.906 L1211.289,624 L1246.467,624 Z M1304.382,625.859 C1313.82,625.859 1321.828,623.714 1328.406,619.281 C1334.841,614.991 1338.13,609.271 1338.13,602.264 C1338.13,596.687 1336.414,592.111 1332.982,588.679 C1329.55,585.247 1323.973,582.53 1316.108,580.385 L1304.811,577.382 C1301.236,576.381 1298.662,575.237 1297.375,573.95 C1295.945,572.663 1295.23,571.09 1295.23,569.231 C1295.23,566.8 1296.803,564.798 1299.806,563.368 C1302.809,561.938 1306.813,561.223 1311.675,561.223 C1316.68,561.223 1323.115,562.51 1330.837,565.084 L1334.412,551.928 C1326.261,549.783 1318.682,548.639 1311.532,548.639 C1302.094,548.639 1294.229,550.641 1288.08,554.645 C1281.788,558.792 1278.642,563.94 1278.642,570.375 C1278.642,575.094 1280.215,579.098 1283.361,582.673 C1286.364,586.248 1290.654,588.679 1295.945,590.109 L1305.812,592.826 C1312.104,594.542 1316.251,596.258 1318.396,597.831 C1320.398,599.404 1321.399,601.406 1321.399,603.837 C1321.399,606.554 1319.683,608.842 1316.108,610.558 C1312.533,612.417 1308.529,613.275 1303.953,613.275 C1296.946,613.275 1289.796,611.559 1282.36,607.984 L1278.928,621.14 C1286.078,624.286 1294.515,625.859 1304.382,625.859 Z" id="title"></path>
            </g>
        </g>
    </g>
</svg>